Aarav Bold.ufo
<glyph name="exclam" format="1">
  <advance width="258"/>
  <unicode hex="0021"/>
  <outline>
    <contour>
      <point x="129" y="134" type="curve" smooth="yes"/>
      <point x="110" y="133"/>
      <point x="94" y="119"/>
      <point x="83" y="118" type="curve" smooth="yes"/>
      <point x="68" y="117"/>
      <point x="54" y="92"/>
      <point x="54" y="49" type="curve" smooth="yes"/>
      <point x="54" y="38"/>
      <point x="73" y="-16"/>
      <point x="110" y="-16" type="curve" smooth="yes"/>
      <point x="157" y="-16"/>
      <point x="205" y="28"/>
      <point x="205" y="54" type="curve" smooth="yes"/>
      <point x="205" y="79"/>
      <point x="159" y="134"/>
    </contour>
    <contour>
      <point x="129" y="739" type="curve" smooth="yes"/>
      <point x="100" y="739"/>
      <point x="60" y="697"/>
      <point x="60" y="664" type="curve" smooth="yes"/>
      <point x="60" y="600"/>
      <point x="80" y="536"/>
      <point x="73" y="475" type="curve" smooth="yes"/>
      <point x="71" y="450"/>
      <point x="65" y="283"/>
      <point x="65" y="247" type="curve" smooth="yes"/>
      <point x="65" y="213"/>
      <point x="98" y="195"/>
      <point x="121" y="195" type="curve" smooth="yes"/>
      <point x="164" y="195"/>
      <point x="191" y="238"/>
      <point x="191" y="304" type="curve" smooth="yes"/>
      <point x="191" y="368"/>
      <point x="186" y="421"/>
      <point x="186" y="475" type="curve" smooth="yes"/>
      <point x="186" y="540"/>
      <point x="204" y="602"/>
      <point x="204" y="665" type="curve" smooth="yes"/>
      <point x="204" y="698"/>
      <point x="160" y="739"/>
    </contour>
  </outline>
</glyph>
<glyph name="quotedbl" format="1">
  <advance width="357"/>
  <unicode hex="0022"/>
  <outline>
    <contour>
      <point x="79" y="721" type="curve" smooth="yes"/>
      <point x="46" y="720"/>
      <point x="22" y="681"/>
      <point x="28" y="651" type="curve" smooth="yes"/>
      <point x="35" y="606"/>
      <point x="31" y="567"/>
      <point x="31" y="528" type="curve" smooth="yes"/>
      <point x="31" y="497"/>
      <point x="58" y="469"/>
      <point x="91" y="469" type="curve" smooth="yes"/>
      <point x="128" y="469"/>
      <point x="145" y="502"/>
      <point x="145" y="532" type="curve" smooth="yes"/>
      <point x="145" y="557"/>
      <point x="139" y="576"/>
      <point x="139" y="595" type="curve" smooth="yes"/>
      <point x="139" y="618"/>
      <point x="151" y="640"/>
      <point x="151" y="661" type="curve" smooth="yes"/>
      <point x="151" y="695"/>
      <point x="116" y="721"/>
    </contour>
    <contour>
      <point x="267" y="730" type="curve" smooth="yes"/>
      <point x="236" y="730"/>
      <point x="209" y="706"/>
      <point x="209" y="674" type="curve"/>
      <point x="208" y="634"/>
      <point x="216" y="592"/>
      <point x="205" y="555" type="curve" smooth="yes"/>
      <point x="193" y="515"/>
      <point x="217" y="474"/>
      <point x="256" y="474" type="curve" smooth="yes"/>
      <point x="295" y="474"/>
      <point x="319" y="505"/>
      <point x="319" y="538" type="curve" smooth="yes"/>
      <point x="319" y="570"/>
      <point x="323" y="615"/>
      <point x="323" y="625" type="curve" smooth="yes"/>
      <point x="323" y="637"/>
      <point x="331" y="655"/>
      <point x="332" y="667" type="curve" smooth="yes"/>
      <point x="333" y="684"/>
      <point x="308" y="730"/>
    </contour>
  </outline>
</glyph>
<glyph name="numbersign" format="1">
  <advance width="735"/>
  <unicode hex="0023"/>
  <outline>
    <contour>
      <point x="568" y="659" type="curve" smooth="yes"/>
      <point x="549" y="659"/>
      <point x="530" y="670"/>
      <point x="504" y="592" type="curve" smooth="yes"/>
      <point x="495" y="566"/>
      <point x="487" y="540"/>
      <point x="472" y="515" type="curve"/>
      <point x="454" y="515"/>
      <point x="425" y="513"/>
      <point x="398" y="513" type="curve"/>
      <point x="410" y="540"/>
      <point x="418" y="556"/>
      <point x="421" y="560" type="curve" smooth="yes"/>
      <point x="434" y="574"/>
      <point x="437" y="602"/>
      <point x="437" y="623" type="curve" smooth="yes"/>
      <point x="437" y="640"/>
      <point x="423" y="672"/>
      <point x="396" y="672" type="curve" smooth="yes"/>
      <point x="351" y="672"/>
      <point x="318" y="640"/>
      <point x="295" y="581" type="curve" smooth="yes"/>
      <point x="287" y="560"/>
      <point x="275" y="537"/>
      <point x="270" y="513" type="curve"/>
      <point x="239" y="513"/>
      <point x="209" y="517"/>
      <point x="170" y="517" type="curve" smooth="yes"/>
      <point x="137" y="517"/>
      <point x="110" y="499"/>
      <point x="102" y="465" type="curve" smooth="yes"/>
      <point x="90" y="435"/>
      <point x="105" y="395"/>
      <point x="145" y="395" type="curve" smooth="yes"/>
      <point x="172" y="395"/>
      <point x="200" y="399"/>
      <point x="229" y="401" type="curve"/>
      <point x="223" y="386"/>
      <point x="213" y="358"/>
      <point x="191" y="305" type="curve" smooth="yes"/>
      <point x="189" y="301"/>
      <point x="187" y="297"/>
      <point x="185" y="292" type="curve"/>
      <point x="160" y="292"/>
      <point x="134" y="295"/>
      <point x="105" y="295" type="curve" smooth="yes"/>
      <point x="45" y="295"/>
      <point x="32" y="263"/>
      <point x="32" y="240" type="curve" smooth="yes"/>
      <point x="32" y="201"/>
      <point x="66" y="177"/>
      <point x="98" y="177" type="curve" smooth="yes"/>
      <point x="102" y="177"/>
      <point x="114" y="177"/>
      <point x="135" y="178" type="curve" smooth="yes"/>
      <point x="117" y="141"/>
      <point x="87" y="99"/>
      <point x="87" y="55" type="curve" smooth="yes"/>
      <point x="87" y="11"/>
      <point x="111" y="-16"/>
      <point x="157" y="-16" type="curve" smooth="yes"/>
      <point x="182" y="-16"/>
      <point x="210" y="0"/>
      <point x="210" y="28" type="curve" smooth="yes"/>
      <point x="210" y="40"/>
      <point x="213" y="51"/>
      <point x="220" y="74" type="curve" smooth="yes"/>
      <point x="233" y="109"/>
      <point x="248" y="144"/>
      <point x="262" y="181" type="curve"/>
      <point x="282" y="182"/>
      <point x="312" y="182"/>
      <point x="329" y="182" type="curve" smooth="yes"/>
      <point x="344" y="182" type="line"/>
      <point x="321" y="123"/>
      <point x="315" y="109"/>
      <point x="295" y="71" type="curve" smooth="yes"/>
      <point x="270" y="26"/>
      <point x="305" y="-6"/>
      <point x="351" y="-6" type="curve" smooth="yes"/>
      <point x="415" y="-6"/>
      <point x="406" y="31"/>
      <point x="425" y="81" type="curve" smooth="yes"/>
      <point x="431" y="103"/>
      <point x="431" y="103"/>
      <point x="461" y="177" type="curve"/>
      <point x="516" y="175"/>
      <point x="549" y="173"/>
      <point x="557" y="173" type="curve" smooth="yes"/>
      <point x="591" y="173"/>
      <point x="630" y="201"/>
      <point x="630" y="240" type="curve" smooth="yes"/>
      <point x="630" y="266"/>
      <point x="616" y="291"/>
      <point x="561" y="291" type="curve" smooth="yes"/>
      <point x="535" y="291"/>
      <point x="521" y="291"/>
      <point x="506" y="290" type="curve"/>
      <point x="522" y="331"/>
      <point x="511" y="302"/>
      <point x="513" y="308" type="curve" smooth="yes"/>
      <point x="525" y="340"/>
      <point x="541" y="377"/>
      <point x="553" y="406" type="curve"/>
      <point x="624" y="406" type="line" smooth="yes"/>
      <point x="652" y="406"/>
      <point x="693" y="421"/>
      <point x="700" y="465" type="curve" smooth="yes"/>
      <point x="708" y="506"/>
      <point x="675" y="526"/>
      <point x="632" y="526" type="curve"/>
      <point x="618" y="526"/>
      <point x="612" y="525"/>
      <point x="603" y="525" type="curve"/>
      <point x="612" y="545"/>
      <point x="622" y="569"/>
      <point x="624" y="572" type="curve"/>
      <point x="649" y="595"/>
      <point x="612" y="659"/>
    </contour>
    <contour>
      <point x="433" y="406" type="curve"/>
      <point x="421" y="368"/>
      <point x="406" y="337"/>
      <point x="393" y="302" type="curve" smooth="yes"/>
      <point x="392" y="301"/>
      <point x="387" y="290"/>
      <point x="386" y="288" type="curve"/>
      <point x="258" y="293"/>
      <point x="129" y="299"/>
      <point x="1" y="304" type="curve" smooth="yes"/>
      <point x="304" y="288" type="line"/>
      <point x="306" y="292"/>
      <point x="307" y="295"/>
      <point x="308" y="299" type="curve" smooth="yes"/>
      <point x="329" y="350"/>
      <point x="344" y="384"/>
      <point x="353" y="405" type="curve"/>
      <point x="367" y="405"/>
      <point x="393" y="406"/>
    </contour>
  </outline>
</glyph>
<glyph name="dollar" format="1">
  <advance width="528"/>
  <unicode hex="0024"/>
  <outline>
    <contour>
      <point x="288" y="764" type="curve" smooth="yes"/>
      <point x="256" y="764"/>
      <point x="208" y="743"/>
      <point x="208" y="706" type="curve" smooth="yes"/>
      <point x="208" y="677"/>
      <point x="210" y="681"/>
      <point x="212" y="628" type="curve"/>
      <point x="125" y="596"/>
      <point x="57" y="532"/>
      <point x="57" y="473" type="curve" smooth="yes"/>
      <point x="57" y="366"/>
      <point x="155" y="343"/>
      <point x="212" y="332" type="curve"/>
      <point x="211" y="275"/>
      <point x="210" y="240"/>
      <point x="210" y="215" type="curve"/>
      <point x="179" y="218"/>
      <point x="161" y="234"/>
      <point x="151" y="243" type="curve" smooth="yes"/>
      <point x="128" y="266"/>
      <point x="126" y="292"/>
      <point x="85" y="292" type="curve" smooth="yes"/>
      <point x="45" y="292"/>
      <point x="27" y="260"/>
      <point x="27" y="228" type="curve" smooth="yes"/>
      <point x="27" y="179"/>
      <point x="102" y="126"/>
      <point x="206" y="119" type="curve"/>
      <point x="206" y="111"/>
      <point x="206" y="96"/>
      <point x="206" y="90" type="curve" smooth="yes"/>
      <point x="206" y="41"/>
      <point x="194" y="38"/>
      <point x="194" y="29" type="curve" smooth="yes"/>
      <point x="194" y="8"/>
      <point x="222" y="-13"/>
      <point x="250" y="-13" type="curve" smooth="yes"/>
      <point x="288" y="-13"/>
      <point x="314" y="18"/>
      <point x="314" y="58" type="curve" smooth="yes"/>
      <point x="314" y="126" type="line"/>
      <point x="432" y="148"/>
      <point x="493" y="217"/>
      <point x="493" y="274" type="curve" smooth="yes"/>
      <point x="493" y="385"/>
      <point x="385" y="408"/>
      <point x="313" y="423" type="curve"/>
      <point x="313" y="443" type="line" smooth="yes"/>
      <point x="313" y="454"/>
      <point x="314" y="510"/>
      <point x="314" y="531" type="curve"/>
      <point x="352" y="528"/>
      <point x="337" y="485"/>
      <point x="382" y="485" type="curve" smooth="yes"/>
      <point x="420" y="485"/>
      <point x="434" y="516"/>
      <point x="434" y="550" type="curve" smooth="yes"/>
      <point x="434" y="585"/>
      <point x="395" y="647"/>
      <point x="330" y="647" type="curve" smooth="yes"/>
      <point x="328" y="647"/>
      <point x="323" y="647"/>
      <point x="316" y="646" type="curve"/>
      <point x="316" y="673" type="line" smooth="yes"/>
      <point x="316" y="695"/>
      <point x="322" y="712"/>
      <point x="322" y="732" type="curve" smooth="yes"/>
      <point x="322" y="749"/>
      <point x="300" y="764"/>
    </contour>
    <contour>
      <point x="362" y="276" type="curve" smooth="yes"/>
      <point x="362" y="243"/>
      <point x="341" y="232"/>
      <point x="313" y="226" type="curve"/>
      <point x="313" y="313" type="line"/>
      <point x="344" y="306"/>
      <point x="362" y="294"/>
    </contour>
    <contour>
      <point x="181" y="477" type="curve" smooth="yes"/>
      <point x="181" y="494"/>
      <point x="196" y="505"/>
      <point x="215" y="517" type="curve"/>
      <point x="215" y="493" type="line" smooth="yes"/>
      <point x="215" y="464"/>
      <point x="214" y="455"/>
      <point x="214" y="446" type="curve" smooth="yes"/>
      <point x="186" y="457"/>
      <point x="181" y="467"/>
    </contour>
  </outline>
</glyph>
<glyph name="percent" format="1">
  <advance width="846"/>
  <unicode hex="0025"/>
  <outline>
    <contour>
      <point x="542" y="727" type="curve" smooth="yes"/>
      <point x="499" y="727"/>
      <point x="464" y="694"/>
      <point x="443" y="634" type="curve" smooth="yes"/>
      <point x="383" y="464"/>
      <point x="375" y="446"/>
      <point x="325" y="324" type="curve" smooth="yes"/>
      <point x="270" y="190"/>
      <point x="214" y="112"/>
      <point x="214" y="61" type="curve" smooth="yes"/>
      <point x="214" y="11"/>
      <point x="245" y="-11"/>
      <point x="284" y="-11" type="curve" smooth="yes"/>
      <point x="307" y="-11"/>
      <point x="340" y="4"/>
      <point x="340" y="32" type="curve" smooth="yes"/>
      <point x="340" y="50"/>
      <point x="334" y="64"/>
      <point x="339" y="80" type="curve" smooth="yes"/>
      <point x="361" y="156"/>
      <point x="396" y="227"/>
      <point x="424" y="299" type="curve" smooth="yes"/>
      <point x="499" y="485"/>
      <point x="553" y="598"/>
      <point x="566" y="613" type="curve" smooth="yes"/>
      <point x="579" y="627"/>
      <point x="584" y="663"/>
      <point x="584" y="686" type="curve" smooth="yes"/>
      <point x="584" y="696"/>
      <point x="561" y="727"/>
    </contour>
    <contour>
      <point x="545" y="359" type="curve" smooth="yes"/>
      <point x="514" y="357"/>
      <point x="473" y="341"/>
      <point x="473" y="308" type="curve"/>
      <point x="459" y="302"/>
      <point x="450" y="291"/>
      <point x="450" y="270" type="curve" smooth="yes"/>
      <point x="450" y="251"/>
      <point x="456" y="237"/>
      <point x="465" y="226" type="curve"/>
      <point x="461" y="206"/>
      <point x="457" y="185"/>
      <point x="457" y="165" type="curve" smooth="yes"/>
      <point x="457" y="64"/>
      <point x="506" y="1"/>
      <point x="583" y="1" type="curve" smooth="yes"/>
      <point x="706" y="1"/>
      <point x="794" y="122"/>
      <point x="794" y="185" type="curve" smooth="yes"/>
      <point x="794" y="280"/>
      <point x="707" y="331"/>
      <point x="643" y="331" type="curve" smooth="yes"/>
      <point x="627" y="331"/>
      <point x="615" y="329"/>
      <point x="604" y="328" type="curve"/>
      <point x="593" y="348"/>
      <point x="570" y="359"/>
    </contour>
    <contour>
      <point x="681" y="188" type="curve" smooth="yes"/>
      <point x="681" y="157"/>
      <point x="630" y="113"/>
      <point x="590" y="113" type="curve" smooth="yes"/>
      <point x="577" y="113"/>
      <point x="569" y="134"/>
      <point x="569" y="160" type="curve" smooth="yes"/>
      <point x="569" y="178"/>
      <point x="572" y="200"/>
      <point x="579" y="220" type="curve"/>
      <point x="605" y="221"/>
      <point x="681" y="222"/>
    </contour>
    <contour>
      <point x="37" y="519" type="curve" smooth="yes"/>
      <point x="37" y="411"/>
      <point x="105" y="345"/>
      <point x="167" y="345" type="curve" smooth="yes"/>
      <point x="281" y="345"/>
      <point x="355" y="445"/>
      <point x="355" y="510" type="curve" smooth="yes"/>
      <point x="355" y="589"/>
      <point x="294" y="707"/>
      <point x="161" y="707" type="curve" smooth="yes"/>
      <point x="123" y="707"/>
      <point x="101" y="671"/>
      <point x="72" y="666" type="curve" smooth="yes"/>
      <point x="58" y="664"/>
      <point x="25" y="641"/>
      <point x="25" y="602" type="curve" smooth="yes"/>
      <point x="25" y="587"/>
      <point x="32" y="569"/>
      <point x="43" y="568" type="curve"/>
      <point x="39" y="552"/>
      <point x="37" y="536"/>
    </contour>
    <contour>
      <point x="189" y="593" type="curve" smooth="yes"/>
      <point x="214" y="593"/>
      <point x="243" y="575"/>
      <point x="243" y="535" type="curve" smooth="yes"/>
      <point x="243" y="482"/>
      <point x="197" y="456"/>
      <point x="183" y="456" type="curve" smooth="yes"/>
      <point x="167" y="456"/>
      <point x="143" y="474"/>
      <point x="143" y="513" type="curve" smooth="yes"/>
      <point x="143" y="560"/>
      <point x="184" y="565"/>
      <point x="184" y="582" type="curve" smooth="yes"/>
      <point x="184" y="592" type="line"/>
      <point x="186" y="593"/>
      <point x="187" y="593"/>
    </contour>
  </outline>
</glyph>
<glyph name="ampersand" format="1">
  <advance width="607"/>
  <unicode hex="0026"/>
  <outline>
    <contour>
      <point x="502" y="-47" type="curve" smooth="yes"/>
      <point x="536" y="-46"/>
      <point x="569" y="-18"/>
      <point x="565" y="17" type="curve" smooth="yes"/>
      <point x="563" y="46"/>
      <point x="539" y="69"/>
      <point x="517" y="86" type="curve" smooth="yes"/>
      <point x="509" y="91"/>
      <point x="501" y="100"/>
      <point x="497" y="104" type="curve"/>
      <point x="537" y="159"/>
      <point x="560" y="225"/>
      <point x="560" y="293" type="curve" smooth="yes"/>
      <point x="560" y="308"/>
      <point x="547" y="349"/>
      <point x="518" y="349" type="curve" smooth="yes"/>
      <point x="504" y="349"/>
      <point x="453" y="335"/>
      <point x="450" y="296" type="curve" smooth="yes"/>
      <point x="447" y="262"/>
      <point x="441" y="222"/>
      <point x="422" y="194" type="curve"/>
      <point x="380" y="244"/>
      <point x="334" y="308"/>
      <point x="302" y="358" type="curve"/>
      <point x="369" y="401"/>
      <point x="433" y="446"/>
      <point x="433" y="525" type="curve" smooth="yes"/>
      <point x="433" y="605"/>
      <point x="352" y="703"/>
      <point x="258" y="703" type="curve" smooth="yes"/>
      <point x="176" y="703"/>
      <point x="103" y="594"/>
      <point x="103" y="541" type="curve" smooth="yes"/>
      <point x="103" y="502"/>
      <point x="117" y="455"/>
      <point x="149" y="396" type="curve"/>
      <point x="86" y="358"/>
      <point x="25" y="307"/>
      <point x="25" y="210" type="curve" smooth="yes"/>
      <point x="25" y="106"/>
      <point x="97" y="-2"/>
      <point x="297" y="-2" type="curve" smooth="yes"/>
      <point x="336" y="-2"/>
      <point x="372" y="8"/>
      <point x="407" y="25" type="curve" smooth="yes"/>
      <point x="410" y="21"/>
      <point x="419" y="5"/>
      <point x="432" y="-12" type="curve" smooth="yes"/>
      <point x="452" y="-38"/>
      <point x="488" y="-47"/>
    </contour>
    <contour>
      <point x="275" y="116" type="curve" smooth="yes"/>
      <point x="185" y="116"/>
      <point x="143" y="173"/>
      <point x="143" y="205" type="curve" smooth="yes"/>
      <point x="143" y="238"/>
      <point x="165" y="270"/>
      <point x="206" y="298" type="curve"/>
      <point x="238" y="249"/>
      <point x="284" y="185"/>
      <point x="331" y="122" type="curve"/>
      <point x="318" y="118"/>
      <point x="288" y="116"/>
    </contour>
    <contour>
      <point x="220" y="540" type="curve" smooth="yes"/>
      <point x="220" y="565"/>
      <point x="246" y="574"/>
      <point x="261" y="574" type="curve" smooth="yes"/>
      <point x="292" y="574"/>
      <point x="312" y="545"/>
      <point x="312" y="530" type="curve" smooth="yes"/>
      <point x="312" y="504"/>
      <point x="289" y="488"/>
      <point x="247" y="456" type="curve"/>
      <point x="230" y="494"/>
      <point x="220" y="517"/>
    </contour>
  </outline>
</glyph>
<glyph name="quotesingle" format="1">
  <advance width="179"/>
  <unicode hex="0027"/>
  <outline>
    <contour>
      <point x="90" y="721" type="curve" smooth="yes"/>
      <point x="56" y="721"/>
      <point x="32" y="697"/>
      <point x="32" y="668" type="curve" smooth="yes"/>
      <point x="32" y="618"/>
      <point x="27" y="579"/>
      <point x="27" y="540" type="curve" smooth="yes"/>
      <point x="27" y="487"/>
      <point x="55" y="464"/>
      <point x="88" y="464" type="curve" smooth="yes"/>
      <point x="123" y="464"/>
      <point x="143" y="499"/>
      <point x="143" y="532" type="curve" smooth="yes"/>
      <point x="143" y="565"/>
      <point x="147" y="592"/>
      <point x="147" y="619" type="curve" smooth="yes"/>
      <point x="147" y="631"/>
      <point x="155" y="649"/>
      <point x="155" y="661" type="curve" smooth="yes"/>
      <point x="155" y="681"/>
      <point x="128" y="721"/>
    </contour>
  </outline>
</glyph>
<glyph name="parenleft" format="1">
  <advance width="440"/>
  <unicode hex="0028"/>
  <outline>
    <contour>
      <point x="299" y="738" type="curve" smooth="yes"/>
      <point x="279" y="738"/>
      <point x="249" y="725"/>
      <point x="227" y="689" type="curve" smooth="yes"/>
      <point x="126" y="548"/>
      <point x="39" y="379"/>
      <point x="39" y="203" type="curve" smooth="yes"/>
      <point x="39" y="-8"/>
      <point x="124" y="-143"/>
      <point x="258" y="-143" type="curve" smooth="yes"/>
      <point x="328" y="-143"/>
      <point x="373" y="-115"/>
      <point x="373" y="-87" type="curve" smooth="yes"/>
      <point x="373" y="-31"/>
      <point x="311" y="-41"/>
      <point x="280" y="-41" type="curve" smooth="yes"/>
      <point x="200" y="-41"/>
      <point x="152" y="48"/>
      <point x="152" y="194" type="curve" smooth="yes"/>
      <point x="152" y="351"/>
      <point x="265" y="581"/>
      <point x="287" y="581" type="curve" smooth="yes"/>
      <point x="299" y="581"/>
      <point x="310" y="567"/>
      <point x="323" y="567" type="curve" smooth="yes"/>
      <point x="348" y="567"/>
      <point x="378" y="607"/>
      <point x="378" y="629" type="curve" smooth="yes"/>
      <point x="378" y="645"/>
      <point x="364" y="738"/>
    </contour>
  </outline>
</glyph>
<glyph name="parenright" format="1">
  <advance width="421"/>
  <unicode hex="0029"/>
  <outline>
    <contour>
      <point x="103" y="734" type="curve" smooth="yes"/>
      <point x="66" y="734"/>
      <point x="42" y="702"/>
      <point x="42" y="672" type="curve" smooth="yes"/>
      <point x="42" y="642"/>
      <point x="70" y="617"/>
      <point x="102" y="601" type="curve" smooth="yes"/>
      <point x="141" y="581"/>
      <point x="264" y="376"/>
      <point x="264" y="233" type="curve" smooth="yes"/>
      <point x="264" y="108"/>
      <point x="208" y="20"/>
      <point x="100" y="-41" type="curve" smooth="yes"/>
      <point x="47" y="-71"/>
      <point x="78" y="-130"/>
      <point x="139" y="-130" type="curve" smooth="yes"/>
      <point x="188" y="-130"/>
      <point x="380" y="-7"/>
      <point x="380" y="247" type="curve" smooth="yes"/>
      <point x="380" y="383"/>
      <point x="286" y="574"/>
      <point x="200" y="666" type="curve"/>
      <point x="187" y="700"/>
      <point x="132" y="734"/>
    </contour>
  </outline>
</glyph>
<glyph name="asterisk" format="1">
  <advance width="423"/>
  <unicode hex="002A"/>
  <outline>
    <contour>
      <point x="386" y="484" type="curve" smooth="yes"/>
      <point x="386" y="532"/>
      <point x="314" y="543"/>
      <point x="288" y="557" type="curve" smooth="yes"/>
      <point x="284" y="559"/>
      <point x="281" y="559"/>
      <point x="278" y="561" type="curve"/>
      <point x="287" y="569"/>
      <point x="316" y="582"/>
      <point x="327" y="588" type="curve" smooth="yes"/>
      <point x="351" y="601"/>
      <point x="378" y="616"/>
      <point x="378" y="643" type="curve" smooth="yes"/>
      <point x="378" y="677"/>
      <point x="350" y="689"/>
      <point x="328" y="689" type="curve" smooth="yes"/>
      <point x="317" y="689"/>
      <point x="304" y="686"/>
      <point x="297" y="681" type="curve" smooth="yes"/>
      <point x="287" y="674"/>
      <point x="267" y="650"/>
      <point x="251" y="640" type="curve"/>
      <point x="252" y="658"/>
      <point x="263" y="677"/>
      <point x="263" y="692" type="curve" smooth="yes"/>
      <point x="263" y="712"/>
      <point x="236" y="743"/>
      <point x="208" y="743" type="curve" smooth="yes"/>
      <point x="163" y="743"/>
      <point x="157" y="701"/>
      <point x="157" y="674" type="curve" smooth="yes"/>
      <point x="157" y="667"/>
      <point x="160" y="650"/>
      <point x="161" y="638" type="curve"/>
      <point x="132" y="657"/>
      <point x="110" y="676"/>
      <point x="92" y="676" type="curve" smooth="yes"/>
      <point x="56" y="676"/>
      <point x="43" y="655"/>
      <point x="43" y="635" type="curve" smooth="yes"/>
      <point x="43" y="613"/>
      <point x="55" y="601"/>
      <point x="69" y="592" type="curve" smooth="yes"/>
      <point x="85" y="578"/>
      <point x="111" y="568"/>
      <point x="128" y="558" type="curve"/>
      <point x="125" y="556"/>
      <point x="122" y="555"/>
      <point x="118" y="553" type="curve" smooth="yes"/>
      <point x="86" y="538"/>
      <point x="45" y="526"/>
      <point x="45" y="489" type="curve" smooth="yes"/>
      <point x="45" y="461"/>
      <point x="65" y="437"/>
      <point x="92" y="437" type="curve" smooth="yes"/>
      <point x="120" y="437"/>
      <point x="148" y="462"/>
      <point x="166" y="480" type="curve"/>
      <point x="166" y="455"/>
      <point x="165" y="444"/>
      <point x="167" y="425" type="curve" smooth="yes"/>
      <point x="171" y="365"/>
      <point x="207" y="363"/>
      <point x="217" y="363" type="curve" smooth="yes"/>
      <point x="249" y="363"/>
      <point x="265" y="397"/>
      <point x="265" y="419" type="curve" smooth="yes"/>
      <point x="265" y="430"/>
      <point x="255" y="456"/>
      <point x="253" y="485" type="curve"/>
      <point x="265" y="471" type="line"/>
      <point x="294" y="451"/>
      <point x="318" y="435"/>
      <point x="339" y="435" type="curve" smooth="yes"/>
      <point x="372" y="435"/>
      <point x="386" y="451"/>
    </contour>
  </outline>
</glyph>
<glyph name="plus" format="1">
  <advance width="695"/>
  <unicode hex="002B"/>
  <outline>
    <contour>
      <point x="84" y="336" type="curve" smooth="yes"/>
      <point x="84" y="289"/>
      <point x="110" y="264"/>
      <point x="152" y="264" type="curve" smooth="yes"/>
      <point x="174" y="264"/>
      <point x="232" y="268"/>
      <point x="282" y="272" type="curve"/>
      <point x="275" y="217"/>
      <point x="269" y="163"/>
      <point x="269" y="132" type="curve" smooth="yes"/>
      <point x="269" y="85"/>
      <point x="314" y="46"/>
      <point x="344" y="46" type="curve" smooth="yes"/>
      <point x="373" y="46"/>
      <point x="403" y="88"/>
      <point x="403" y="108" type="curve" smooth="yes"/>
      <point x="403" y="127"/>
      <point x="402" y="134"/>
      <point x="402" y="140" type="curve" smooth="yes"/>
      <point x="402" y="165"/>
      <point x="408" y="225"/>
      <point x="415" y="282" type="curve"/>
      <point x="452" y="282"/>
      <point x="479" y="279"/>
      <point x="506" y="279" type="curve" smooth="yes"/>
      <point x="524" y="279"/>
      <point x="539" y="273"/>
      <point x="555" y="273" type="curve" smooth="yes"/>
      <point x="580" y="273"/>
      <point x="612" y="302"/>
      <point x="612" y="339" type="curve" smooth="yes"/>
      <point x="612" y="353"/>
      <point x="600" y="407"/>
      <point x="565" y="407" type="curve" smooth="yes"/>
      <point x="547" y="407"/>
      <point x="532" y="402"/>
      <point x="517" y="402" type="curve" smooth="yes"/>
      <point x="501" y="402"/>
      <point x="468" y="400"/>
      <point x="429" y="398" type="curve"/>
      <point x="433" y="439"/>
      <point x="442" y="477"/>
      <point x="442" y="515" type="curve" smooth="yes"/>
      <point x="442" y="558"/>
      <point x="416" y="604"/>
      <point x="375" y="604" type="curve" smooth="yes"/>
      <point x="354" y="604"/>
      <point x="302" y="573"/>
      <point x="302" y="531" type="curve" smooth="yes"/>
      <point x="302" y="473"/>
      <point x="303" y="457"/>
      <point x="303" y="442" type="curve" smooth="yes"/>
      <point x="303" y="429"/>
      <point x="301" y="410"/>
      <point x="299" y="391" type="curve"/>
      <point x="292" y="391"/>
      <point x="273" y="390"/>
      <point x="259" y="390" type="curve" smooth="yes"/>
      <point x="235" y="390"/>
      <point x="193" y="396"/>
      <point x="151" y="396" type="curve" smooth="yes"/>
      <point x="128" y="396"/>
      <point x="84" y="379"/>
    </contour>
  </outline>
</glyph>
<glyph name="comma" format="1">
  <advance width="188"/>
  <unicode hex="002C"/>
  <outline>
    <contour>
      <point x="30" y="11" type="curve" smooth="yes"/>
      <point x="13" y="-65"/>
      <point x="-7" y="-98"/>
      <point x="-7" y="-108" type="curve" smooth="yes"/>
      <point x="-7" y="-137"/>
      <point x="10" y="-152"/>
      <point x="42" y="-152" type="curve" smooth="yes"/>
      <point x="62" y="-152"/>
      <point x="89" y="-146"/>
      <point x="100" y="-109" type="curve" smooth="yes"/>
      <point x="113" y="-64"/>
      <point x="121" y="-42"/>
      <point x="135" y="-18" type="curve" smooth="yes"/>
      <point x="152" y="12"/>
      <point x="164" y="32"/>
      <point x="164" y="62" type="curve" smooth="yes"/>
      <point x="164" y="105"/>
      <point x="139" y="117"/>
      <point x="105" y="117" type="curve" smooth="yes"/>
      <point x="40" y="117"/>
      <point x="38" y="45"/>
    </contour>
  </outline>
</glyph>
<glyph name="hyphen" format="1">
  <advance width="460"/>
  <unicode hex="002D"/>
  <outline>
    <contour>
      <point x="424" y="293" type="curve" smooth="yes"/>
      <point x="424" y="335"/>
      <point x="395" y="357"/>
      <point x="347" y="357" type="curve" smooth="yes"/>
      <point x="323" y="357"/>
      <point x="302" y="354"/>
      <point x="281" y="354" type="curve" smooth="yes"/>
      <point x="280" y="354"/>
      <point x="169" y="353"/>
      <point x="112" y="348" type="curve"/>
      <point x="60" y="345"/>
      <point x="40" y="315"/>
      <point x="40" y="284" type="curve" smooth="yes"/>
      <point x="40" y="246"/>
      <point x="75" y="221"/>
      <point x="107" y="221" type="curve" smooth="yes"/>
      <point x="143" y="221"/>
      <point x="164" y="233"/>
      <point x="298" y="233" type="curve" smooth="yes"/>
      <point x="322" y="233"/>
      <point x="343" y="223"/>
      <point x="364" y="223" type="curve" smooth="yes"/>
      <point x="390" y="223"/>
      <point x="424" y="255"/>
    </contour>
  </outline>
</glyph>
<glyph name="period" format="1">
  <advance width="201"/>
  <unicode hex="002E"/>
  <outline>
    <contour>
      <point x="101" y="127" type="curve" smooth="yes"/>
      <point x="61" y="127"/>
      <point x="39" y="111"/>
      <point x="34" y="80" type="curve" smooth="yes"/>
      <point x="31" y="63"/>
      <point x="25" y="49"/>
      <point x="25" y="32" type="curve" smooth="yes"/>
      <point x="25" y="8"/>
      <point x="40" y="-18"/>
      <point x="79" y="-18" type="curve" smooth="yes"/>
      <point x="80" y="-18"/>
      <point x="125" y="-18"/>
      <point x="142" y="0" type="curve" smooth="yes"/>
      <point x="159" y="19"/>
      <point x="175" y="36"/>
      <point x="175" y="56" type="curve" smooth="yes"/>
      <point x="175" y="100"/>
      <point x="137" y="127"/>
    </contour>
  </outline>
</glyph>
<glyph name="slash" format="1">
  <advance width="451"/>
  <unicode hex="002F"/>
  <outline>
    <contour>
      <point x="350" y="741" type="curve" smooth="yes"/>
      <point x="314" y="741"/>
      <point x="282" y="717"/>
      <point x="282" y="690" type="curve" smooth="yes"/>
      <point x="282" y="670"/>
      <point x="280" y="645"/>
      <point x="273" y="631" type="curve" smooth="yes"/>
      <point x="272" y="629"/>
      <point x="163" y="309"/>
      <point x="145" y="264" type="curve" smooth="yes"/>
      <point x="63" y="62"/>
      <point x="42" y="30"/>
      <point x="12" y="-8" type="curve" smooth="yes"/>
      <point x="8" y="-14"/>
      <point x="-6" y="-33"/>
      <point x="-6" y="-69" type="curve" smooth="yes"/>
      <point x="-6" y="-92"/>
      <point x="23" y="-130"/>
      <point x="63" y="-130" type="curve" smooth="yes"/>
      <point x="131" y="-130"/>
      <point x="171" y="27"/>
      <point x="192" y="69" type="curve" smooth="yes"/>
      <point x="233" y="151"/>
      <point x="382" y="575"/>
      <point x="386" y="592" type="curve" smooth="yes"/>
      <point x="394" y="617"/>
      <point x="417" y="645"/>
      <point x="417" y="672" type="curve" smooth="yes"/>
      <point x="417" y="708"/>
      <point x="385" y="741"/>
    </contour>
  </outline>
</glyph>
<glyph name="zero" format="1">
  <advance width="564"/>
  <unicode hex="0030"/>
  <outline>
    <contour>
      <point x="229" y="716" type="curve" smooth="yes"/>
      <point x="186" y="716"/>
      <point x="105" y="685"/>
      <point x="105" y="637" type="curve" smooth="yes"/>
      <point x="105" y="609"/>
      <point x="119" y="572"/>
      <point x="145" y="572" type="curve" smooth="yes"/>
      <point x="164" y="572"/>
      <point x="174" y="575"/>
      <point x="188" y="578" type="curve" smooth="yes"/>
      <point x="202" y="581"/>
      <point x="216" y="587"/>
      <point x="233" y="587" type="curve" smooth="yes"/>
      <point x="349" y="587"/>
      <point x="407" y="405"/>
      <point x="407" y="319" type="curve" smooth="yes"/>
      <point x="407" y="219"/>
      <point x="344" y="107"/>
      <point x="253" y="107" type="curve" smooth="yes"/>
      <point x="198" y="107"/>
      <point x="154" y="170"/>
      <point x="154" y="251" type="curve" smooth="yes"/>
      <point x="154" y="343"/>
      <point x="176" y="404"/>
      <point x="200" y="439" type="curve" smooth="yes"/>
      <point x="212" y="458"/>
      <point x="222" y="473"/>
      <point x="222" y="491" type="curve" smooth="yes"/>
      <point x="222" y="513"/>
      <point x="203" y="566"/>
      <point x="145" y="566" type="curve"/>
      <point x="70" y="566"/>
      <point x="29" y="434"/>
      <point x="29" y="268" type="curve" smooth="yes"/>
      <point x="29" y="126"/>
      <point x="109" y="-17"/>
      <point x="263" y="-17" type="curve" smooth="yes"/>
      <point x="468" y="-17"/>
      <point x="535" y="223"/>
      <point x="535" y="306" type="curve" smooth="yes"/>
      <point x="535" y="537"/>
      <point x="370" y="716"/>
    </contour>
  </outline>
</glyph>
<glyph name="one" format="1">
  <advance width="330"/>
  <unicode hex="0031"/>
  <outline>
    <contour>
      <point x="156" y="731" type="curve" smooth="yes"/>
      <point x="117" y="731"/>
      <point x="89" y="690"/>
      <point x="89" y="663" type="curve" smooth="yes"/>
      <point x="89" y="654"/>
      <point x="91" y="643"/>
      <point x="94" y="630" type="curve" smooth="yes"/>
      <point x="101" y="603"/>
      <point x="106" y="562"/>
      <point x="106" y="511" type="curve" smooth="yes"/>
      <point x="106" y="467"/>
      <point x="103" y="391"/>
      <point x="100" y="317" type="curve" smooth="yes"/>
      <point x="98" y="272"/>
      <point x="97" y="233"/>
      <point x="97" y="213" type="curve" smooth="yes"/>
      <point x="97" y="188"/>
      <point x="103" y="164"/>
      <point x="103" y="137" type="curve" smooth="yes"/>
      <point x="103" y="119"/>
      <point x="92" y="103"/>
      <point x="92" y="82" type="curve" smooth="yes"/>
      <point x="92" y="53"/>
      <point x="136" y="-5"/>
      <point x="171" y="-5" type="curve" smooth="yes"/>
      <point x="197" y="-5"/>
      <point x="252" y="24"/>
      <point x="252" y="55" type="curve" smooth="yes"/>
      <point x="252" y="100"/>
      <point x="227" y="141"/>
      <point x="227" y="188" type="curve" smooth="yes"/>
      <point x="227" y="206"/>
      <point x="232" y="335"/>
      <point x="238" y="448" type="curve" smooth="yes"/>
      <point x="243" y="539"/>
      <point x="246" y="630"/>
      <point x="246" y="643" type="curve" smooth="yes"/>
      <point x="246" y="677"/>
      <point x="191" y="731"/>
    </contour>
  </outline>
</glyph>
<glyph name="two" format="1">
  <advance width="540"/>
  <unicode hex="0032"/>
  <outline>
    <contour>
      <point x="273" y="731" type="curve" smooth="yes"/>
      <point x="181" y="731"/>
      <point x="82" y="708"/>
      <point x="82" y="641" type="curve" smooth="yes"/>
      <point x="82" y="609"/>
      <point x="100" y="547"/>
      <point x="142" y="547" type="curve" smooth="yes"/>
      <point x="190" y="547"/>
      <point x="191" y="587"/>
      <point x="218" y="598" type="curve" smooth="yes"/>
      <point x="227" y="602"/>
      <point x="252" y="607"/>
      <point x="279" y="607" type="curve" smooth="yes"/>
      <point x="307" y="607"/>
      <point x="350" y="589"/>
      <point x="350" y="512" type="curve" smooth="yes"/>
      <point x="350" y="410"/>
      <point x="208" y="278"/>
      <point x="119" y="200" type="curve" smooth="yes"/>
      <point x="95" y="179"/>
      <point x="67" y="147"/>
      <point x="41" y="134" type="curve" smooth="yes"/>
      <point x="30" y="127"/>
      <point x="5" y="125"/>
      <point x="5" y="92" type="curve" smooth="yes"/>
      <point x="5" y="51"/>
      <point x="35" y="-8"/>
      <point x="87" y="-8" type="curve" smooth="yes"/>
      <point x="180" y="-8"/>
      <point x="262" y="5"/>
      <point x="345" y="5" type="curve" smooth="yes"/>
      <point x="402" y="5"/>
      <point x="430" y="4"/>
      <point x="457" y="4" type="curve" smooth="yes"/>
      <point x="497" y="4"/>
      <point x="514" y="50"/>
      <point x="514" y="74" type="curve" smooth="yes"/>
      <point x="514" y="122"/>
      <point x="481" y="149"/>
      <point x="450" y="149" type="curve" smooth="yes"/>
      <point x="429" y="149"/>
      <point x="412" y="131"/>
      <point x="382" y="129" type="curve" smooth="yes"/>
      <point x="373" y="128"/>
      <point x="269" y="123"/>
      <point x="195" y="120" type="curve"/>
      <point x="215" y="140"/>
      <point x="240" y="161"/>
      <point x="267" y="185" type="curve" smooth="yes"/>
      <point x="364" y="268"/>
      <point x="485" y="372"/>
      <point x="485" y="518" type="curve" smooth="yes"/>
      <point x="485" y="648"/>
      <point x="402" y="731"/>
    </contour>
  </outline>
</glyph>
<glyph name="three" format="1">
  <advance width="572"/>
  <unicode hex="0033"/>
  <outline>
    <contour>
      <point x="260" y="722" type="curve" smooth="yes"/>
      <point x="175" y="722"/>
      <point x="62" y="713"/>
      <point x="62" y="634" type="curve" smooth="yes"/>
      <point x="62" y="584"/>
      <point x="101" y="545"/>
      <point x="134" y="545" type="curve" smooth="yes"/>
      <point x="168" y="545"/>
      <point x="174" y="580"/>
      <point x="199" y="595" type="curve" smooth="yes"/>
      <point x="206" y="599"/>
      <point x="238" y="602"/>
      <point x="259" y="602" type="curve" smooth="yes"/>
      <point x="313" y="602"/>
      <point x="341" y="589"/>
      <point x="341" y="562" type="curve" smooth="yes"/>
      <point x="341" y="466"/>
      <point x="219" y="419"/>
      <point x="164" y="412" type="curve" smooth="yes"/>
      <point x="124" y="407"/>
      <point x="109" y="373"/>
      <point x="109" y="351" type="curve" smooth="yes"/>
      <point x="109" y="337"/>
      <point x="142" y="272"/>
      <point x="180" y="272" type="curve" smooth="yes"/>
      <point x="190" y="272"/>
      <point x="199" y="275"/>
      <point x="212" y="281" type="curve" smooth="yes"/>
      <point x="227" y="289"/>
      <point x="251" y="301"/>
      <point x="299" y="301" type="curve" smooth="yes"/>
      <point x="340" y="301"/>
      <point x="416" y="247"/>
      <point x="416" y="199" type="curve" smooth="yes"/>
      <point x="416" y="148"/>
      <point x="346" y="104"/>
      <point x="263" y="104" type="curve" smooth="yes"/>
      <point x="218" y="104"/>
      <point x="167" y="111"/>
      <point x="155" y="116" type="curve"/>
      <point x="129" y="122"/>
      <point x="131" y="161"/>
      <point x="80" y="161" type="curve" smooth="yes"/>
      <point x="46" y="161"/>
      <point x="4" y="122"/>
      <point x="4" y="78" type="curve" smooth="yes"/>
      <point x="4" y="-3"/>
      <point x="126" y="-14"/>
      <point x="257" y="-14" type="curve" smooth="yes"/>
      <point x="364" y="-14"/>
      <point x="545" y="30"/>
      <point x="545" y="195" type="curve" smooth="yes"/>
      <point x="545" y="304"/>
      <point x="465" y="369"/>
      <point x="389" y="398" type="curve"/>
      <point x="433" y="437"/>
      <point x="473" y="496"/>
      <point x="473" y="558" type="curve" smooth="yes"/>
      <point x="473" y="639"/>
      <point x="407" y="722"/>
    </contour>
  </outline>
</glyph>
<glyph name="four" format="1">
  <advance width="660"/>
  <unicode hex="0034"/>
  <outline>
    <contour>
      <point x="490" y="580" type="curve" smooth="yes"/>
      <point x="447" y="580"/>
      <point x="415" y="535"/>
      <point x="415" y="513" type="curve" smooth="yes"/>
      <point x="415" y="478"/>
      <point x="419" y="452"/>
      <point x="419" y="421" type="curve" smooth="yes"/>
      <point x="419" y="405"/>
      <point x="417" y="385"/>
      <point x="414" y="350" type="curve"/>
      <point x="360" y="348"/>
      <point x="292" y="346"/>
      <point x="230" y="344" type="curve"/>
      <point x="278" y="407"/>
      <point x="352" y="514"/>
      <point x="378" y="535" type="curve" smooth="yes"/>
      <point x="409" y="559"/>
      <point x="480" y="590"/>
      <point x="480" y="649" type="curve" smooth="yes"/>
      <point x="480" y="682"/>
      <point x="460" y="721"/>
      <point x="405" y="721" type="curve" smooth="yes"/>
      <point x="363" y="721"/>
      <point x="319" y="665"/>
      <point x="308" y="646" type="curve" smooth="yes"/>
      <point x="300" y="634"/>
      <point x="257" y="580"/>
      <point x="214" y="527" type="curve" smooth="yes"/>
      <point x="180" y="485"/>
      <point x="93" y="360"/>
      <point x="56" y="341" type="curve" smooth="yes"/>
      <point x="55" y="340"/>
      <point x="22" y="323"/>
      <point x="22" y="299" type="curve" smooth="yes"/>
      <point x="22" y="284"/>
      <point x="43" y="202"/>
      <point x="97" y="202" type="curve" smooth="yes"/>
      <point x="109" y="202"/>
      <point x="142" y="205"/>
      <point x="228" y="213" type="curve" smooth="yes"/>
      <point x="318" y="223"/>
      <point x="366" y="228"/>
      <point x="387" y="228" type="curve"/>
      <point x="400" y="228" type="line"/>
      <point x="392" y="158"/>
      <point x="384" y="89"/>
      <point x="384" y="61" type="curve" smooth="yes"/>
      <point x="384" y="20"/>
      <point x="413" y="-15"/>
      <point x="447" y="-15" type="curve" smooth="yes"/>
      <point x="479" y="-15"/>
      <point x="518" y="15"/>
      <point x="520" y="55" type="curve" smooth="yes"/>
      <point x="523" y="96"/>
      <point x="525" y="130"/>
      <point x="529" y="168" type="curve" smooth="yes"/>
      <point x="532" y="192"/>
      <point x="533" y="213"/>
      <point x="536" y="235" type="curve"/>
      <point x="554" y="236"/>
      <point x="569" y="237"/>
      <point x="584" y="237" type="curve" smooth="yes"/>
      <point x="619" y="237"/>
      <point x="640" y="285"/>
      <point x="640" y="307" type="curve" smooth="yes"/>
      <point x="640" y="332"/>
      <point x="613" y="364"/>
      <point x="588" y="364" type="curve" smooth="yes"/>
      <point x="578" y="364"/>
      <point x="552" y="360"/>
      <point x="544" y="360" type="curve"/>
      <point x="544" y="370"/>
      <point x="545" y="378"/>
      <point x="545" y="387" type="curve" smooth="yes"/>
      <point x="545" y="435"/>
      <point x="563" y="472"/>
      <point x="563" y="512" type="curve" smooth="yes"/>
      <point x="563" y="544"/>
      <point x="525" y="580"/>
    </contour>
  </outline>
</glyph>
<glyph name="five" format="1">
  <advance width="605"/>
  <unicode hex="0035"/>
  <outline>
    <contour>
      <point x="209" y="635" type="curve" smooth="yes"/>
      <point x="167" y="635"/>
      <point x="156" y="537"/>
      <point x="136" y="501" type="curve" smooth="yes"/>
      <point x="129" y="485"/>
      <point x="114" y="464"/>
      <point x="96" y="440" type="curve" smooth="yes"/>
      <point x="69" y="405"/>
      <point x="50" y="379"/>
      <point x="50" y="358" type="curve" smooth="yes"/>
      <point x="50" y="332"/>
      <point x="96" y="275"/>
      <point x="126" y="275" type="curve" smooth="yes"/>
      <point x="137" y="275"/>
      <point x="148" y="279"/>
      <point x="165" y="285" type="curve" smooth="yes"/>
      <point x="195" y="296"/>
      <point x="245" y="314"/>
      <point x="318" y="314" type="curve" smooth="yes"/>
      <point x="378" y="314"/>
      <point x="427" y="285"/>
      <point x="427" y="250" type="curve" smooth="yes"/>
      <point x="427" y="140"/>
      <point x="289" y="110"/>
      <point x="216" y="110" type="curve" smooth="yes"/>
      <point x="159" y="110"/>
      <point x="135" y="121"/>
      <point x="131" y="125" type="curve" smooth="yes"/>
      <point x="111" y="145"/>
      <point x="106" y="173"/>
      <point x="73" y="173" type="curve" smooth="yes"/>
      <point x="33" y="173"/>
      <point x="6" y="137"/>
      <point x="6" y="88" type="curve" smooth="yes"/>
      <point x="6" y="59"/>
      <point x="45" y="-15"/>
      <point x="224" y="-15" type="curve" smooth="yes"/>
      <point x="397" y="-15"/>
      <point x="561" y="109"/>
      <point x="561" y="239" type="curve" smooth="yes"/>
      <point x="561" y="361"/>
      <point x="461" y="434"/>
      <point x="293" y="434" type="curve" smooth="yes"/>
      <point x="273" y="434"/>
      <point x="252" y="431"/>
      <point x="233" y="427" type="curve"/>
      <point x="257" y="466"/>
      <point x="291" y="499"/>
      <point x="291" y="548" type="curve" smooth="yes"/>
      <point x="291" y="602"/>
      <point x="244" y="635"/>
    </contour>
    <contour>
      <point x="291" y="617" type="curve" smooth="yes"/>
      <point x="290" y="580"/>
      <point x="317" y="551"/>
      <point x="341" y="551" type="curve" smooth="yes"/>
      <point x="365" y="551"/>
      <point x="382" y="568"/>
      <point x="391" y="573" type="curve" smooth="yes"/>
      <point x="404" y="580"/>
      <point x="449" y="583"/>
      <point x="482" y="583" type="curve" smooth="yes"/>
      <point x="506" y="583"/>
      <point x="526" y="573"/>
      <point x="548" y="573" type="curve" smooth="yes"/>
      <point x="590" y="573"/>
      <point x="615" y="620"/>
      <point x="615" y="645" type="curve" smooth="yes"/>
      <point x="615" y="680"/>
      <point x="581" y="717"/>
      <point x="518" y="717" type="curve" smooth="yes"/>
      <point x="462" y="717"/>
      <point x="426" y="715"/>
      <point x="384" y="705" type="curve" smooth="yes"/>
      <point x="339" y="695"/>
      <point x="293" y="666"/>
    </contour>
  </outline>
</glyph>
<glyph name="six" format="1">
  <advance width="526"/>
  <unicode hex="0036"/>
  <outline>
    <contour>
      <point x="339" y="731" type="curve" smooth="yes"/>
      <point x="325" y="731"/>
      <point x="307" y="725"/>
      <point x="296" y="720" type="curve" smooth="yes"/>
      <point x="253" y="701"/>
      <point x="141" y="505"/>
      <point x="114" y="444" type="curve" smooth="yes"/>
      <point x="95" y="402"/>
      <point x="72" y="351"/>
      <point x="59" y="293" type="curve"/>
      <point x="34" y="269"/>
      <point x="21" y="242"/>
      <point x="21" y="209" type="curve" smooth="yes"/>
      <point x="21" y="188"/>
      <point x="35" y="166"/>
      <point x="53" y="154" type="curve"/>
      <point x="74" y="60"/>
      <point x="158" y="-11"/>
      <point x="268" y="-11" type="curve" smooth="yes"/>
      <point x="381" y="-11"/>
      <point x="502" y="38"/>
      <point x="502" y="145" type="curve" smooth="yes"/>
      <point x="502" y="287"/>
      <point x="363" y="354"/>
      <point x="269" y="354" type="curve" smooth="yes"/>
      <point x="250" y="354"/>
      <point x="228" y="352"/>
      <point x="207" y="349" type="curve"/>
      <point x="237" y="433"/>
      <point x="279" y="526"/>
      <point x="347" y="584" type="curve" smooth="yes"/>
      <point x="350" y="586"/>
      <point x="357" y="589"/>
      <point x="362" y="592" type="curve" smooth="yes"/>
      <point x="377" y="600"/>
      <point x="399" y="612"/>
      <point x="399" y="644" type="curve" smooth="yes"/>
      <point x="399" y="681"/>
      <point x="387" y="731"/>
    </contour>
    <contour>
      <point x="260" y="234" type="curve" smooth="yes"/>
      <point x="317" y="234"/>
      <point x="373" y="195"/>
      <point x="373" y="150" type="curve" smooth="yes"/>
      <point x="373" y="132"/>
      <point x="354" y="107"/>
      <point x="274" y="107" type="curve" smooth="yes"/>
      <point x="211" y="107"/>
      <point x="178" y="142"/>
      <point x="178" y="178" type="curve" smooth="yes"/>
      <point x="178" y="193"/>
      <point x="178" y="206"/>
      <point x="182" y="225" type="curve"/>
      <point x="202" y="231"/>
      <point x="228" y="234"/>
    </contour>
  </outline>
</glyph>
<glyph name="seven" format="1">
  <advance width="506"/>
  <unicode hex="0037"/>
  <outline>
    <contour>
      <point x="57" y="710" type="curve" smooth="yes"/>
      <point x="21" y="710"/>
      <point x="-7" y="678"/>
      <point x="-7" y="635" type="curve" smooth="yes"/>
      <point x="-7" y="604"/>
      <point x="20" y="557"/>
      <point x="60" y="557" type="curve" smooth="yes"/>
      <point x="135" y="557"/>
      <point x="208" y="584"/>
      <point x="288" y="584" type="curve" smooth="yes"/>
      <point x="301" y="584"/>
      <point x="314" y="585"/>
      <point x="327" y="585" type="curve"/>
      <point x="264" y="446"/>
      <point x="188" y="113"/>
      <point x="188" y="89" type="curve" smooth="yes"/>
      <point x="188" y="50"/>
      <point x="218" y="-8"/>
      <point x="263" y="-8" type="curve" smooth="yes"/>
      <point x="299" y="-8"/>
      <point x="349" y="35"/>
      <point x="349" y="66" type="curve" smooth="yes"/>
      <point x="349" y="79"/>
      <point x="344" y="90"/>
      <point x="340" y="99" type="curve" smooth="yes"/>
      <point x="336" y="108"/>
      <point x="333" y="116"/>
      <point x="333" y="122" type="curve" smooth="yes"/>
      <point x="333" y="140"/>
      <point x="365" y="291"/>
      <point x="386" y="365" type="curve" smooth="yes"/>
      <point x="412" y="453"/>
      <point x="441" y="527"/>
      <point x="472" y="596" type="curve" smooth="yes"/>
      <point x="484" y="624"/>
      <point x="489" y="634"/>
      <point x="489" y="645" type="curve" smooth="yes"/>
      <point x="489" y="687"/>
      <point x="447" y="731"/>
      <point x="409" y="731" type="curve" smooth="yes"/>
      <point x="386" y="731"/>
      <point x="366" y="719"/>
      <point x="346" y="708" type="curve"/>
      <point x="314" y="704"/>
      <point x="139" y="694"/>
      <point x="120" y="694" type="curve" smooth="yes"/>
      <point x="99" y="694"/>
      <point x="81" y="710"/>
    </contour>
  </outline>
</glyph>
<glyph name="eight" format="1">
  <advance width="534"/>
  <unicode hex="0038"/>
  <outline>
    <contour>
      <point x="456" y="533" type="curve" smooth="yes"/>
      <point x="456" y="634"/>
      <point x="381" y="716"/>
      <point x="278" y="716" type="curve" smooth="yes"/>
      <point x="209" y="716"/>
      <point x="35" y="641"/>
      <point x="35" y="464" type="curve" smooth="yes"/>
      <point x="35" y="355"/>
      <point x="110" y="299"/>
      <point x="155" y="273" type="curve"/>
      <point x="111" y="212"/>
      <point x="91" y="160"/>
      <point x="91" y="111" type="curve" smooth="yes"/>
      <point x="91" y="62"/>
      <point x="113" y="-18"/>
      <point x="265" y="-18" type="curve" smooth="yes"/>
      <point x="383" y="-18"/>
      <point x="491" y="65"/>
      <point x="491" y="156" type="curve" smooth="yes"/>
      <point x="491" y="240"/>
      <point x="402" y="289"/>
      <point x="341" y="319" type="curve"/>
      <point x="363" y="347"/>
      <point x="407" y="393"/>
      <point x="423" y="400" type="curve" smooth="yes"/>
      <point x="462" y="415"/>
      <point x="469" y="441"/>
      <point x="469" y="455" type="curve" smooth="yes"/>
      <point x="469" y="473"/>
      <point x="460" y="490"/>
      <point x="452" y="500" type="curve"/>
      <point x="455" y="512"/>
      <point x="456" y="523"/>
    </contour>
    <contour>
      <point x="360" y="132" type="curve" smooth="yes"/>
      <point x="360" y="103"/>
      <point x="301" y="95"/>
      <point x="269" y="95" type="curve" smooth="yes"/>
      <point x="239" y="95"/>
      <point x="218" y="108"/>
      <point x="218" y="121" type="curve" smooth="yes"/>
      <point x="218" y="154"/>
      <point x="232" y="179"/>
      <point x="261" y="218" type="curve"/>
      <point x="302" y="195"/>
      <point x="360" y="158"/>
    </contour>
    <contour>
      <point x="238" y="374" type="curve"/>
      <point x="191" y="397"/>
      <point x="154" y="458"/>
      <point x="154" y="491" type="curve" smooth="yes"/>
      <point x="154" y="545"/>
      <point x="237" y="592"/>
      <point x="280" y="592" type="curve" smooth="yes"/>
      <point x="299" y="592"/>
      <point x="323" y="578"/>
      <point x="323" y="562" type="curve" smooth="yes"/>
      <point x="323" y="530"/>
      <point x="314" y="510"/>
      <point x="303" y="488" type="curve" smooth="yes"/>
      <point x="297" y="476"/>
      <point x="292" y="463"/>
      <point x="292" y="449" type="curve" smooth="yes"/>
      <point x="292" y="445"/>
      <point x="292" y="441"/>
      <point x="293" y="437" type="curve"/>
      <point x="273" y="416"/>
      <point x="256" y="396"/>
    </contour>
  </outline>
</glyph>
<glyph name="nine" format="1">
  <advance width="511"/>
  <unicode hex="0039"/>
  <outline>
    <contour>
      <point x="405" y="609" type="curve" smooth="yes"/>
      <point x="405" y="682"/>
      <point x="307" y="719"/>
      <point x="248" y="719" type="curve" smooth="yes"/>
      <point x="119" y="719"/>
      <point x="13" y="631"/>
      <point x="13" y="523" type="curve" smooth="yes"/>
      <point x="13" y="419"/>
      <point x="69" y="362"/>
      <point x="168" y="362" type="curve" smooth="yes"/>
      <point x="212" y="362"/>
      <point x="270" y="374"/>
      <point x="321" y="393" type="curve"/>
      <point x="310" y="327"/>
      <point x="302" y="264"/>
      <point x="295" y="201" type="curve" smooth="yes"/>
      <point x="291" y="163"/>
      <point x="280" y="128"/>
      <point x="259" y="93" type="curve" smooth="yes"/>
      <point x="254" y="84"/>
      <point x="250" y="76"/>
      <point x="250" y="67" type="curve" smooth="yes"/>
      <point x="250" y="33"/>
      <point x="279" y="-29"/>
      <point x="328" y="-29" type="curve" smooth="yes"/>
      <point x="396" y="-29"/>
      <point x="399" y="95"/>
      <point x="399" y="109" type="curve" smooth="yes"/>
      <point x="399" y="111"/>
      <point x="399" y="118"/>
      <point x="407" y="147" type="curve" smooth="yes"/>
      <point x="422" y="209"/>
      <point x="429" y="268"/>
      <point x="441" y="326" type="curve" smooth="yes"/>
      <point x="450" y="376"/>
      <point x="456" y="425"/>
      <point x="458" y="443" type="curve" smooth="yes"/>
      <point x="459" y="448"/>
      <point x="465" y="461"/>
      <point x="467" y="463" type="curve" smooth="yes"/>
      <point x="473" y="471"/>
      <point x="476" y="475"/>
      <point x="476" y="491" type="curve" smooth="yes"/>
      <point x="476" y="514"/>
      <point x="448" y="582"/>
      <point x="418" y="582" type="curve" smooth="yes"/>
      <point x="410" y="582"/>
      <point x="394" y="567"/>
      <point x="391" y="565" type="curve"/>
      <point x="398" y="576"/>
      <point x="405" y="593"/>
    </contour>
    <contour>
      <point x="197" y="475" type="curve" smooth="yes"/>
      <point x="148" y="475"/>
      <point x="134" y="498"/>
      <point x="134" y="518" type="curve" smooth="yes"/>
      <point x="134" y="581"/>
      <point x="205" y="594"/>
      <point x="239" y="594" type="curve" smooth="yes"/>
      <point x="259" y="594"/>
      <point x="277" y="585"/>
      <point x="277" y="572" type="curve" smooth="yes"/>
      <point x="277" y="553"/>
      <point x="255" y="536"/>
      <point x="255" y="518" type="curve" smooth="yes"/>
      <point x="255" y="507"/>
      <point x="259" y="495"/>
      <point x="269" y="488" type="curve"/>
      <point x="249" y="480"/>
      <point x="220" y="475"/>
    </contour>
  </outline>
</glyph>
<glyph name="colon" format="1">
  <advance width="222"/>
  <unicode hex="003A"/>
  <outline>
    <contour>
      <point x="104" y="142" type="curve" smooth="yes"/>
      <point x="86" y="142"/>
      <point x="52" y="120"/>
      <point x="42" y="100" type="curve" smooth="yes"/>
      <point x="34" y="85"/>
      <point x="30" y="56"/>
      <point x="30" y="50" type="curve" smooth="yes"/>
      <point x="30" y="33"/>
      <point x="67" y="-13"/>
      <point x="104" y="-13" type="curve" smooth="yes"/>
      <point x="142" y="-13"/>
      <point x="183" y="27"/>
      <point x="183" y="53" type="curve" smooth="yes"/>
      <point x="183" y="63"/>
      <point x="176" y="70"/>
      <point x="176" y="78" type="curve" smooth="yes"/>
      <point x="176" y="102"/>
      <point x="132" y="142"/>
    </contour>
    <contour>
      <point x="108" y="445" type="curve" smooth="yes"/>
      <point x="80" y="445"/>
      <point x="62" y="430"/>
      <point x="55" y="418" type="curve" smooth="yes"/>
      <point x="51" y="410"/>
      <point x="41" y="387"/>
      <point x="41" y="356" type="curve" smooth="yes"/>
      <point x="41" y="331"/>
      <point x="69" y="293"/>
      <point x="93" y="298" type="curve" smooth="yes"/>
      <point x="107" y="301"/>
      <point x="114" y="292"/>
      <point x="123" y="292" type="curve" smooth="yes"/>
      <point x="142" y="292"/>
      <point x="188" y="319"/>
      <point x="188" y="354" type="curve" smooth="yes"/>
      <point x="188" y="388"/>
      <point x="162" y="445"/>
    </contour>
  </outline>
</glyph>
<glyph name="semicolon" format="1">
  <advance width="214"/>
  <unicode hex="003B"/>
  <outline>
    <contour>
      <point x="118" y="120" type="curve" smooth="yes"/>
      <point x="78" y="120"/>
      <point x="56" y="102"/>
      <point x="49" y="68" type="curve" smooth="yes"/>
      <point x="45" y="49"/>
      <point x="47" y="28"/>
      <point x="41" y="10" type="curve" smooth="yes"/>
      <point x="33" y="-13"/>
      <point x="37" y="-41"/>
      <point x="21" y="-69" type="curve" smooth="yes"/>
      <point x="15" y="-80"/>
      <point x="7" y="-87"/>
      <point x="7" y="-109" type="curve" smooth="yes"/>
      <point x="7" y="-128"/>
      <point x="16" y="-152"/>
      <point x="55" y="-152" type="curve" smooth="yes"/>
      <point x="99" y="-152"/>
      <point x="116" y="-110"/>
      <point x="138" y="-51" type="curve" smooth="yes"/>
      <point x="151" y="-16"/>
      <point x="176" y="37"/>
      <point x="176" y="54" type="curve" smooth="yes"/>
      <point x="176" y="77"/>
      <point x="160" y="120"/>
    </contour>
    <contour>
      <point x="99" y="448" type="curve" smooth="yes"/>
      <point x="63" y="448"/>
      <point x="34" y="398"/>
      <point x="34" y="379" type="curve" smooth="yes"/>
      <point x="34" y="311"/>
      <point x="76" y="295"/>
      <point x="117" y="295" type="curve" smooth="yes"/>
      <point x="153" y="295"/>
      <point x="181" y="336"/>
      <point x="181" y="356" type="curve" smooth="yes"/>
      <point x="181" y="383"/>
      <point x="175" y="416"/>
      <point x="144" y="424" type="curve" smooth="yes"/>
      <point x="128" y="428"/>
      <point x="114" y="448"/>
    </contour>
  </outline>
</glyph>
<glyph name="less" format="1">
  <advance width="695"/>
  <unicode hex="003C"/>
  <outline>
    <contour>
      <point x="545" y="599" type="curve" smooth="yes"/>
      <point x="527" y="599"/>
      <point x="495" y="583"/>
      <point x="478" y="567" type="curve" smooth="yes"/>
      <point x="454" y="544"/>
      <point x="183" y="414"/>
      <point x="148" y="412" type="curve" smooth="yes"/>
      <point x="95" y="409"/>
      <point x="64" y="379"/>
      <point x="64" y="328" type="curve" smooth="yes"/>
      <point x="64" y="245"/>
      <point x="138" y="269"/>
      <point x="169" y="249" type="curve" smooth="yes"/>
      <point x="185" y="242"/>
      <point x="425" y="94"/>
      <point x="471" y="64" type="curve" smooth="yes"/>
      <point x="486" y="54"/>
      <point x="515" y="37"/>
      <point x="545" y="37" type="curve" smooth="yes"/>
      <point x="589" y="37"/>
      <point x="605" y="75"/>
      <point x="605" y="104" type="curve" smooth="yes"/>
      <point x="605" y="155"/>
      <point x="496" y="191"/>
      <point x="458" y="215" type="curve" smooth="yes"/>
      <point x="410" y="244"/>
      <point x="322" y="298"/>
      <point x="264" y="332" type="curve"/>
      <point x="313" y="355"/>
      <point x="355" y="371"/>
      <point x="396" y="390" type="curve" smooth="yes"/>
      <point x="448" y="412"/>
      <point x="524" y="444"/>
      <point x="540" y="448" type="curve"/>
      <point x="583" y="449"/>
      <point x="604" y="519"/>
      <point x="604" y="535" type="curve" smooth="yes"/>
      <point x="604" y="563"/>
      <point x="576" y="599"/>
    </contour>
  </outline>
</glyph>
<glyph name="equal" format="1">
  <advance width="695"/>
  <unicode hex="003D"/>
  <outline>
    <contour>
      <point x="143" y="286" type="curve" smooth="yes"/>
      <point x="117" y="286"/>
      <point x="84" y="266"/>
      <point x="84" y="222" type="curve" smooth="yes"/>
      <point x="84" y="169"/>
      <point x="106" y="143"/>
      <point x="150" y="143" type="curve" smooth="yes"/>
      <point x="212" y="143"/>
      <point x="271" y="164"/>
      <point x="332" y="164" type="curve" smooth="yes"/>
      <point x="403" y="164"/>
      <point x="464" y="158"/>
      <point x="526" y="158" type="curve" smooth="yes"/>
      <point x="572" y="158"/>
      <point x="603" y="188"/>
      <point x="603" y="232" type="curve" smooth="yes"/>
      <point x="603" y="271"/>
      <point x="578" y="291"/>
      <point x="528" y="292" type="curve" smooth="yes"/>
      <point x="435" y="292"/>
      <point x="346" y="281"/>
      <point x="258" y="281" type="curve" smooth="yes"/>
      <point x="212" y="281"/>
      <point x="177" y="286"/>
    </contour>
    <contour>
      <point x="83" y="441" type="curve" smooth="yes"/>
      <point x="83" y="394"/>
      <point x="121" y="363"/>
      <point x="158" y="363" type="curve" smooth="yes"/>
      <point x="249" y="363"/>
      <point x="243" y="379"/>
      <point x="361" y="379" type="curve" smooth="yes"/>
      <point x="424" y="379"/>
      <point x="482" y="376"/>
      <point x="541" y="376" type="curve" smooth="yes"/>
      <point x="581" y="376"/>
      <point x="612" y="418"/>
      <point x="612" y="452" type="curve" smooth="yes"/>
      <point x="612" y="473"/>
      <point x="585" y="512"/>
      <point x="531" y="512" type="curve" smooth="yes"/>
      <point x="470" y="512"/>
      <point x="412" y="506"/>
      <point x="354" y="506" type="curve" smooth="yes"/>
      <point x="276" y="506"/>
      <point x="213" y="509"/>
      <point x="150" y="509" type="curve" smooth="yes"/>
      <point x="91" y="509"/>
      <point x="83" y="466"/>
    </contour>
  </outline>
</glyph>
<glyph name="greater" format="1">
  <advance width="695"/>
  <unicode hex="003E"/>
  <outline>
    <contour>
      <point x="180" y="596" type="curve" smooth="yes"/>
      <point x="140" y="596"/>
      <point x="109" y="559"/>
      <point x="109" y="528" type="curve" smooth="yes"/>
      <point x="109" y="503"/>
      <point x="129" y="462"/>
      <point x="164" y="448" type="curve" smooth="yes"/>
      <point x="229" y="423"/>
      <point x="377" y="363"/>
      <point x="456" y="323" type="curve"/>
      <point x="403" y="291"/>
      <point x="354" y="261"/>
      <point x="324" y="246" type="curve" smooth="yes"/>
      <point x="261" y="214"/>
      <point x="204" y="182"/>
      <point x="142" y="153" type="curve"/>
      <point x="78" y="121"/>
      <point x="75" y="16"/>
      <point x="153" y="16" type="curve" smooth="yes"/>
      <point x="207" y="16"/>
      <point x="324" y="108"/>
      <point x="403" y="155" type="curve" smooth="yes"/>
      <point x="448" y="182"/>
      <point x="550" y="261"/>
      <point x="579" y="263" type="curve" smooth="yes"/>
      <point x="629" y="266"/>
      <point x="629" y="304"/>
      <point x="629" y="324" type="curve" smooth="yes"/>
      <point x="629" y="346"/>
      <point x="620" y="391"/>
      <point x="585" y="399" type="curve"/>
      <point x="498" y="424"/>
      <point x="427" y="462"/>
      <point x="384" y="484" type="curve" smooth="yes"/>
      <point x="253" y="550"/>
      <point x="221" y="596"/>
    </contour>
  </outline>
</glyph>
<glyph name="question" format="1">
  <advance width="410"/>
  <unicode hex="003F"/>
  <outline>
    <contour>
      <point x="149" y="126" type="curve" smooth="yes"/>
      <point x="131" y="126"/>
      <point x="70" y="96"/>
      <point x="70" y="68" type="curve" smooth="yes"/>
      <point x="70" y="43"/>
      <point x="95" y="13"/>
      <point x="93" y="5" type="curve" smooth="yes"/>
      <point x="95" y="-15"/>
      <point x="136" y="-21"/>
      <point x="140" y="-21" type="curve" smooth="yes"/>
      <point x="179" y="-21"/>
      <point x="221" y="8"/>
      <point x="221" y="44" type="curve" smooth="yes"/>
      <point x="221" y="76"/>
      <point x="188" y="126"/>
    </contour>
    <contour>
      <point x="156" y="739" type="curve" smooth="yes"/>
      <point x="155" y="739"/>
      <point x="43" y="737"/>
      <point x="33" y="701" type="curve" smooth="yes"/>
      <point x="29" y="688"/>
      <point x="19" y="666"/>
      <point x="19" y="656" type="curve" smooth="yes"/>
      <point x="19" y="634"/>
      <point x="47" y="577"/>
      <point x="90" y="577" type="curve" smooth="yes"/>
      <point x="126" y="577"/>
      <point x="140" y="618"/>
      <point x="185" y="618" type="curve" smooth="yes"/>
      <point x="213" y="618"/>
      <point x="252" y="596"/>
      <point x="252" y="542" type="curve" smooth="yes"/>
      <point x="252" y="505"/>
      <point x="223" y="467"/>
      <point x="188" y="459" type="curve" smooth="yes"/>
      <point x="140" y="449"/>
      <point x="73" y="436"/>
      <point x="73" y="369" type="curve" smooth="yes"/>
      <point x="73" y="323"/>
      <point x="86" y="268"/>
      <point x="86" y="226" type="curve" smooth="yes"/>
      <point x="86" y="181"/>
      <point x="113" y="169"/>
      <point x="151" y="169" type="curve" smooth="yes"/>
      <point x="193" y="169"/>
      <point x="210" y="197"/>
      <point x="210" y="233" type="curve" smooth="yes"/>
      <point x="210" y="254"/>
      <point x="199" y="273"/>
      <point x="199" y="293" type="curve" smooth="yes"/>
      <point x="199" y="308"/>
      <point x="198" y="336"/>
      <point x="206" y="345" type="curve" smooth="yes"/>
      <point x="213" y="353"/>
      <point x="240" y="358"/>
      <point x="261" y="364" type="curve" smooth="yes"/>
      <point x="303" y="376"/>
      <point x="375" y="425"/>
      <point x="375" y="530" type="curve" smooth="yes"/>
      <point x="375" y="666"/>
      <point x="249" y="739"/>
    </contour>
  </outline>
</glyph>
<glyph name="at" format="1">
  <advance width="951"/>
  <unicode hex="0040"/>
  <outline>
    <contour>
      <point x="702" y="90" type="curve" smooth="yes"/>
      <point x="851" y="90"/>
      <point x="903" y="246"/>
      <point x="903" y="377" type="curve" smooth="yes"/>
      <point x="903" y="573"/>
      <point x="719" y="735"/>
      <point x="493" y="735" type="curve" smooth="yes"/>
      <point x="158" y="735"/>
      <point x="50" y="446"/>
      <point x="50" y="305" type="curve" smooth="yes"/>
      <point x="50" y="117"/>
      <point x="188" y="-75"/>
      <point x="450" y="-75" type="curve" smooth="yes"/>
      <point x="539" y="-75"/>
      <point x="546" y="-25"/>
      <point x="546" y="-9" type="curve" smooth="yes"/>
      <point x="546" y="70"/>
      <point x="439" y="25"/>
      <point x="403" y="31" type="curve" smooth="yes"/>
      <point x="196" y="66"/>
      <point x="171" y="203"/>
      <point x="171" y="323" type="curve" smooth="yes"/>
      <point x="171" y="417"/>
      <point x="249" y="623"/>
      <point x="480" y="623" type="curve" smooth="yes"/>
      <point x="661" y="623"/>
      <point x="789" y="516"/>
      <point x="789" y="366" type="curve" smooth="yes"/>
      <point x="789" y="286"/>
      <point x="770" y="198"/>
      <point x="710" y="198" type="curve" smooth="yes"/>
      <point x="679" y="198"/>
      <point x="673" y="252"/>
      <point x="674" y="305" type="curve" smooth="yes"/>
      <point x="675" y="360"/>
      <point x="701" y="395"/>
      <point x="701" y="438" type="curve" smooth="yes"/>
      <point x="701" y="463"/>
      <point x="682" y="489"/>
      <point x="651" y="489" type="curve" smooth="yes"/>
      <point x="647" y="489"/>
      <point x="643" y="489"/>
      <point x="640" y="487" type="curve"/>
      <point x="619" y="511"/>
      <point x="576" y="547"/>
      <point x="525" y="547" type="curve" smooth="yes"/>
      <point x="392" y="547"/>
      <point x="254" y="393"/>
      <point x="254" y="240" type="curve" smooth="yes"/>
      <point x="254" y="149"/>
      <point x="317" y="103"/>
      <point x="382" y="103" type="curve" smooth="yes"/>
      <point x="466" y="103"/>
      <point x="546" y="169"/>
      <point x="584" y="213" type="curve"/>
      <point x="592" y="148"/>
      <point x="626" y="90"/>
    </contour>
    <contour>
      <point x="526" y="446" type="curve" smooth="yes"/>
      <point x="540" y="446"/>
      <point x="560" y="428"/>
      <point x="560" y="411" type="curve" smooth="yes"/>
      <point x="560" y="337"/>
      <point x="469" y="205"/>
      <point x="391" y="205" type="curve" smooth="yes"/>
      <point x="375" y="205"/>
      <point x="371" y="225"/>
      <point x="371" y="232" type="curve" smooth="yes"/>
      <point x="371" y="302"/>
      <point x="441" y="446"/>
    </contour>
  </outline>
</glyph>
<glyph name="A" format="1">
  <advance width="588"/>
  <unicode hex="0041"/>
  <outline>
    <contour>
      <point x="260" y="771" type="move" name="top"/>
    </contour>
    <contour>
      <point x="281" y="721" type="curve" smooth="yes"/>
      <point x="276" y="721"/>
      <point x="271" y="720"/>
      <point x="266" y="719" type="curve"/>
      <point x="255" y="729"/>
      <point x="239" y="735"/>
      <point x="221" y="735" type="curve" smooth="yes"/>
      <point x="173" y="735"/>
      <point x="160" y="678"/>
      <point x="155" y="654" type="curve" smooth="yes"/>
      <point x="130" y="547"/>
      <point x="112" y="474"/>
      <point x="101" y="407" type="curve" smooth="yes"/>
      <point x="83" y="302"/>
      <point x="63" y="214"/>
      <point x="37" y="137" type="curve" smooth="yes"/>
      <point x="32" y="116"/>
      <point x="22" y="99"/>
      <point x="22" y="78" type="curve" smooth="yes"/>
      <point x="22" y="50"/>
      <point x="48" y="-17"/>
      <point x="96" y="-17" type="curve" smooth="yes"/>
      <point x="138" y="-17"/>
      <point x="175" y="30"/>
      <point x="175" y="68" type="curve" smooth="yes"/>
      <point x="175" y="77"/>
      <point x="176" y="112"/>
      <point x="186" y="180" type="curve"/>
      <point x="202" y="180"/>
      <point x="218" y="182"/>
      <point x="236" y="183" type="curve" smooth="yes"/>
      <point x="259" y="185"/>
      <point x="287" y="187"/>
      <point x="314" y="187" type="curve" smooth="yes"/>
      <point x="404" y="187" type="line"/>
      <point x="421" y="148"/>
      <point x="432" y="116"/>
      <point x="437" y="90" type="curve" smooth="yes"/>
      <point x="446" y="31"/>
      <point x="478" y="-4"/>
      <point x="521" y="-4" type="curve" smooth="yes"/>
      <point x="561" y="-4"/>
      <point x="591" y="30"/>
      <point x="591" y="73" type="curve" smooth="yes"/>
      <point x="591" y="91"/>
      <point x="582" y="114"/>
      <point x="560" y="146" type="curve" smooth="yes"/>
      <point x="554" y="154"/>
      <point x="552" y="157"/>
      <point x="550" y="161" type="curve" smooth="yes"/>
      <point x="534" y="201"/>
      <point x="473" y="336"/>
      <point x="451" y="381" type="curve" smooth="yes"/>
      <point x="430" y="425"/>
      <point x="382" y="573"/>
      <point x="373" y="601" type="curve" smooth="yes"/>
      <point x="366" y="618"/>
      <point x="368" y="637"/>
      <point x="362" y="654" type="curve" smooth="yes"/>
      <point x="350" y="686"/>
      <point x="324" y="721"/>
    </contour>
    <contour>
      <point x="212" y="335" type="curve" smooth="yes"/>
      <point x="225" y="403"/>
      <point x="237" y="460"/>
      <point x="251" y="503" type="curve" smooth="yes"/>
      <point x="254" y="513"/>
      <point x="257" y="521"/>
      <point x="258" y="529" type="curve"/>
      <point x="260" y="518"/>
      <point x="267" y="509"/>
      <point x="272" y="495" type="curve" smooth="yes"/>
      <point x="293" y="443"/>
      <point x="326" y="363"/>
      <point x="350" y="307" type="curve"/>
      <point x="331" y="306"/>
      <point x="310" y="306"/>
      <point x="279" y="306" type="curve" smooth="yes"/>
      <point x="265" y="306"/>
      <point x="239" y="306"/>
      <point x="207" y="307" type="curve"/>
      <point x="209" y="317"/>
      <point x="211" y="326"/>
    </contour>
  </outline>
</glyph>
<glyph name="B" format="1">
  <advance width="667"/>
  <unicode hex="0042"/>
  <outline>
    <contour>
      <point x="329" y="730" type="curve" smooth="yes"/>
      <point x="280" y="730"/>
      <point x="168" y="715"/>
      <point x="145" y="709" type="curve" smooth="yes"/>
      <point x="108" y="699"/>
      <point x="70" y="671"/>
      <point x="70" y="628" type="curve" smooth="yes"/>
      <point x="70" y="592"/>
      <point x="100" y="566"/>
      <point x="100" y="533" type="curve" smooth="yes"/>
      <point x="100" y="468"/>
      <point x="91" y="402"/>
      <point x="82" y="339" type="curve" smooth="yes"/>
      <point x="73" y="273"/>
      <point x="63" y="213"/>
      <point x="63" y="148" type="curve" smooth="yes"/>
      <point x="63" y="143"/>
      <point x="64" y="133"/>
      <point x="64" y="128" type="curve"/>
      <point x="45" y="117"/>
      <point x="31" y="95"/>
      <point x="31" y="69" type="curve" smooth="yes"/>
      <point x="31" y="31"/>
      <point x="61" y="-10"/>
      <point x="116" y="-10" type="curve" smooth="yes"/>
      <point x="148" y="-10"/>
      <point x="177" y="-6"/>
      <point x="205" y="-6" type="curve" smooth="yes"/>
      <point x="259" y="-6"/>
      <point x="308" y="-19"/>
      <point x="358" y="-19" type="curve" smooth="yes"/>
      <point x="536" y="-19"/>
      <point x="638" y="58"/>
      <point x="638" y="191" type="curve" smooth="yes"/>
      <point x="638" y="284"/>
      <point x="598" y="355"/>
      <point x="520" y="395" type="curve"/>
      <point x="566" y="433"/>
      <point x="591" y="480"/>
      <point x="591" y="531" type="curve" smooth="yes"/>
      <point x="591" y="663"/>
      <point x="502" y="730"/>
    </contour>
    <contour>
      <point x="218" y="384" type="curve" smooth="yes"/>
      <point x="218" y="339"/>
      <point x="231" y="303"/>
      <point x="263" y="303" type="curve" smooth="yes"/>
      <point x="294" y="303"/>
      <point x="317" y="319"/>
      <point x="346" y="319" type="curve" smooth="yes"/>
      <point x="395" y="319"/>
      <point x="509" y="308"/>
      <point x="509" y="194" type="curve" smooth="yes"/>
      <point x="509" y="114"/>
      <point x="423" y="97"/>
      <point x="350" y="97" type="curve" smooth="yes"/>
      <point x="282" y="97"/>
      <point x="237" y="103"/>
      <point x="207" y="111" type="curve"/>
      <point x="208" y="114"/>
      <point x="209" y="121"/>
      <point x="209" y="124" type="curve" smooth="yes"/>
      <point x="209" y="154"/>
      <point x="201" y="175"/>
      <point x="201" y="201" type="curve" smooth="yes"/>
      <point x="201" y="233"/>
      <point x="204" y="265"/>
      <point x="207" y="297" type="curve" smooth="yes"/>
      <point x="209" y="320"/>
      <point x="228" y="497"/>
      <point x="228" y="519" type="curve" smooth="yes"/>
      <point x="228" y="540"/>
      <point x="225" y="558"/>
      <point x="225" y="575" type="curve" smooth="yes"/>
      <point x="225" y="583"/>
      <point x="226" y="588"/>
      <point x="226" y="592" type="curve" smooth="yes"/>
      <point x="244" y="596"/>
      <point x="287" y="604"/>
      <point x="332" y="604" type="curve" smooth="yes"/>
      <point x="464" y="604"/>
      <point x="464" y="557"/>
      <point x="464" y="534" type="curve" smooth="yes"/>
      <point x="464" y="466"/>
      <point x="395" y="451"/>
      <point x="382" y="451" type="curve" smooth="yes"/>
      <point x="373" y="451"/>
      <point x="356" y="449"/>
      <point x="340" y="441" type="curve"/>
      <point x="330" y="442"/>
      <point x="320" y="442"/>
      <point x="312" y="442" type="curve" smooth="yes"/>
      <point x="249" y="442"/>
      <point x="218" y="422"/>
    </contour>
  </outline>
</glyph>
<glyph name="C" format="1">
  <advance width="538"/>
  <unicode hex="0043"/>
  <outline>
    <contour>
      <point x="340" y="766" type="move" name="top"/>
    </contour>
    <contour>
      <point x="342" y="730" type="curve" smooth="yes"/>
      <point x="138" y="730"/>
      <point x="32" y="540"/>
      <point x="32" y="351" type="curve" smooth="yes"/>
      <point x="32" y="103"/>
      <point x="141" y="-17"/>
      <point x="365" y="-17" type="curve" smooth="yes"/>
      <point x="428" y="-17"/>
      <point x="534" y="-8"/>
      <point x="534" y="52" type="curve" smooth="yes"/>
      <point x="534" y="104"/>
      <point x="503" y="138"/>
      <point x="455" y="138" type="curve" smooth="yes"/>
      <point x="412" y="138"/>
      <point x="376" y="113"/>
      <point x="336" y="113" type="curve" smooth="yes"/>
      <point x="211" y="113"/>
      <point x="165" y="178"/>
      <point x="165" y="353" type="curve" smooth="yes"/>
      <point x="165" y="477"/>
      <point x="224" y="606"/>
      <point x="322" y="606" type="curve" smooth="yes"/>
      <point x="361" y="606"/>
      <point x="382" y="565"/>
      <point x="419" y="565" type="curve" smooth="yes"/>
      <point x="467" y="565"/>
      <point x="492" y="612"/>
      <point x="492" y="637" type="curve" smooth="yes"/>
      <point x="492" y="730"/>
      <point x="391" y="730"/>
    </contour>
  </outline>
</glyph>
<glyph name="D" format="1">
  <advance width="609"/>
  <unicode hex="0044"/>
  <outline>
    <contour>
      <point x="252" y="739" type="move" name="top"/>
    </contour>
    <contour>
      <point x="46" y="652" type="curve" smooth="yes"/>
      <point x="46" y="636"/>
      <point x="49" y="593"/>
      <point x="53" y="546" type="curve" smooth="yes"/>
      <point x="62" y="446"/>
      <point x="72" y="367"/>
      <point x="75" y="257" type="curve"/>
      <point x="69" y="240"/>
      <point x="59" y="226"/>
      <point x="59" y="208" type="curve" smooth="yes"/>
      <point x="59" y="188"/>
      <point x="91" y="131"/>
      <point x="143" y="131" type="curve" smooth="yes"/>
      <point x="189" y="131"/>
      <point x="203" y="200"/>
      <point x="203" y="227" type="curve" smooth="yes"/>
      <point x="203" y="305"/>
      <point x="187" y="376"/>
      <point x="187" y="448" type="curve" smooth="yes"/>
      <point x="187" y="525"/>
      <point x="187" y="549"/>
      <point x="186" y="577" type="curve" smooth="yes"/>
      <point x="186" y="581"/>
      <point x="187" y="592"/>
      <point x="196" y="592" type="curve" smooth="yes"/>
      <point x="210" y="592"/>
      <point x="276" y="575"/>
      <point x="320" y="551" type="curve" smooth="yes"/>
      <point x="385" y="514"/>
      <point x="461" y="457"/>
      <point x="461" y="334" type="curve" smooth="yes"/>
      <point x="461" y="197"/>
      <point x="264" y="106"/>
      <point x="179" y="106" type="curve" smooth="yes"/>
      <point x="155" y="106"/>
      <point x="149" y="126"/>
      <point x="112" y="126" type="curve" smooth="yes"/>
      <point x="84" y="126"/>
      <point x="66" y="76"/>
      <point x="66" y="64" type="curve" smooth="yes"/>
      <point x="66" y="44"/>
      <point x="87" y="-18"/>
      <point x="135" y="-18" type="curve" smooth="yes"/>
      <point x="320" y="-18"/>
      <point x="579" y="87"/>
      <point x="579" y="319" type="curve" smooth="yes"/>
      <point x="579" y="492"/>
      <point x="491" y="623"/>
      <point x="336" y="677" type="curve" smooth="yes"/>
      <point x="259" y="704"/>
      <point x="173" y="730"/>
      <point x="118" y="730" type="curve" smooth="yes"/>
      <point x="72" y="730"/>
      <point x="46" y="702"/>
    </contour>
  </outline>
</glyph>
<glyph name="E" format="1">
  <advance width="487"/>
  <unicode hex="0045"/>
  <outline>
    <contour>
      <point x="283" y="752" type="move" name="top"/>
    </contour>
    <contour>
      <point x="358" y="424" type="curve" smooth="yes"/>
      <point x="326" y="424"/>
      <point x="307" y="416"/>
      <point x="281" y="412" type="curve" smooth="yes"/>
      <point x="257" y="408"/>
      <point x="237" y="405"/>
      <point x="221" y="405" type="curve" smooth="yes"/>
      <point x="203" y="405"/>
      <point x="197" y="400"/>
      <point x="192" y="397" type="curve"/>
      <point x="195" y="426"/>
      <point x="198" y="467"/>
      <point x="202" y="496" type="curve" smooth="yes"/>
      <point x="205" y="524"/>
      <point x="209" y="552"/>
      <point x="211" y="573" type="curve"/>
      <point x="215" y="573" type="line" smooth="yes"/>
      <point x="260" y="573"/>
      <point x="294" y="608"/>
      <point x="337" y="608" type="curve" smooth="yes"/>
      <point x="360" y="608"/>
      <point x="382" y="601"/>
      <point x="408" y="601" type="curve" smooth="yes"/>
      <point x="440" y="601"/>
      <point x="474" y="624"/>
      <point x="474" y="658" type="curve" smooth="yes"/>
      <point x="474" y="692"/>
      <point x="451" y="730"/>
      <point x="387" y="730" type="curve" smooth="yes"/>
      <point x="340" y="730"/>
      <point x="295" y="714"/>
      <point x="244" y="714" type="curve" smooth="yes"/>
      <point x="228" y="714"/>
      <point x="212" y="719"/>
      <point x="193" y="719" type="curve" smooth="yes"/>
      <point x="174" y="719"/>
      <point x="154" y="701"/>
      <point x="142" y="679" type="curve"/>
      <point x="139" y="680"/>
      <point x="134" y="680"/>
      <point x="131" y="680" type="curve" smooth="yes"/>
      <point x="94" y="678"/>
      <point x="64" y="634"/>
      <point x="64" y="596" type="curve" smooth="yes"/>
      <point x="64" y="575"/>
      <point x="80" y="557"/>
      <point x="80" y="536" type="curve" smooth="yes"/>
      <point x="80" y="522"/>
      <point x="74" y="468"/>
      <point x="70" y="420" type="curve" smooth="yes"/>
      <point x="64" y="349"/>
      <point x="56" y="279"/>
      <point x="48" y="218" type="curve" smooth="yes"/>
      <point x="35" y="125"/>
      <point x="34" y="103"/>
      <point x="34" y="94" type="curve" smooth="yes"/>
      <point x="34" y="64"/>
      <point x="64" y="-22"/>
      <point x="123" y="-22" type="curve" smooth="yes"/>
      <point x="145" y="-22"/>
      <point x="160" y="-20"/>
      <point x="176" y="-17" type="curve" smooth="yes"/>
      <point x="201" y="-13"/>
      <point x="243" y="-7"/>
      <point x="365" y="-7" type="curve" smooth="yes"/>
      <point x="392" y="-7"/>
      <point x="431" y="10"/>
      <point x="431" y="45" type="curve" smooth="yes"/>
      <point x="431" y="96"/>
      <point x="361" y="137"/>
      <point x="334" y="137" type="curve" smooth="yes"/>
      <point x="313" y="137"/>
      <point x="302" y="120"/>
      <point x="283" y="114" type="curve"/>
      <point x="262" y="111"/>
      <point x="240" y="109"/>
      <point x="221" y="109" type="curve" smooth="yes"/>
      <point x="203" y="109"/>
      <point x="181" y="110"/>
      <point x="173" y="116" type="curve" smooth="yes"/>
      <point x="171" y="118"/>
      <point x="167" y="128"/>
      <point x="167" y="135" type="curve" smooth="yes"/>
      <point x="167" y="154"/>
      <point x="171" y="200"/>
      <point x="177" y="247" type="curve" smooth="yes"/>
      <point x="178" y="254"/>
      <point x="178" y="262"/>
      <point x="178" y="271" type="curve"/>
      <point x="180" y="269"/>
      <point x="190" y="266"/>
      <point x="199" y="266" type="curve" smooth="yes"/>
      <point x="245" y="266"/>
      <point x="284" y="301"/>
      <point x="330" y="301" type="curve" smooth="yes"/>
      <point x="347" y="301"/>
      <point x="364" y="298"/>
      <point x="384" y="298" type="curve" smooth="yes"/>
      <point x="408" y="298"/>
      <point x="436" y="318"/>
      <point x="436" y="345" type="curve" smooth="yes"/>
      <point x="436" y="395"/>
      <point x="407" y="424"/>
    </contour>
  </outline>
</glyph>
<glyph name="F" format="1">
  <advance width="501"/>
  <unicode hex="0046"/>
  <outline>
    <contour>
      <point x="405" y="444" type="curve" smooth="yes"/>
      <point x="394" y="444"/>
      <point x="379" y="439"/>
      <point x="356" y="432" type="curve" smooth="yes"/>
      <point x="309" y="417"/>
      <point x="258" y="413"/>
      <point x="211" y="413" type="curve" smooth="yes"/>
      <point x="201" y="413" type="line"/>
      <point x="203" y="435"/>
      <point x="205" y="455"/>
      <point x="205" y="472" type="curve" smooth="yes"/>
      <point x="205" y="532"/>
      <point x="202" y="562"/>
      <point x="207" y="571" type="curve" smooth="yes"/>
      <point x="218" y="590"/>
      <point x="314" y="601"/>
      <point x="357" y="601" type="curve" smooth="yes"/>
      <point x="381" y="601"/>
      <point x="399" y="584"/>
      <point x="422" y="584" type="curve" smooth="yes"/>
      <point x="455" y="584"/>
      <point x="493" y="611"/>
      <point x="493" y="645" type="curve" smooth="yes"/>
      <point x="493" y="698"/>
      <point x="460" y="731"/>
      <point x="408" y="731" type="curve" smooth="yes"/>
      <point x="363" y="731"/>
      <point x="226" y="710"/>
      <point x="184" y="696" type="curve" smooth="yes"/>
      <point x="157" y="687"/>
      <point x="134" y="668"/>
      <point x="119" y="654" type="curve"/>
      <point x="97" y="647"/>
      <point x="67" y="626"/>
      <point x="67" y="565" type="curve" smooth="yes"/>
      <point x="67" y="513"/>
      <point x="77" y="467"/>
      <point x="77" y="421" type="curve" smooth="yes"/>
      <point x="77" y="417"/>
      <point x="76" y="410"/>
      <point x="75" y="399" type="curve"/>
      <point x="61" y="385"/>
      <point x="51" y="365"/>
      <point x="51" y="347" type="curve" smooth="yes"/>
      <point x="51" y="332"/>
      <point x="56" y="319"/>
      <point x="64" y="309" type="curve"/>
      <point x="63" y="286"/>
      <point x="59" y="265"/>
      <point x="56" y="245" type="curve" smooth="yes"/>
      <point x="44" y="149"/>
      <point x="38" y="102"/>
      <point x="38" y="87" type="curve" smooth="yes"/>
      <point x="38" y="44"/>
      <point x="62" y="-3"/>
      <point x="100" y="-3" type="curve" smooth="yes"/>
      <point x="125" y="-3"/>
      <point x="177" y="22"/>
      <point x="177" y="54" type="curve" smooth="yes"/>
      <point x="177" y="83"/>
      <point x="170" y="108"/>
      <point x="170" y="133" type="curve" smooth="yes"/>
      <point x="170" y="171"/>
      <point x="177" y="224"/>
      <point x="184" y="280" type="curve"/>
      <point x="192" y="282"/>
      <point x="198" y="284"/>
      <point x="208" y="287" type="curve" smooth="yes"/>
      <point x="231" y="295"/>
      <point x="260" y="304"/>
      <point x="397" y="304" type="curve" smooth="yes"/>
      <point x="437" y="304"/>
      <point x="470" y="332"/>
      <point x="470" y="365" type="curve" smooth="yes"/>
      <point x="470" y="403"/>
      <point x="446" y="444"/>
    </contour>
  </outline>
</glyph>
<glyph name="G" format="1">
  <advance width="641"/>
  <unicode hex="0047"/>
  <outline>
    <contour>
      <point x="385" y="766" type="move" name="top"/>
    </contour>
    <contour>
      <point x="419" y="731" type="curve" smooth="yes"/>
      <point x="258" y="731"/>
      <point x="28" y="477"/>
      <point x="28" y="300" type="curve" smooth="yes"/>
      <point x="28" y="92"/>
      <point x="146" y="-10"/>
      <point x="389" y="-10" type="curve" smooth="yes"/>
      <point x="420" y="-10"/>
      <point x="463" y="5"/>
      <point x="463" y="44" type="curve" smooth="yes"/>
      <point x="463" y="77"/>
      <point x="443" y="135"/>
      <point x="406" y="135" type="curve" smooth="yes"/>
      <point x="384" y="135"/>
      <point x="382" y="114"/>
      <point x="356" y="114" type="curve" smooth="yes"/>
      <point x="224" y="114"/>
      <point x="158" y="169"/>
      <point x="158" y="283" type="curve" smooth="yes"/>
      <point x="158" y="341"/>
      <point x="206" y="443"/>
      <point x="256" y="493" type="curve" smooth="yes"/>
      <point x="317" y="553"/>
      <point x="379" y="594"/>
      <point x="409" y="594" type="curve" smooth="yes"/>
      <point x="426" y="594"/>
      <point x="440" y="579"/>
      <point x="457" y="579" type="curve" smooth="yes"/>
      <point x="480" y="579"/>
      <point x="522" y="604"/>
      <point x="522" y="646" type="curve" smooth="yes"/>
      <point x="522" y="685"/>
      <point x="475" y="731"/>
    </contour>
    <contour>
      <point x="609" y="116" type="curve" smooth="yes"/>
      <point x="608" y="167"/>
      <point x="604" y="208"/>
      <point x="604" y="249" type="curve" smooth="yes"/>
      <point x="604" y="344"/>
      <point x="552" y="408"/>
      <point x="474" y="408" type="curve" smooth="yes"/>
      <point x="419" y="408"/>
      <point x="393" y="412"/>
      <point x="369" y="417" type="curve" smooth="yes"/>
      <point x="349" y="421"/>
      <point x="333" y="423"/>
      <point x="312" y="423" type="curve" smooth="yes"/>
      <point x="261" y="423"/>
      <point x="205" y="393"/>
      <point x="205" y="351" type="curve" smooth="yes"/>
      <point x="205" y="314"/>
      <point x="231" y="273"/>
      <point x="268" y="273" type="curve" smooth="yes"/>
      <point x="287" y="273"/>
      <point x="301" y="279"/>
      <point x="312" y="284" type="curve" smooth="yes"/>
      <point x="333" y="296"/>
      <point x="433" y="302"/>
      <point x="454" y="286" type="curve"/>
      <point x="470" y="274"/>
      <point x="486" y="261"/>
      <point x="486" y="196" type="curve" smooth="yes"/>
      <point x="486" y="150"/>
      <point x="473" y="111"/>
      <point x="473" y="70" type="curve" smooth="yes"/>
      <point x="473" y="30"/>
      <point x="519" y="7"/>
      <point x="552" y="7" type="curve" smooth="yes"/>
      <point x="609" y="7"/>
      <point x="609" y="83"/>
    </contour>
  </outline>
</glyph>
<glyph name="H" format="1">
  <advance width="634"/>
  <unicode hex="0048"/>
  <outline>
    <contour>
      <point x="293" y="764" type="move" name="top"/>
    </contour>
    <contour>
      <point x="463" y="734" type="curve" smooth="yes"/>
      <point x="424" y="734"/>
      <point x="397" y="708"/>
      <point x="397" y="669" type="curve" smooth="yes"/>
      <point x="397" y="652"/>
      <point x="403" y="633"/>
      <point x="410" y="618" type="curve" smooth="yes"/>
      <point x="426" y="585"/>
      <point x="441" y="535"/>
      <point x="441" y="423" type="curve" smooth="yes"/>
      <point x="441" y="415"/>
      <point x="441" y="401"/>
      <point x="440" y="393" type="curve"/>
      <point x="404" y="388"/>
      <point x="365" y="388"/>
      <point x="317" y="388" type="curve" smooth="yes"/>
      <point x="269" y="388"/>
      <point x="234" y="389"/>
      <point x="199" y="389" type="curve"/>
      <point x="201" y="476"/>
      <point x="204" y="535"/>
      <point x="207" y="558" type="curve" smooth="yes"/>
      <point x="209" y="575"/>
      <point x="218" y="590"/>
      <point x="218" y="609" type="curve" smooth="yes"/>
      <point x="218" y="630"/>
      <point x="196" y="714"/>
      <point x="135" y="714" type="curve" smooth="yes"/>
      <point x="103" y="714"/>
      <point x="62" y="668"/>
      <point x="62" y="642" type="curve" smooth="yes"/>
      <point x="62" y="634"/>
      <point x="64" y="612"/>
      <point x="66" y="591" type="curve"/>
      <point x="71" y="551"/>
      <point x="76" y="496"/>
      <point x="76" y="473" type="curve" smooth="yes"/>
      <point x="76" y="458"/>
      <point x="76" y="410"/>
      <point x="74" y="357" type="curve"/>
      <point x="62" y="344"/>
      <point x="54" y="329"/>
      <point x="54" y="314" type="curve" smooth="yes"/>
      <point x="54" y="305"/>
      <point x="56" y="291"/>
      <point x="71" y="279" type="curve"/>
      <point x="71" y="236"/>
      <point x="70" y="191"/>
      <point x="66" y="147" type="curve"/>
      <point x="56" y="131"/>
      <point x="41" y="117"/>
      <point x="41" y="96" type="curve" smooth="yes"/>
      <point x="41" y="75"/>
      <point x="75" y="12"/>
      <point x="118" y="12" type="curve" smooth="yes"/>
      <point x="171" y="12"/>
      <point x="195" y="73"/>
      <point x="195" y="117" type="curve" smooth="yes"/>
      <point x="195" y="128"/>
      <point x="196" y="164"/>
      <point x="197" y="261" type="curve"/>
      <point x="235" y="265"/>
      <point x="273" y="270"/>
      <point x="317" y="270" type="curve" smooth="yes"/>
      <point x="357" y="270"/>
      <point x="397" y="270"/>
      <point x="438" y="267" type="curve"/>
      <point x="436" y="209"/>
      <point x="436" y="144"/>
      <point x="436" y="79" type="curve" smooth="yes"/>
      <point x="436" y="32"/>
      <point x="468" y="-3"/>
      <point x="510" y="-3" type="curve" smooth="yes"/>
      <point x="537" y="-3"/>
      <point x="570" y="12"/>
      <point x="570" y="83" type="curve" smooth="yes"/>
      <point x="570" y="92"/>
      <point x="567" y="173"/>
      <point x="567" y="236" type="curve" smooth="yes"/>
      <point x="567" y="255"/>
      <point x="568" y="288"/>
      <point x="568" y="300" type="curve"/>
      <point x="573" y="309"/>
      <point x="576" y="320"/>
      <point x="576" y="332" type="curve" smooth="yes"/>
      <point x="576" y="347"/>
      <point x="572" y="358"/>
      <point x="567" y="366" type="curve"/>
      <point x="567" y="492" type="line" smooth="yes"/>
      <point x="567" y="641"/>
      <point x="527" y="734"/>
    </contour>
  </outline>
</glyph>
<glyph name="I" format="1">
  <advance width="271"/>
  <unicode hex="0049"/>
  <outline>
    <contour>
      <point x="81" y="767" type="move" name="top"/>
    </contour>
    <contour>
      <point x="103" y="730" type="curve" smooth="yes"/>
      <point x="70" y="730"/>
      <point x="35" y="694"/>
      <point x="35" y="660" type="curve" smooth="yes"/>
      <point x="35" y="642"/>
      <point x="40" y="614"/>
      <point x="47" y="571" type="curve" smooth="yes"/>
      <point x="61" y="483"/>
      <point x="78" y="366"/>
      <point x="78" y="246" type="curve" smooth="yes"/>
      <point x="78" y="154"/>
      <point x="67" y="112"/>
      <point x="65" y="105" type="curve" smooth="yes"/>
      <point x="62" y="96"/>
      <point x="61" y="87"/>
      <point x="61" y="74" type="curve" smooth="yes"/>
      <point x="61" y="43"/>
      <point x="100" y="-9"/>
      <point x="146" y="-9" type="curve" smooth="yes"/>
      <point x="189" y="-9"/>
      <point x="209" y="41"/>
      <point x="209" y="90" type="curve" smooth="yes"/>
      <point x="209" y="109"/>
      <point x="205" y="210"/>
      <point x="202" y="296" type="curve" smooth="yes"/>
      <point x="200" y="348"/>
      <point x="199" y="366"/>
      <point x="199" y="380" type="curve" smooth="yes"/>
      <point x="195" y="500"/>
      <point x="191" y="591"/>
      <point x="182" y="667" type="curve" smooth="yes"/>
      <point x="178" y="704"/>
      <point x="137" y="730"/>
    </contour>
  </outline>
</glyph>
<glyph name="J" format="1">
  <advance width="599"/>
  <unicode hex="004A"/>
  <outline>
    <contour>
      <point x="361" y="752" type="move" name="top"/>
    </contour>
    <contour>
      <point x="139" y="727" type="curve" smooth="yes"/>
      <point x="106" y="727"/>
      <point x="80" y="687"/>
      <point x="80" y="653" type="curve" smooth="yes"/>
      <point x="80" y="616"/>
      <point x="128" y="578"/>
      <point x="158" y="578" type="curve" smooth="yes"/>
      <point x="178" y="578"/>
      <point x="193" y="584"/>
      <point x="208" y="589" type="curve" smooth="yes"/>
      <point x="234" y="597"/>
      <point x="261" y="600"/>
      <point x="295" y="600" type="curve"/>
      <point x="296" y="583"/>
      <point x="303" y="556"/>
      <point x="305" y="551" type="curve"/>
      <point x="326" y="429"/>
      <point x="323" y="289"/>
      <point x="323" y="219" type="curve" smooth="yes"/>
      <point x="323" y="143"/>
      <point x="311" y="86"/>
      <point x="235" y="86" type="curve" smooth="yes"/>
      <point x="204" y="86"/>
      <point x="162" y="100"/>
      <point x="109" y="127" type="curve" smooth="yes"/>
      <point x="88" y="138"/>
      <point x="70" y="154"/>
      <point x="46" y="154" type="curve" smooth="yes"/>
      <point x="8" y="154"/>
      <point x="-7" y="114"/>
      <point x="-7" y="74" type="curve" smooth="yes"/>
      <point x="-7" y="41"/>
      <point x="16" y="-6"/>
      <point x="68" y="-6" type="curve" smooth="yes"/>
      <point x="129" y="-6"/>
      <point x="185" y="-31"/>
      <point x="244" y="-31" type="curve" smooth="yes"/>
      <point x="283" y="-31"/>
      <point x="343" y="-17"/>
      <point x="370" y="2" type="curve" smooth="yes"/>
      <point x="445" y="58"/>
      <point x="453" y="97"/>
      <point x="453" y="183" type="curve" smooth="yes"/>
      <point x="453" y="189"/>
      <point x="452" y="205"/>
      <point x="448" y="265" type="curve" smooth="yes"/>
      <point x="445" y="303"/>
      <point x="435" y="434"/>
      <point x="435" y="523" type="curve" smooth="yes"/>
      <point x="435" y="555"/>
      <point x="435" y="563"/>
      <point x="437" y="575" type="curve" smooth="yes"/>
      <point x="438" y="580"/>
      <point x="441" y="591"/>
      <point x="441" y="598" type="curve"/>
      <point x="448" y="597"/>
      <point x="455" y="597"/>
      <point x="468" y="596" type="curve" smooth="yes"/>
      <point x="498" y="594"/>
      <point x="526" y="593"/>
      <point x="558" y="593" type="curve" smooth="yes"/>
      <point x="591" y="593"/>
      <point x="609" y="625"/>
      <point x="609" y="654" type="curve" smooth="yes"/>
      <point x="609" y="678"/>
      <point x="581" y="724"/>
      <point x="529" y="724" type="curve" smooth="yes"/>
      <point x="473" y="724"/>
      <point x="424" y="718"/>
      <point x="375" y="718" type="curve" smooth="yes"/>
      <point x="329" y="718"/>
      <point x="289" y="719"/>
      <point x="246" y="722" type="curve"/>
      <point x="210" y="726"/>
      <point x="174" y="727"/>
    </contour>
  </outline>
</glyph>
<glyph name="K" format="1">
  <advance width="547"/>
  <unicode hex="004B"/>
  <outline>
    <contour>
      <point x="451" y="731" type="curve" smooth="yes"/>
      <point x="417" y="731"/>
      <point x="403" y="700"/>
      <point x="387" y="677" type="curve"/>
      <point x="359" y="616"/>
      <point x="282" y="564"/>
      <point x="235" y="524" type="curve" smooth="yes"/>
      <point x="224" y="514"/>
      <point x="206" y="501"/>
      <point x="205" y="500" type="curve"/>
      <point x="198" y="667"/>
      <point x="176" y="731"/>
      <point x="125" y="731" type="curve" smooth="yes"/>
      <point x="112" y="731"/>
      <point x="104" y="727"/>
      <point x="97" y="723" type="curve" smooth="yes"/>
      <point x="93" y="721"/>
      <point x="89" y="720"/>
      <point x="84" y="719" type="curve" smooth="yes"/>
      <point x="59" y="713"/>
      <point x="41" y="679"/>
      <point x="41" y="653" type="curve" smooth="yes"/>
      <point x="41" y="640"/>
      <point x="45" y="627"/>
      <point x="49" y="615" type="curve" smooth="yes"/>
      <point x="56" y="589"/>
      <point x="79" y="514"/>
      <point x="79" y="372" type="curve"/>
      <point x="68" y="354"/>
      <point x="62" y="337"/>
      <point x="62" y="322" type="curve" smooth="yes"/>
      <point x="62" y="311"/>
      <point x="63" y="292"/>
      <point x="73" y="273" type="curve"/>
      <point x="69" y="232"/>
      <point x="63" y="191"/>
      <point x="55" y="135" type="curve" smooth="yes"/>
      <point x="52" y="113"/>
      <point x="48" y="82"/>
      <point x="48" y="71" type="curve" smooth="yes"/>
      <point x="48" y="33"/>
      <point x="68" y="-6"/>
      <point x="107" y="-6" type="curve" smooth="yes"/>
      <point x="157" y="-6"/>
      <point x="189" y="18"/>
      <point x="189" y="57" type="curve" smooth="yes"/>
      <point x="189" y="76"/>
      <point x="185" y="91"/>
      <point x="185" y="106" type="curve" smooth="yes"/>
      <point x="185" y="141"/>
      <point x="188" y="174"/>
      <point x="193" y="210" type="curve"/>
      <point x="229" y="193"/>
      <point x="281" y="162"/>
      <point x="300" y="150" type="curve" smooth="yes"/>
      <point x="325" y="135"/>
      <point x="386" y="82"/>
      <point x="400" y="65" type="curve" smooth="yes"/>
      <point x="437" y="20"/>
      <point x="464" y="-4"/>
      <point x="490" y="-4" type="curve" smooth="yes"/>
      <point x="518" y="-4"/>
      <point x="560" y="25"/>
      <point x="560" y="65" type="curve" smooth="yes"/>
      <point x="560" y="107"/>
      <point x="535" y="123"/>
      <point x="510" y="139" type="curve" smooth="yes"/>
      <point x="486" y="153"/>
      <point x="466" y="172"/>
      <point x="445" y="189" type="curve" smooth="yes"/>
      <point x="372" y="246"/>
      <point x="296" y="302"/>
      <point x="213" y="342" type="curve"/>
      <point x="303" y="436"/>
      <point x="395" y="512"/>
      <point x="485" y="580" type="curve"/>
      <point x="499" y="591"/>
      <point x="519" y="607"/>
      <point x="519" y="633" type="curve" smooth="yes"/>
      <point x="519" y="672"/>
      <point x="502" y="731"/>
    </contour>
  </outline>
</glyph>
<glyph name="L" format="1">
  <advance width="493"/>
  <unicode hex="004C"/>
  <outline>
    <contour>
      <point x="160" y="766" type="move" name="top"/>
    </contour>
    <contour>
      <point x="161" y="731" type="curve" smooth="yes"/>
      <point x="121" y="731"/>
      <point x="97" y="684"/>
      <point x="97" y="653" type="curve" smooth="yes"/>
      <point x="97" y="623"/>
      <point x="104" y="598"/>
      <point x="104" y="572" type="curve" smooth="yes"/>
      <point x="104" y="528"/>
      <point x="91" y="434"/>
      <point x="78" y="349" type="curve" smooth="yes"/>
      <point x="62" y="243"/>
      <point x="46" y="142"/>
      <point x="46" y="85" type="curve" smooth="yes"/>
      <point x="46" y="19"/>
      <point x="89" y="-15"/>
      <point x="118" y="-15" type="curve" smooth="yes"/>
      <point x="131" y="-15"/>
      <point x="141" y="-14"/>
      <point x="157" y="-11" type="curve" smooth="yes"/>
      <point x="180" y="-7"/>
      <point x="222" y="-1"/>
      <point x="379" y="-1" type="curve" smooth="yes"/>
      <point x="399" y="-1"/>
      <point x="415" y="-12"/>
      <point x="433" y="-12" type="curve" smooth="yes"/>
      <point x="466" y="-12"/>
      <point x="508" y="13"/>
      <point x="508" y="45" type="curve" smooth="yes"/>
      <point x="508" y="71"/>
      <point x="489" y="127"/>
      <point x="431" y="127" type="curve" smooth="yes"/>
      <point x="391" y="127"/>
      <point x="356" y="119"/>
      <point x="320" y="119" type="curve" smooth="yes"/>
      <point x="267" y="119"/>
      <point x="254" y="123"/>
      <point x="206" y="123" type="curve" smooth="yes"/>
      <point x="191" y="123"/>
      <point x="180" y="134"/>
      <point x="180" y="147" type="curve" smooth="yes"/>
      <point x="180" y="222"/>
      <point x="199" y="301"/>
      <point x="217" y="396" type="curve" smooth="yes"/>
      <point x="234" y="485"/>
      <point x="250" y="569"/>
      <point x="250" y="634" type="curve" smooth="yes"/>
      <point x="250" y="679"/>
      <point x="212" y="731"/>
    </contour>
  </outline>
</glyph>
<glyph name="M" format="1">
  <advance width="906"/>
  <unicode hex="004D"/>
  <outline>
    <contour>
      <point x="142" y="721" type="curve" smooth="yes"/>
      <point x="114" y="721"/>
      <point x="67" y="663"/>
      <point x="67" y="627" type="curve" smooth="yes"/>
      <point x="67" y="618"/>
      <point x="69" y="602"/>
      <point x="71" y="588" type="curve" smooth="yes"/>
      <point x="74" y="557"/>
      <point x="74" y="502"/>
      <point x="74" y="338" type="curve" smooth="yes"/>
      <point x="74" y="286"/>
      <point x="70" y="224"/>
      <point x="67" y="166" type="curve"/>
      <point x="64" y="137"/>
      <point x="62" y="106"/>
      <point x="62" y="66" type="curve" smooth="yes"/>
      <point x="62" y="32"/>
      <point x="103" y="-4"/>
      <point x="141" y="-4" type="curve" smooth="yes"/>
      <point x="160" y="-4"/>
      <point x="201" y="4"/>
      <point x="201" y="80" type="curve" smooth="yes"/>
      <point x="201" y="129"/>
      <point x="195" y="168"/>
      <point x="195" y="208" type="curve" smooth="yes"/>
      <point x="195" y="275"/>
      <point x="197" y="328"/>
      <point x="199" y="389" type="curve" smooth="yes"/>
      <point x="201" y="434"/>
      <point x="201" y="474"/>
      <point x="204" y="513" type="curve"/>
      <point x="234" y="472"/>
      <point x="261" y="431"/>
      <point x="287" y="388" type="curve" smooth="yes"/>
      <point x="407" y="182"/>
      <point x="443" y="182"/>
      <point x="460" y="182" type="curve" smooth="yes"/>
      <point x="525" y="182"/>
      <point x="548" y="248"/>
      <point x="570" y="292" type="curve" smooth="yes"/>
      <point x="606" y="358"/>
      <point x="644" y="427"/>
      <point x="691" y="508" type="curve"/>
      <point x="701" y="437"/>
      <point x="710" y="357"/>
      <point x="710" y="287" type="curve" smooth="yes"/>
      <point x="710" y="186"/>
      <point x="709" y="137"/>
      <point x="708" y="69" type="curve" smooth="yes"/>
      <point x="708" y="29"/>
      <point x="733" y="-18"/>
      <point x="781" y="-18" type="curve" smooth="yes"/>
      <point x="818" y="-18"/>
      <point x="845" y="22"/>
      <point x="845" y="57" type="curve" smooth="yes"/>
      <point x="845" y="348"/>
      <point x="811" y="403"/>
      <point x="811" y="586" type="curve" smooth="yes"/>
      <point x="811" y="601"/>
      <point x="811" y="623"/>
      <point x="814" y="647" type="curve"/>
      <point x="813" y="696"/>
      <point x="753" y="730"/>
      <point x="714" y="730" type="curve" smooth="yes"/>
      <point x="668" y="730"/>
      <point x="635" y="676"/>
      <point x="624" y="647" type="curve" smooth="yes"/>
      <point x="592" y="566"/>
      <point x="527" y="463"/>
      <point x="461" y="360" type="curve"/>
      <point x="412" y="431"/>
      <point x="370" y="498"/>
      <point x="332" y="555" type="curve"/>
      <point x="291" y="621"/>
      <point x="231" y="721"/>
    </contour>
  </outline>
</glyph>
<glyph name="N" format="1">
  <advance width="730"/>
  <unicode hex="004E"/>
  <outline>
    <contour>
      <point x="349" y="762" type="move" name="top"/>
    </contour>
    <contour>
      <point x="186" y="721" type="curve" smooth="yes"/>
      <point x="143" y="721"/>
      <point x="93" y="682"/>
      <point x="93" y="633" type="curve" smooth="yes"/>
      <point x="93" y="501"/>
      <point x="75" y="376"/>
      <point x="67" y="251" type="curve" smooth="yes"/>
      <point x="63" y="191"/>
      <point x="50" y="134"/>
      <point x="50" y="78" type="curve" smooth="yes"/>
      <point x="50" y="31"/>
      <point x="94" y="-7"/>
      <point x="130" y="-7" type="curve" smooth="yes"/>
      <point x="172" y="-7"/>
      <point x="200" y="44"/>
      <point x="200" y="78" type="curve" smooth="yes"/>
      <point x="200" y="99"/>
      <point x="193" y="115"/>
      <point x="193" y="133" type="curve" smooth="yes"/>
      <point x="193" y="289"/>
      <point x="202" y="424"/>
      <point x="224" y="540" type="curve"/>
      <point x="322" y="414"/>
      <point x="414" y="256"/>
      <point x="498" y="104" type="curve"/>
      <point x="534" y="38"/>
      <point x="557" y="-5"/>
      <point x="590" y="-5" type="curve" smooth="yes"/>
      <point x="640" y="-5"/>
      <point x="674" y="44"/>
      <point x="674" y="75" type="curve" smooth="yes"/>
      <point x="674" y="112"/>
      <point x="660" y="144"/>
      <point x="660" y="177" type="curve" smooth="yes"/>
      <point x="660" y="347"/>
      <point x="653" y="503"/>
      <point x="649" y="587" type="curve" smooth="yes"/>
      <point x="647" y="616"/>
      <point x="647" y="635"/>
      <point x="647" y="654" type="curve" smooth="yes"/>
      <point x="647" y="693"/>
      <point x="606" y="730"/>
      <point x="575" y="730" type="curve" smooth="yes"/>
      <point x="550" y="730"/>
      <point x="501" y="707"/>
      <point x="501" y="661" type="curve" smooth="yes"/>
      <point x="501" y="639"/>
      <point x="507" y="620"/>
      <point x="511" y="601" type="curve"/>
      <point x="519" y="515"/>
      <point x="526" y="387"/>
      <point x="531" y="286" type="curve"/>
      <point x="508" y="319"/>
      <point x="489" y="353"/>
      <point x="470" y="387" type="curve" smooth="yes"/>
      <point x="373" y="563"/>
      <point x="277" y="721"/>
    </contour>
  </outline>
</glyph>
<glyph name="O" format="1">
  <advance width="624"/>
  <unicode hex="004F"/>
  <outline>
    <contour>
      <point x="275" y="766" type="move" name="top"/>
    </contour>
    <contour>
      <point x="30" y="345" type="curve" smooth="yes"/>
      <point x="30" y="208"/>
      <point x="108" y="-10"/>
      <point x="317" y="-10" type="curve" smooth="yes"/>
      <point x="473" y="-10"/>
      <point x="594" y="136"/>
      <point x="594" y="322" type="curve" smooth="yes"/>
      <point x="594" y="479"/>
      <point x="544" y="598"/>
      <point x="443" y="673" type="curve" smooth="yes"/>
      <point x="394" y="710"/>
      <point x="336" y="731"/>
      <point x="285" y="731" type="curve" smooth="yes"/>
      <point x="253" y="731"/>
      <point x="193" y="721"/>
      <point x="172" y="693" type="curve"/>
      <point x="95" y="679"/>
      <point x="30" y="498"/>
    </contour>
    <contour>
      <point x="279" y="611" type="curve" smooth="yes"/>
      <point x="321" y="611"/>
      <point x="354" y="592"/>
      <point x="380" y="570" type="curve" smooth="yes"/>
      <point x="445" y="513"/>
      <point x="469" y="397"/>
      <point x="469" y="338" type="curve" smooth="yes"/>
      <point x="469" y="207"/>
      <point x="404" y="115"/>
      <point x="310" y="115" type="curve" smooth="yes"/>
      <point x="201" y="115"/>
      <point x="161" y="246"/>
      <point x="161" y="329" type="curve" smooth="yes"/>
      <point x="161" y="431"/>
      <point x="179" y="507"/>
      <point x="213" y="552" type="curve"/>
      <point x="232" y="571"/>
      <point x="259" y="570"/>
      <point x="259" y="601" type="curve" smooth="yes"/>
      <point x="259" y="602"/>
      <point x="259" y="605"/>
      <point x="258" y="609" type="curve"/>
      <point x="262" y="610"/>
      <point x="275" y="611"/>
    </contour>
  </outline>
</glyph>
<glyph name="P" format="1">
  <advance width="574"/>
  <unicode hex="0050"/>
  <outline>
    <contour>
      <point x="227" y="727" type="curve" smooth="yes"/>
      <point x="190" y="727"/>
      <point x="62" y="707"/>
      <point x="62" y="641" type="curve" smooth="yes"/>
      <point x="62" y="629"/>
      <point x="69" y="616"/>
      <point x="78" y="606" type="curve"/>
      <point x="65" y="595"/>
      <point x="57" y="579"/>
      <point x="57" y="564" type="curve" smooth="yes"/>
      <point x="57" y="535"/>
      <point x="75" y="512"/>
      <point x="75" y="487" type="curve" smooth="yes"/>
      <point x="75" y="476"/>
      <point x="74" y="426"/>
      <point x="73" y="370" type="curve"/>
      <point x="58" y="358"/>
      <point x="48" y="343"/>
      <point x="48" y="328" type="curve" smooth="yes"/>
      <point x="48" y="308"/>
      <point x="56" y="290"/>
      <point x="69" y="275" type="curve"/>
      <point x="66" y="207"/>
      <point x="62" y="158"/>
      <point x="59" y="132" type="curve" smooth="yes"/>
      <point x="56" y="106"/>
      <point x="27" y="93"/>
      <point x="27" y="61" type="curve" smooth="yes"/>
      <point x="27" y="14"/>
      <point x="73" y="-15"/>
      <point x="116" y="-15" type="curve" smooth="yes"/>
      <point x="176" y="-15"/>
      <point x="186" y="66"/>
      <point x="189" y="98" type="curve" smooth="yes"/>
      <point x="194" y="158"/>
      <point x="193" y="214"/>
      <point x="196" y="270" type="curve"/>
      <point x="199" y="271"/>
      <point x="205" y="273"/>
      <point x="208" y="273" type="curve" smooth="yes"/>
      <point x="284" y="273"/>
      <point x="567" y="296"/>
      <point x="567" y="495" type="curve" smooth="yes"/>
      <point x="567" y="564"/>
      <point x="469" y="727"/>
    </contour>
    <contour>
      <point x="203" y="600" type="curve"/>
      <point x="212" y="603"/>
      <point x="228" y="605"/>
      <point x="242" y="605" type="curve" smooth="yes"/>
      <point x="321" y="605"/>
      <point x="437" y="535"/>
      <point x="437" y="489" type="curve" smooth="yes"/>
      <point x="437" y="443"/>
      <point x="356" y="393"/>
      <point x="199" y="384" type="curve" smooth="yes"/>
      <point x="201" y="447"/>
      <point x="203" y="498"/>
      <point x="203" y="513" type="curve" smooth="yes"/>
      <point x="203" y="533"/>
      <point x="210" y="547"/>
      <point x="210" y="565" type="curve" smooth="yes"/>
      <point x="210" y="580"/>
      <point x="200" y="587"/>
      <point x="194" y="593" type="curve"/>
      <point x="200" y="594"/>
      <point x="201" y="599"/>
    </contour>
  </outline>
</glyph>
<glyph name="Q" format="1">
  <advance width="609"/>
  <unicode hex="0051"/>
  <outline>
    <contour>
      <point x="544" y="-44" type="curve" smooth="yes"/>
      <point x="544" y="-16"/>
      <point x="514" y="21"/>
      <point x="458" y="79" type="curve"/>
      <point x="535" y="152"/>
      <point x="580" y="247"/>
      <point x="580" y="303" type="curve" smooth="yes"/>
      <point x="580" y="516"/>
      <point x="457" y="731"/>
      <point x="388" y="731" type="curve" smooth="yes"/>
      <point x="348" y="731"/>
      <point x="218" y="682"/>
      <point x="196" y="626" type="curve"/>
      <point x="87" y="604"/>
      <point x="29" y="359"/>
      <point x="29" y="237" type="curve" smooth="yes"/>
      <point x="29" y="88"/>
      <point x="109" y="-22"/>
      <point x="219" y="-22" type="curve" smooth="yes"/>
      <point x="266" y="-22"/>
      <point x="314" y="-11"/>
      <point x="359" y="10" type="curve"/>
      <point x="382" y="-14"/>
      <point x="404" y="-46"/>
      <point x="416" y="-63" type="curve"/>
      <point x="419" y="-84"/>
      <point x="436" y="-128"/>
      <point x="471" y="-128" type="curve" smooth="yes"/>
      <point x="504" y="-128"/>
      <point x="544" y="-83"/>
    </contour>
    <contour>
      <point x="280" y="531" type="line"/>
      <point x="317" y="531"/>
      <point x="336" y="563"/>
      <point x="351" y="583" type="curve" smooth="yes"/>
      <point x="359" y="593"/>
      <point x="364" y="601"/>
      <point x="375" y="601" type="curve" smooth="yes"/>
      <point x="411" y="601"/>
      <point x="461" y="456"/>
      <point x="461" y="337" type="curve" smooth="yes"/>
      <point x="461" y="277"/>
      <point x="429" y="213"/>
      <point x="376" y="167" type="curve"/>
      <point x="349" y="200"/>
      <point x="341" y="220"/>
      <point x="341" y="230" type="curve" smooth="yes"/>
      <point x="341" y="238"/>
      <point x="345" y="245"/>
      <point x="345" y="253" type="curve" smooth="yes"/>
      <point x="350" y="291"/>
      <point x="311" y="303"/>
      <point x="284" y="303" type="curve" smooth="yes"/>
      <point x="246" y="303"/>
      <point x="221" y="252"/>
      <point x="221" y="216" type="curve" smooth="yes"/>
      <point x="221" y="188"/>
      <point x="236" y="156"/>
      <point x="271" y="111" type="curve"/>
      <point x="257" y="108"/>
      <point x="242" y="106"/>
      <point x="227" y="106" type="curve" smooth="yes"/>
      <point x="207" y="106"/>
      <point x="157" y="107"/>
      <point x="157" y="244" type="curve" smooth="yes"/>
      <point x="157" y="343"/>
      <point x="211" y="507"/>
      <point x="258" y="521" type="curve" smooth="yes"/>
      <point x="268" y="524"/>
      <point x="272" y="526"/>
      <point x="276" y="531" type="curve"/>
    </contour>
  </outline>
</glyph>
<glyph name="R" format="1">
  <advance width="607"/>
  <unicode hex="0052"/>
  <outline>
    <contour>
      <point x="284" y="759" type="move" name="top"/>
    </contour>
    <contour>
      <point x="109" y="690" type="curve" smooth="yes"/>
      <point x="90" y="689"/>
      <point x="50" y="666"/>
      <point x="50" y="633" type="curve" smooth="yes"/>
      <point x="50" y="607"/>
      <point x="63" y="576"/>
      <point x="71" y="557" type="curve" smooth="yes"/>
      <point x="79" y="537"/>
      <point x="86" y="513"/>
      <point x="86" y="485" type="curve" smooth="yes"/>
      <point x="86" y="452"/>
      <point x="86" y="415"/>
      <point x="84" y="381" type="curve"/>
      <point x="65" y="364"/>
      <point x="53" y="339"/>
      <point x="53" y="311" type="curve" smooth="yes"/>
      <point x="53" y="294"/>
      <point x="62" y="275"/>
      <point x="79" y="256" type="curve"/>
      <point x="76" y="209"/>
      <point x="70" y="173"/>
      <point x="63" y="146" type="curve"/>
      <point x="55" y="129"/>
      <point x="49" y="105"/>
      <point x="49" y="85" type="curve" smooth="yes"/>
      <point x="49" y="23"/>
      <point x="97" y="-6"/>
      <point x="130" y="-6" type="curve" smooth="yes"/>
      <point x="164" y="-6"/>
      <point x="190" y="33"/>
      <point x="190" y="87" type="curve"/>
      <point x="189" y="105"/>
      <point x="189" y="118"/>
      <point x="190" y="135" type="curve" smooth="yes"/>
      <point x="191" y="147"/>
      <point x="192" y="154"/>
      <point x="194" y="173" type="curve"/>
      <point x="224" y="155"/>
      <point x="253" y="139"/>
      <point x="281" y="121" type="curve"/>
      <point x="333" y="93"/>
      <point x="374" y="69"/>
      <point x="416" y="41" type="curve" smooth="yes"/>
      <point x="461" y="11"/>
      <point x="502" y="-13"/>
      <point x="546" y="-13" type="curve" smooth="yes"/>
      <point x="585" y="-13"/>
      <point x="617" y="37"/>
      <point x="617" y="68" type="curve" smooth="yes"/>
      <point x="617" y="109"/>
      <point x="560" y="122"/>
      <point x="531" y="127" type="curve" smooth="yes"/>
      <point x="412" y="169"/>
      <point x="295" y="235"/>
      <point x="219" y="291" type="curve"/>
      <point x="219" y="292"/>
      <point x="219" y="293"/>
      <point x="219" y="294" type="curve"/>
      <point x="499" y="321"/>
      <point x="559" y="441"/>
      <point x="559" y="533" type="curve" smooth="yes"/>
      <point x="559" y="652"/>
      <point x="412" y="728"/>
      <point x="184" y="728" type="curve" smooth="yes"/>
      <point x="164" y="728"/>
      <point x="133" y="712"/>
      <point x="118" y="689" type="curve"/>
      <point x="114" y="690"/>
      <point x="111" y="690"/>
    </contour>
    <contour>
      <point x="248" y="605" type="curve" smooth="yes"/>
      <point x="283" y="605"/>
      <point x="423" y="579"/>
      <point x="423" y="521" type="curve" smooth="yes"/>
      <point x="423" y="459"/>
      <point x="352" y="421"/>
      <point x="211" y="407" type="curve" smooth="yes"/>
      <point x="212" y="428"/>
      <point x="213" y="450"/>
      <point x="213" y="474" type="curve" smooth="yes"/>
      <point x="213" y="501"/>
      <point x="211" y="531"/>
      <point x="209" y="554" type="curve" smooth="yes"/>
      <point x="208" y="564"/>
      <point x="206" y="576"/>
      <point x="206" y="586" type="curve"/>
      <point x="222" y="587"/>
      <point x="235" y="605"/>
    </contour>
  </outline>
</glyph>
<glyph name="S" format="1">
  <advance width="555"/>
  <unicode hex="0053"/>
  <outline>
    <contour>
      <point x="331" y="776" type="move" name="top"/>
    </contour>
    <contour>
      <point x="325" y="741" type="curve" smooth="yes"/>
      <point x="217" y="741"/>
      <point x="78" y="588"/>
      <point x="78" y="470" type="curve" smooth="yes"/>
      <point x="78" y="409"/>
      <point x="107" y="336"/>
      <point x="184" y="331" type="curve" smooth="yes"/>
      <point x="292" y="323"/>
      <point x="400" y="278"/>
      <point x="400" y="201" type="curve" smooth="yes"/>
      <point x="400" y="121"/>
      <point x="305" y="104"/>
      <point x="268" y="104" type="curve" smooth="yes"/>
      <point x="187" y="104"/>
      <point x="159" y="170"/>
      <point x="158" y="179" type="curve" smooth="yes"/>
      <point x="158" y="198"/>
      <point x="172" y="215"/>
      <point x="172" y="237" type="curve" smooth="yes"/>
      <point x="172" y="263"/>
      <point x="140" y="314"/>
      <point x="106" y="314" type="curve" smooth="yes"/>
      <point x="54" y="314"/>
      <point x="21" y="268"/>
      <point x="21" y="223" type="curve" smooth="yes"/>
      <point x="21" y="90"/>
      <point x="132" y="-16"/>
      <point x="275" y="-16" type="curve" smooth="yes"/>
      <point x="439" y="-16"/>
      <point x="530" y="110"/>
      <point x="530" y="196" type="curve" smooth="yes"/>
      <point x="530" y="387"/>
      <point x="353" y="424"/>
      <point x="277" y="444" type="curve" smooth="yes"/>
      <point x="263" y="448"/>
      <point x="209" y="453"/>
      <point x="209" y="479" type="curve" smooth="yes"/>
      <point x="209" y="539"/>
      <point x="304" y="616"/>
      <point x="335" y="616" type="curve" smooth="yes"/>
      <point x="364" y="616"/>
      <point x="382" y="604"/>
      <point x="394" y="589" type="curve" smooth="yes"/>
      <point x="407" y="573"/>
      <point x="423" y="550"/>
      <point x="456" y="550" type="curve" smooth="yes"/>
      <point x="486" y="550"/>
      <point x="519" y="590"/>
      <point x="519" y="635" type="curve" smooth="yes"/>
      <point x="519" y="684"/>
      <point x="434" y="741"/>
    </contour>
  </outline>
</glyph>
<glyph name="T" format="1">
  <advance width="559"/>
  <unicode hex="0054"/>
  <outline>
    <contour>
      <point x="279" y="752" type="move" name="top"/>
    </contour>
    <contour>
      <point x="58" y="726" type="curve" smooth="yes"/>
      <point x="32" y="726"/>
      <point x="-26" y="700"/>
      <point x="-26" y="649" type="curve" smooth="yes"/>
      <point x="-26" y="619"/>
      <point x="10" y="580"/>
      <point x="51" y="580" type="curve" smooth="yes"/>
      <point x="87" y="580"/>
      <point x="119" y="589"/>
      <point x="151" y="593" type="curve" smooth="yes"/>
      <point x="162" y="594"/>
      <point x="186" y="597"/>
      <point x="217" y="598" type="curve"/>
      <point x="217" y="579"/>
      <point x="232" y="558"/>
      <point x="232" y="524" type="curve" smooth="yes"/>
      <point x="232" y="367"/>
      <point x="211" y="221"/>
      <point x="200" y="133" type="curve" smooth="yes"/>
      <point x="194" y="89"/>
      <point x="193" y="78"/>
      <point x="193" y="70" type="curve" smooth="yes"/>
      <point x="193" y="45"/>
      <point x="222" y="-8"/>
      <point x="259" y="-8" type="curve" smooth="yes"/>
      <point x="291" y="-8"/>
      <point x="351" y="41"/>
      <point x="351" y="87" type="curve" smooth="yes"/>
      <point x="351" y="100"/>
      <point x="345" y="114"/>
      <point x="334" y="128" type="curve"/>
      <point x="335" y="143"/>
      <point x="337" y="172"/>
      <point x="342" y="246" type="curve" smooth="yes"/>
      <point x="348" y="339"/>
      <point x="358" y="499"/>
      <point x="358" y="533" type="curve" smooth="yes"/>
      <point x="358" y="559"/>
      <point x="356" y="581"/>
      <point x="354" y="600" type="curve"/>
      <point x="402" y="598"/>
      <point x="446" y="591"/>
      <point x="491" y="591" type="curve" smooth="yes"/>
      <point x="531" y="591"/>
      <point x="572" y="621"/>
      <point x="572" y="651" type="curve" smooth="yes"/>
      <point x="572" y="694"/>
      <point x="527" y="726"/>
      <point x="486" y="726" type="curve" smooth="yes"/>
      <point x="478" y="726"/>
      <point x="458" y="725"/>
      <point x="411" y="722" type="curve" smooth="yes"/>
      <point x="363" y="719"/>
      <point x="312" y="718"/>
      <point x="289" y="718" type="curve" smooth="yes"/>
      <point x="258" y="718"/>
      <point x="176" y="720"/>
      <point x="132" y="720" type="curve" smooth="yes"/>
      <point x="104" y="720"/>
      <point x="81" y="726"/>
    </contour>
  </outline>
</glyph>
<glyph name="U" format="1">
  <advance width="662"/>
  <unicode hex="0055"/>
  <outline>
    <contour>
      <point x="284" y="763" type="move" name="top"/>
    </contour>
    <contour>
      <point x="122" y="727" type="curve" smooth="yes"/>
      <point x="88" y="727"/>
      <point x="50" y="687"/>
      <point x="50" y="634" type="curve" smooth="yes"/>
      <point x="50" y="608"/>
      <point x="57" y="586"/>
      <point x="57" y="563" type="curve" smooth="yes"/>
      <point x="57" y="533"/>
      <point x="56" y="500"/>
      <point x="55" y="470" type="curve" smooth="yes"/>
      <point x="54" y="442"/>
      <point x="53" y="415"/>
      <point x="53" y="393" type="curve" smooth="yes"/>
      <point x="53" y="131"/>
      <point x="145" y="-13"/>
      <point x="313" y="-13" type="curve" smooth="yes"/>
      <point x="440" y="-13"/>
      <point x="623" y="99"/>
      <point x="623" y="301" type="curve" smooth="yes"/>
      <point x="623" y="458"/>
      <point x="561" y="591"/>
      <point x="532" y="641" type="curve"/>
      <point x="522" y="669"/>
      <point x="498" y="730"/>
      <point x="445" y="730" type="curve" smooth="yes"/>
      <point x="412" y="730"/>
      <point x="372" y="684"/>
      <point x="372" y="655" type="curve" smooth="yes"/>
      <point x="372" y="608"/>
      <point x="419" y="558"/>
      <point x="452" y="534" type="curve"/>
      <point x="483" y="477"/>
      <point x="497" y="400"/>
      <point x="497" y="282" type="curve" smooth="yes"/>
      <point x="497" y="202"/>
      <point x="423" y="118"/>
      <point x="313" y="118" type="curve" smooth="yes"/>
      <point x="215" y="118"/>
      <point x="181" y="263"/>
      <point x="181" y="386" type="curve" smooth="yes"/>
      <point x="181" y="472"/>
      <point x="185" y="552"/>
      <point x="190" y="571" type="curve"/>
      <point x="197" y="583"/>
      <point x="206" y="607"/>
      <point x="206" y="628" type="curve" smooth="yes"/>
      <point x="206" y="661"/>
      <point x="169" y="727"/>
    </contour>
  </outline>
</glyph>
<glyph name="V" format="1">
  <advance width="572"/>
  <unicode hex="0056"/>
  <outline>
    <contour>
      <point x="67" y="705" type="curve" smooth="yes"/>
      <point x="39" y="705"/>
      <point x="-10" y="657"/>
      <point x="-10" y="624" type="curve" smooth="yes"/>
      <point x="-10" y="587"/>
      <point x="18" y="568"/>
      <point x="30" y="560" type="curve" smooth="yes"/>
      <point x="34" y="558"/>
      <point x="39" y="551"/>
      <point x="41" y="548" type="curve" smooth="yes"/>
      <point x="97" y="458"/>
      <point x="196" y="123"/>
      <point x="196" y="85" type="curve" smooth="yes"/>
      <point x="196" y="79"/>
      <point x="188" y="68"/>
      <point x="188" y="60" type="curve" smooth="yes"/>
      <point x="188" y="37"/>
      <point x="228" y="-10"/>
      <point x="260" y="-10" type="curve" smooth="yes"/>
      <point x="289" y="-10"/>
      <point x="330" y="3"/>
      <point x="351" y="70" type="curve" smooth="yes"/>
      <point x="379" y="159"/>
      <point x="416" y="241"/>
      <point x="445" y="325" type="curve" smooth="yes"/>
      <point x="467" y="398"/>
      <point x="494" y="474"/>
      <point x="528" y="567" type="curve" smooth="yes"/>
      <point x="539" y="599"/>
      <point x="561" y="626"/>
      <point x="561" y="661" type="curve" smooth="yes"/>
      <point x="561" y="699"/>
      <point x="525" y="730"/>
      <point x="496" y="730" type="curve" smooth="yes"/>
      <point x="448" y="730"/>
      <point x="412" y="708"/>
      <point x="408" y="676" type="curve" smooth="yes"/>
      <point x="401" y="614"/>
      <point x="347" y="408"/>
      <point x="283" y="240" type="curve"/>
      <point x="205" y="534"/>
      <point x="143" y="705"/>
    </contour>
  </outline>
</glyph>
<glyph name="W" format="1">
  <advance width="873"/>
  <unicode hex="0057"/>
  <outline>
    <contour>
      <point x="424" y="705" type="move" name="top"/>
    </contour>
    <contour>
      <point x="87" y="728" type="curve" smooth="yes"/>
      <point x="46" y="728"/>
      <point x="12" y="673"/>
      <point x="12" y="627" type="curve" smooth="yes"/>
      <point x="12" y="595"/>
      <point x="32" y="561"/>
      <point x="50" y="536" type="curve" smooth="yes"/>
      <point x="65" y="515"/>
      <point x="95" y="341"/>
      <point x="106" y="224" type="curve" smooth="yes"/>
      <point x="110" y="186"/>
      <point x="109" y="149"/>
      <point x="109" y="68" type="curve" smooth="yes"/>
      <point x="109" y="27"/>
      <point x="144" y="-20"/>
      <point x="187" y="-20" type="curve" smooth="yes"/>
      <point x="229" y="-20"/>
      <point x="277" y="23"/>
      <point x="277" y="52" type="curve" smooth="yes"/>
      <point x="277" y="83"/>
      <point x="416" y="370"/>
      <point x="430" y="370" type="curve" smooth="yes"/>
      <point x="438" y="370"/>
      <point x="445" y="309"/>
      <point x="450" y="288" type="curve"/>
      <point x="481" y="164"/>
      <point x="533" y="23"/>
      <point x="650" y="23" type="curve" smooth="yes"/>
      <point x="800" y="23"/>
      <point x="808" y="295"/>
      <point x="808" y="350" type="curve" smooth="yes"/>
      <point x="808" y="385"/>
      <point x="797" y="620"/>
      <point x="783" y="652" type="curve" smooth="yes"/>
      <point x="776" y="670"/>
      <point x="761" y="710"/>
      <point x="711" y="710" type="curve" smooth="yes"/>
      <point x="667" y="710"/>
      <point x="636" y="683"/>
      <point x="636" y="646" type="curve" smooth="yes"/>
      <point x="636" y="621"/>
      <point x="659" y="596"/>
      <point x="659" y="588" type="curve" smooth="yes"/>
      <point x="659" y="579"/>
      <point x="661" y="571"/>
      <point x="664" y="547" type="curve" smooth="yes"/>
      <point x="671" y="491"/>
      <point x="682" y="396"/>
      <point x="682" y="351" type="curve" smooth="yes"/>
      <point x="682" y="213"/>
      <point x="663" y="166"/>
      <point x="648" y="166" type="curve" smooth="yes"/>
      <point x="629" y="166"/>
      <point x="598" y="203"/>
      <point x="579" y="288" type="curve" smooth="yes"/>
      <point x="542" y="451"/>
      <point x="499" y="534"/>
      <point x="443" y="534" type="curve" smooth="yes"/>
      <point x="368" y="534"/>
      <point x="285" y="368"/>
      <point x="267" y="332" type="curve" smooth="yes"/>
      <point x="257" y="313"/>
      <point x="238" y="264"/>
      <point x="231" y="245" type="curve"/>
      <point x="220" y="359"/>
      <point x="190" y="504"/>
      <point x="172" y="595" type="curve" smooth="yes"/>
      <point x="168" y="617"/>
      <point x="173" y="638"/>
      <point x="168" y="659" type="curve"/>
      <point x="161" y="691"/>
      <point x="136" y="728"/>
    </contour>
  </outline>
</glyph>
<glyph name="X" format="1">
  <advance width="573"/>
  <unicode hex="0058"/>
  <outline>
    <contour>
      <point x="112" y="716" type="curve" smooth="yes"/>
      <point x="71" y="716"/>
      <point x="40" y="670"/>
      <point x="40" y="639" type="curve" smooth="yes"/>
      <point x="40" y="593"/>
      <point x="75" y="568"/>
      <point x="96" y="534" type="curve" smooth="yes"/>
      <point x="119" y="497"/>
      <point x="170" y="414"/>
      <point x="203" y="366" type="curve"/>
      <point x="179" y="332"/>
      <point x="157" y="301"/>
      <point x="135" y="269" type="curve" smooth="yes"/>
      <point x="58" y="154"/>
      <point x="23" y="96"/>
      <point x="23" y="68" type="curve" smooth="yes"/>
      <point x="23" y="14"/>
      <point x="67" y="-11"/>
      <point x="97" y="-11" type="curve" smooth="yes"/>
      <point x="133" y="-11"/>
      <point x="159" y="33"/>
      <point x="167" y="77" type="curve" smooth="yes"/>
      <point x="170" y="91"/>
      <point x="211" y="160"/>
      <point x="278" y="264" type="curve"/>
      <point x="289" y="251"/>
      <point x="300" y="237"/>
      <point x="329" y="199" type="curve" smooth="yes"/>
      <point x="364" y="154"/>
      <point x="407" y="99"/>
      <point x="414" y="87" type="curve"/>
      <point x="424" y="58"/>
      <point x="454" y="12"/>
      <point x="501" y="12" type="curve" smooth="yes"/>
      <point x="537" y="12"/>
      <point x="574" y="32"/>
      <point x="574" y="72" type="curve" smooth="yes"/>
      <point x="574" y="130"/>
      <point x="532" y="148"/>
      <point x="499" y="181" type="curve" smooth="yes"/>
      <point x="484" y="195"/>
      <point x="426" y="269"/>
      <point x="351" y="374" type="curve"/>
      <point x="353" y="377"/>
      <point x="372" y="405"/>
      <point x="374" y="408" type="curve" smooth="yes"/>
      <point x="418" y="478"/>
      <point x="454" y="547"/>
      <point x="494" y="594" type="curve" smooth="yes"/>
      <point x="510" y="612"/>
      <point x="532" y="619"/>
      <point x="532" y="648" type="curve" smooth="yes"/>
      <point x="532" y="673"/>
      <point x="512" y="744"/>
      <point x="451" y="744" type="curve" smooth="yes"/>
      <point x="395" y="744"/>
      <point x="368" y="633"/>
      <point x="349" y="595" type="curve" smooth="yes"/>
      <point x="328" y="557"/>
      <point x="306" y="519"/>
      <point x="280" y="480" type="curve"/>
      <point x="230" y="555"/>
      <point x="200" y="615"/>
      <point x="194" y="638" type="curve" smooth="yes"/>
      <point x="185" y="671"/>
      <point x="152" y="716"/>
    </contour>
  </outline>
</glyph>
<glyph name="Y" format="1">
  <advance width="492"/>
  <unicode hex="0059"/>
  <outline>
    <contour>
      <point x="236" y="773" type="move" name="top"/>
    </contour>
    <contour>
      <point x="48" y="740" type="curve" smooth="yes"/>
      <point x="7" y="740"/>
      <point x="-16" y="694"/>
      <point x="-16" y="662" type="curve" smooth="yes"/>
      <point x="-16" y="650"/>
      <point x="-12" y="639"/>
      <point x="121" y="447" type="curve" smooth="yes"/>
      <point x="169" y="378"/>
      <point x="186" y="323"/>
      <point x="215" y="297" type="curve"/>
      <point x="159" y="158"/>
      <point x="131" y="87"/>
      <point x="131" y="60" type="curve" smooth="yes"/>
      <point x="131" y="11"/>
      <point x="177" y="-17"/>
      <point x="201" y="-17" type="curve" smooth="yes"/>
      <point x="234" y="-17"/>
      <point x="268" y="3"/>
      <point x="271" y="48" type="curve" smooth="yes"/>
      <point x="276" y="116"/>
      <point x="297" y="163"/>
      <point x="318" y="213" type="curve" smooth="yes"/>
      <point x="331" y="243"/>
      <point x="339" y="261"/>
      <point x="346" y="279" type="curve"/>
      <point x="361" y="290"/>
      <point x="369" y="305"/>
      <point x="369" y="319" type="curve" smooth="yes"/>
      <point x="369" y="324"/>
      <point x="369" y="328"/>
      <point x="367" y="333" type="curve"/>
      <point x="413" y="445"/>
      <point x="459" y="568"/>
      <point x="463" y="585" type="curve" smooth="yes"/>
      <point x="473" y="616"/>
      <point x="492" y="641"/>
      <point x="492" y="674" type="curve" smooth="yes"/>
      <point x="492" y="710"/>
      <point x="463" y="740"/>
      <point x="424" y="740" type="curve"/>
      <point x="381" y="740"/>
      <point x="345" y="710"/>
      <point x="345" y="679" type="curve" smooth="yes"/>
      <point x="345" y="663"/>
      <point x="344" y="646"/>
      <point x="342" y="634" type="curve" smooth="yes"/>
      <point x="337" y="596"/>
      <point x="299" y="500"/>
      <point x="274" y="439" type="curve"/>
      <point x="210" y="519"/>
      <point x="137" y="636"/>
      <point x="134" y="656" type="curve" smooth="yes"/>
      <point x="129" y="690"/>
      <point x="96" y="740"/>
    </contour>
  </outline>
</glyph>
<glyph name="Z" format="1">
  <advance width="654"/>
  <unicode hex="005A"/>
  <outline>
    <contour>
      <point x="332" y="754" type="move" name="top"/>
    </contour>
    <contour>
      <point x="41" y="639" type="curve" smooth="yes"/>
      <point x="41" y="606"/>
      <point x="85" y="556"/>
      <point x="121" y="556" type="curve" smooth="yes"/>
      <point x="147" y="556"/>
      <point x="158" y="573"/>
      <point x="177" y="583" type="curve" smooth="yes"/>
      <point x="198" y="594"/>
      <point x="339" y="607"/>
      <point x="405" y="607" type="curve" smooth="yes"/>
      <point x="411" y="607"/>
      <point x="416" y="607"/>
      <point x="428" y="606" type="curve"/>
      <point x="373" y="535"/>
      <point x="326" y="470"/>
      <point x="276" y="410" type="curve"/>
      <point x="239" y="367"/>
      <point x="11" y="86"/>
      <point x="11" y="66" type="curve" smooth="yes"/>
      <point x="11" y="37"/>
      <point x="43" y="-20"/>
      <point x="86" y="-20" type="curve" smooth="yes"/>
      <point x="101" y="-20"/>
      <point x="116" y="-14"/>
      <point x="129" y="-2" type="curve"/>
      <point x="173" y="-2"/>
      <point x="206" y="-3"/>
      <point x="238" y="-3" type="curve" smooth="yes"/>
      <point x="276" y="-3"/>
      <point x="354" y="-4"/>
      <point x="570" y="-4" type="curve" smooth="yes"/>
      <point x="605" y="-4"/>
      <point x="643" y="20"/>
      <point x="643" y="55" type="curve" smooth="yes"/>
      <point x="643" y="95"/>
      <point x="612" y="136"/>
      <point x="564" y="136" type="curve" smooth="yes"/>
      <point x="539" y="136"/>
      <point x="519" y="122"/>
      <point x="497" y="122" type="curve" smooth="yes"/>
      <point x="433" y="122"/>
      <point x="418" y="121"/>
      <point x="404" y="121" type="curve" smooth="yes"/>
      <point x="334" y="120"/>
      <point x="272" y="120"/>
      <point x="210" y="120" type="curve"/>
      <point x="212" y="123"/>
      <point x="215" y="127"/>
      <point x="217" y="130" type="curve" smooth="yes"/>
      <point x="262" y="197"/>
      <point x="311" y="256"/>
      <point x="358" y="317" type="curve" smooth="yes"/>
      <point x="399" y="374"/>
      <point x="544" y="551"/>
      <point x="565" y="572" type="curve"/>
      <point x="580" y="580"/>
      <point x="617" y="607"/>
      <point x="624" y="633" type="curve"/>
      <point x="626" y="639"/>
      <point x="629" y="648"/>
      <point x="629" y="657" type="curve" smooth="yes"/>
      <point x="629" y="703"/>
      <point x="598" y="732"/>
      <point x="548" y="732" type="curve" smooth="yes"/>
      <point x="536" y="732"/>
      <point x="517" y="731"/>
      <point x="462" y="728" type="curve"/>
      <point x="375" y="722"/>
      <point x="261" y="715"/>
      <point x="144" y="715" type="curve" smooth="yes"/>
      <point x="105" y="715"/>
      <point x="41" y="694"/>
    </contour>
  </outline>
</glyph>
<glyph name="bracketleft" format="1">
  <advance width="438"/>
  <unicode hex="005B"/>
  <outline>
    <contour>
      <point x="160" y="741" type="curve" smooth="yes"/>
      <point x="132" y="741"/>
      <point x="92" y="693"/>
      <point x="92" y="672" type="curve" smooth="yes"/>
      <point x="92" y="663"/>
      <point x="92" y="648"/>
      <point x="103" y="635" type="curve"/>
      <point x="103" y="622" type="line" smooth="yes"/>
      <point x="103" y="586"/>
      <point x="98" y="500"/>
      <point x="96" y="362" type="curve" smooth="yes"/>
      <point x="94" y="218"/>
      <point x="28" y="-11"/>
      <point x="28" y="-78" type="curve" smooth="yes"/>
      <point x="28" y="-108"/>
      <point x="58" y="-152"/>
      <point x="88" y="-152" type="curve" smooth="yes"/>
      <point x="132" y="-152"/>
      <point x="168" y="-132"/>
      <point x="207" y="-132" type="curve" smooth="yes"/>
      <point x="244" y="-132"/>
      <point x="269" y="-141"/>
      <point x="303" y="-141" type="curve" smooth="yes"/>
      <point x="320" y="-141"/>
      <point x="355" y="-114"/>
      <point x="355" y="-96" type="curve" smooth="yes"/>
      <point x="355" y="-74"/>
      <point x="340" y="-17"/>
      <point x="291" y="-17" type="curve" smooth="yes"/>
      <point x="245" y="-17"/>
      <point x="203" y="-27"/>
      <point x="162" y="-27" type="curve"/>
      <point x="165" y="8"/>
      <point x="173" y="87"/>
      <point x="188" y="178" type="curve" smooth="yes"/>
      <point x="203" y="268"/>
      <point x="217" y="478"/>
      <point x="228" y="580" type="curve" smooth="yes"/>
      <point x="229" y="591"/>
      <point x="232" y="600"/>
      <point x="234" y="608" type="curve"/>
      <point x="267" y="604"/>
      <point x="298" y="594"/>
      <point x="329" y="594" type="curve" smooth="yes"/>
      <point x="358" y="594"/>
      <point x="378" y="618"/>
      <point x="378" y="651" type="curve" smooth="yes"/>
      <point x="378" y="698"/>
      <point x="338" y="720"/>
      <point x="313" y="720" type="curve" smooth="yes"/>
      <point x="288" y="720"/>
      <point x="278" y="715"/>
      <point x="258" y="715" type="curve" smooth="yes"/>
      <point x="223" y="715"/>
      <point x="194" y="741"/>
    </contour>
  </outline>
</glyph>
<glyph name="backslash" format="1">
  <advance width="451"/>
  <unicode hex="005C"/>
  <outline>
    <contour>
      <point x="373" y="-129" type="curve" smooth="yes"/>
      <point x="407" y="-129"/>
      <point x="439" y="-107"/>
      <point x="439" y="-64" type="curve" smooth="yes"/>
      <point x="439" y="-48"/>
      <point x="409" y="-6"/>
      <point x="403" y="19" type="curve" smooth="yes"/>
      <point x="399" y="35"/>
      <point x="239" y="455"/>
      <point x="204" y="539" type="curve" smooth="yes"/>
      <point x="178" y="595"/>
      <point x="162" y="727"/>
      <point x="81" y="727" type="curve" smooth="yes"/>
      <point x="39" y="727"/>
      <point x="19" y="677"/>
      <point x="19" y="656" type="curve" smooth="yes"/>
      <point x="19" y="619"/>
      <point x="37" y="602"/>
      <point x="43" y="595" type="curve" smooth="yes"/>
      <point x="72" y="560"/>
      <point x="79" y="545"/>
      <point x="160" y="346" type="curve" smooth="yes"/>
      <point x="208" y="222"/>
      <point x="249" y="104"/>
      <point x="293" y="-23" type="curve" smooth="yes"/>
      <point x="311" y="-74"/>
      <point x="308" y="-129"/>
    </contour>
  </outline>
</glyph>
<glyph name="bracketright" format="1">
  <advance width="436"/>
  <unicode hex="005D"/>
  <outline>
    <contour>
      <point x="134" y="724" type="curve" smooth="yes"/>
      <point x="99" y="724"/>
      <point x="78" y="695"/>
      <point x="78" y="660" type="curve" smooth="yes"/>
      <point x="78" y="631"/>
      <point x="111" y="597"/>
      <point x="144" y="597" type="curve" smooth="yes"/>
      <point x="175" y="597"/>
      <point x="203" y="613"/>
      <point x="233" y="613" type="curve" smooth="yes"/>
      <point x="256" y="613" type="line"/>
      <point x="252" y="602"/>
      <point x="250" y="588"/>
      <point x="250" y="578" type="curve" smooth="yes"/>
      <point x="250" y="551"/>
      <point x="253" y="530"/>
      <point x="235" y="349" type="curve" smooth="yes"/>
      <point x="212" y="114"/>
      <point x="208" y="74"/>
      <point x="205" y="58" type="curve" smooth="yes"/>
      <point x="197" y="10"/>
      <point x="191" y="-17"/>
      <point x="187" y="-33" type="curve"/>
      <point x="129" y="-30"/>
      <point x="94" y="-18"/>
      <point x="70" y="-27" type="curve" smooth="yes"/>
      <point x="41" y="-38"/>
      <point x="23" y="-51"/>
      <point x="23" y="-83" type="curve" smooth="yes"/>
      <point x="23" y="-109"/>
      <point x="50" y="-140"/>
      <point x="90" y="-140" type="curve" smooth="yes"/>
      <point x="236" y="-140"/>
      <point x="199" y="-151"/>
      <point x="251" y="-151" type="curve" smooth="yes"/>
      <point x="288" y="-151"/>
      <point x="313" y="-122"/>
      <point x="313" y="-77" type="curve" smooth="yes"/>
      <point x="313" y="-63"/>
      <point x="317" y="-4"/>
      <point x="321" y="46" type="curve" smooth="yes"/>
      <point x="322" y="60"/>
      <point x="331" y="164"/>
      <point x="347" y="346" type="curve" smooth="yes"/>
      <point x="353" y="412"/>
      <point x="364" y="474"/>
      <point x="372" y="534" type="curve" smooth="yes"/>
      <point x="376" y="565"/>
      <point x="379" y="595"/>
      <point x="379" y="626" type="curve" smooth="yes"/>
      <point x="379" y="628"/>
      <point x="378" y="634"/>
      <point x="375" y="637" type="curve"/>
      <point x="379" y="642"/>
      <point x="381" y="650"/>
      <point x="381" y="654" type="curve" smooth="yes"/>
      <point x="381" y="716"/>
      <point x="350" y="739"/>
      <point x="316" y="739" type="curve" smooth="yes"/>
      <point x="283" y="739"/>
      <point x="255" y="719"/>
      <point x="223" y="719" type="curve" smooth="yes"/>
      <point x="178" y="719"/>
      <point x="161" y="724"/>
    </contour>
  </outline>
</glyph>
<glyph name="asciicircum" format="1">
  <advance width="538"/>
  <unicode hex="005E"/>
  <outline>
    <contour>
      <point x="283" y="691" type="curve" smooth="yes"/>
      <point x="279" y="691"/>
      <point x="278" y="690"/>
      <point x="276" y="689" type="curve"/>
      <point x="275" y="691"/>
      <point x="274" y="694"/>
      <point x="274" y="696" type="curve" smooth="yes"/>
      <point x="273" y="715"/>
      <point x="248" y="738"/>
      <point x="215" y="738" type="curve" smooth="yes"/>
      <point x="184" y="738"/>
      <point x="166" y="697"/>
      <point x="147" y="634" type="curve" smooth="yes"/>
      <point x="138" y="607"/>
      <point x="68" y="483"/>
      <point x="61" y="473" type="curve" smooth="yes"/>
      <point x="50" y="458"/>
      <point x="38" y="441"/>
      <point x="38" y="413" type="curve" smooth="yes"/>
      <point x="38" y="382"/>
      <point x="59" y="348"/>
      <point x="107" y="348" type="curve" smooth="yes"/>
      <point x="140" y="348"/>
      <point x="161" y="380"/>
      <point x="177" y="433" type="curve" smooth="yes"/>
      <point x="180" y="442"/>
      <point x="195" y="485"/>
      <point x="201" y="493" type="curve" smooth="yes"/>
      <point x="214" y="511"/>
      <point x="226" y="547"/>
      <point x="237" y="566" type="curve"/>
      <point x="259" y="531"/>
      <point x="292" y="485"/>
      <point x="313" y="453" type="curve" smooth="yes"/>
      <point x="344" y="412"/>
      <point x="379" y="360"/>
      <point x="433" y="360" type="curve" smooth="yes"/>
      <point x="483" y="360"/>
      <point x="502" y="392"/>
      <point x="502" y="421" type="curve" smooth="yes"/>
      <point x="502" y="446"/>
      <point x="477" y="472"/>
      <point x="458" y="472" type="curve" smooth="yes"/>
      <point x="457" y="472"/>
      <point x="453" y="474"/>
      <point x="438" y="482" type="curve"/>
      <point x="426" y="493"/>
      <point x="356" y="566"/>
      <point x="331" y="620" type="curve" smooth="yes"/>
      <point x="327" y="633"/>
      <point x="321" y="643"/>
      <point x="317" y="655" type="curve" smooth="yes"/>
      <point x="313" y="669"/>
      <point x="300" y="691"/>
    </contour>
  </outline>
</glyph>
<glyph name="underscore" format="1">
  <advance width="513"/>
  <unicode hex="005F"/>
  <outline>
    <contour>
      <point x="513" y="-185" type="curve" smooth="yes"/>
      <point x="513" y="-159"/>
      <point x="501" y="-128"/>
      <point x="447" y="-128" type="curve" smooth="yes"/>
      <point x="408" y="-128"/>
      <point x="369" y="-130"/>
      <point x="313" y="-130" type="curve" smooth="yes"/>
      <point x="293" y="-130"/>
      <point x="165" y="-131"/>
      <point x="70" y="-137" type="curve" smooth="yes"/>
      <point x="6" y="-141"/>
      <point x="0" y="-179"/>
      <point x="0" y="-194" type="curve" smooth="yes"/>
      <point x="0" y="-237"/>
      <point x="37" y="-264"/>
      <point x="64" y="-264" type="curve" smooth="yes"/>
      <point x="103" y="-264"/>
      <point x="108" y="-252"/>
      <point x="336" y="-252" type="curve" smooth="yes"/>
      <point x="375" y="-252"/>
      <point x="413" y="-262"/>
      <point x="453" y="-262" type="curve" smooth="yes"/>
      <point x="482" y="-262"/>
      <point x="513" y="-221"/>
    </contour>
  </outline>
</glyph>
<glyph name="grave" format="1">
  <advance width="400"/>
  <unicode hex="0060"/>
  <outline>
    <contour>
      <point x="242" y="528" type="move" name="_top"/>
    </contour>
    <contour>
      <point x="80" y="710" type="curve" smooth="yes"/>
      <point x="82" y="679"/>
      <point x="112" y="672"/>
      <point x="132" y="657" type="curve" smooth="yes"/>
      <point x="157" y="638"/>
      <point x="211" y="548"/>
      <point x="256" y="548" type="curve" smooth="yes"/>
      <point x="298" y="548"/>
      <point x="316" y="582"/>
      <point x="316" y="598" type="curve" smooth="yes"/>
      <point x="316" y="627"/>
      <point x="268" y="669"/>
      <point x="250" y="689" type="curve" smooth="yes"/>
      <point x="229" y="712"/>
      <point x="212" y="733"/>
      <point x="199" y="756" type="curve" smooth="yes"/>
      <point x="191" y="773"/>
      <point x="169" y="786"/>
      <point x="142" y="786" type="curve" smooth="yes"/>
      <point x="104" y="786"/>
      <point x="80" y="746"/>
    </contour>
  </outline>
</glyph>
<glyph name="b" format="1">
  <advance width="559"/>
  <unicode hex="0062"/>
  <outline>
    <contour>
      <point x="239" y="-9" type="curve" smooth="yes"/>
      <point x="463" y="-9"/>
      <point x="535" y="181"/>
      <point x="535" y="275" type="curve" smooth="yes"/>
      <point x="535" y="390"/>
      <point x="457" y="483"/>
      <point x="361" y="483" type="curve" smooth="yes"/>
      <point x="303" y="483"/>
      <point x="245" y="455"/>
      <point x="202" y="407" type="curve"/>
      <point x="208" y="498"/>
      <point x="211" y="606"/>
      <point x="211" y="630" type="curve" smooth="yes"/>
      <point x="211" y="673"/>
      <point x="174" y="727"/>
      <point x="130" y="727" type="curve" smooth="yes"/>
      <point x="98" y="727"/>
      <point x="59" y="683"/>
      <point x="59" y="657" type="curve" smooth="yes"/>
      <point x="59" y="637"/>
      <point x="76" y="623"/>
      <point x="76" y="606" type="curve" smooth="yes"/>
      <point x="76" y="416"/>
      <point x="68" y="245"/>
      <point x="47" y="126" type="curve" smooth="yes"/>
      <point x="47" y="123"/>
      <point x="46" y="121"/>
      <point x="45" y="117" type="curve" smooth="yes"/>
      <point x="36" y="92"/>
      <point x="27" y="73"/>
      <point x="27" y="56" type="curve" smooth="yes"/>
      <point x="27" y="-10"/>
      <point x="70" y="-18"/>
      <point x="88" y="-18" type="curve" smooth="yes"/>
      <point x="109" y="-18"/>
      <point x="125" y="-11"/>
      <point x="135" y="0" type="curve"/>
      <point x="168" y="-6"/>
      <point x="209" y="-9"/>
    </contour>
    <contour>
      <point x="355" y="367" type="curve" smooth="yes"/>
      <point x="385" y="367"/>
      <point x="415" y="326"/>
      <point x="415" y="272" type="curve" smooth="yes"/>
      <point x="415" y="212"/>
      <point x="362" y="102"/>
      <point x="239" y="102" type="curve" smooth="yes"/>
      <point x="214" y="102"/>
      <point x="193" y="104"/>
      <point x="177" y="108" type="curve"/>
      <point x="190" y="172"/>
      <point x="240" y="367"/>
    </contour>
  </outline>
</glyph>
<glyph name="c" format="1">
  <advance width="475"/>
  <unicode hex="0063"/>
  <outline>
    <contour>
      <point x="293" y="528" type="move" name="top"/>
    </contour>
    <contour>
      <point x="351" y="489" type="curve" smooth="yes"/>
      <point x="194" y="489"/>
      <point x="27" y="380"/>
      <point x="27" y="179" type="curve" smooth="yes"/>
      <point x="27" y="53"/>
      <point x="104" y="-17"/>
      <point x="242" y="-17" type="curve" smooth="yes"/>
      <point x="291" y="-17"/>
      <point x="340" y="-6"/>
      <point x="395" y="-6" type="curve" smooth="yes"/>
      <point x="433" y="-6"/>
      <point x="456" y="25"/>
      <point x="456" y="55" type="curve" smooth="yes"/>
      <point x="456" y="85"/>
      <point x="439" y="126"/>
      <point x="401" y="126" type="curve" smooth="yes"/>
      <point x="377" y="126"/>
      <point x="355" y="114"/>
      <point x="333" y="104" type="curve" smooth="yes"/>
      <point x="320" y="97"/>
      <point x="275" y="94"/>
      <point x="250" y="94" type="curve" smooth="yes"/>
      <point x="166" y="94"/>
      <point x="153" y="144"/>
      <point x="153" y="174" type="curve" smooth="yes"/>
      <point x="153" y="265"/>
      <point x="210" y="364"/>
      <point x="304" y="364" type="curve" smooth="yes"/>
      <point x="321" y="364"/>
      <point x="336" y="349"/>
      <point x="356" y="349" type="curve" smooth="yes"/>
      <point x="390" y="349"/>
      <point x="428" y="384"/>
      <point x="428" y="414" type="curve" smooth="yes"/>
      <point x="428" y="460"/>
      <point x="400" y="489"/>
    </contour>
  </outline>
</glyph>
<glyph name="d" format="1">
  <advance width="582"/>
  <unicode hex="0064"/>
  <outline>
    <contour>
      <point x="468" y="-13" type="curve" smooth="yes"/>
      <point x="482" y="-13"/>
      <point x="526" y="-8"/>
      <point x="526" y="63" type="curve" smooth="yes"/>
      <point x="526" y="77"/>
      <point x="525" y="103"/>
      <point x="523" y="129" type="curve" smooth="yes"/>
      <point x="519" y="193"/>
      <point x="518" y="248"/>
      <point x="518" y="302" type="curve" smooth="yes"/>
      <point x="518" y="329"/>
      <point x="518" y="342"/>
      <point x="519" y="356" type="curve" smooth="yes"/>
      <point x="526" y="441"/>
      <point x="535" y="569"/>
      <point x="535" y="621" type="curve" smooth="yes"/>
      <point x="535" y="702"/>
      <point x="494" y="731"/>
      <point x="457" y="731" type="curve" smooth="yes"/>
      <point x="410" y="731"/>
      <point x="376" y="679"/>
      <point x="397" y="639" type="curve" smooth="yes"/>
      <point x="399" y="636"/>
      <point x="403" y="625"/>
      <point x="403" y="573" type="curve" smooth="yes"/>
      <point x="403" y="532"/>
      <point x="402" y="484"/>
      <point x="401" y="461" type="curve" smooth="yes"/>
      <point x="401" y="461"/>
      <point x="400" y="352"/>
      <point x="393" y="304" type="curve" smooth="yes"/>
      <point x="374" y="179"/>
      <point x="273" y="97"/>
      <point x="207" y="97" type="curve" smooth="yes"/>
      <point x="178" y="97"/>
      <point x="146" y="127"/>
      <point x="146" y="180" type="curve" smooth="yes"/>
      <point x="146" y="292"/>
      <point x="212" y="375"/>
      <point x="259" y="375" type="curve" smooth="yes"/>
      <point x="275" y="375"/>
      <point x="290" y="363"/>
      <point x="290" y="354" type="curve" smooth="yes"/>
      <point x="290" y="328"/>
      <point x="304" y="314"/>
      <point x="330" y="314" type="curve" smooth="yes"/>
      <point x="358" y="314"/>
      <point x="394" y="347"/>
      <point x="394" y="378" type="curve" smooth="yes"/>
      <point x="394" y="447"/>
      <point x="327" y="491"/>
      <point x="270" y="491" type="curve" smooth="yes"/>
      <point x="126" y="491"/>
      <point x="27" y="329"/>
      <point x="27" y="184" type="curve" smooth="yes"/>
      <point x="27" y="44"/>
      <point x="109" y="-20"/>
      <point x="192" y="-20" type="curve" smooth="yes"/>
      <point x="272" y="-20"/>
      <point x="342" y="17"/>
      <point x="399" y="96" type="curve"/>
      <point x="399" y="92"/>
      <point x="398" y="67"/>
      <point x="398" y="61" type="curve" smooth="yes"/>
      <point x="398" y="21"/>
      <point x="406" y="-13"/>
    </contour>
  </outline>
</glyph>
<glyph name="e" format="1">
  <advance width="507"/>
  <unicode hex="0065"/>
  <outline>
    <contour>
      <point x="282" y="522" type="move" name="top"/>
    </contour>
    <contour>
      <point x="317" y="483" type="curve" smooth="yes"/>
      <point x="127" y="483"/>
      <point x="26" y="347"/>
      <point x="26" y="216" type="curve" smooth="yes"/>
      <point x="26" y="129"/>
      <point x="62" y="-18"/>
      <point x="305" y="-18" type="curve" smooth="yes"/>
      <point x="349" y="-18"/>
      <point x="465" y="-18"/>
      <point x="465" y="55" type="curve" smooth="yes"/>
      <point x="465" y="107"/>
      <point x="436" y="119"/>
      <point x="409" y="119" type="curve" smooth="yes"/>
      <point x="393" y="119"/>
      <point x="381" y="113"/>
      <point x="370" y="106" type="curve" smooth="yes"/>
      <point x="357" y="98"/>
      <point x="342" y="88"/>
      <point x="294" y="88" type="curve" smooth="yes"/>
      <point x="209" y="88"/>
      <point x="149" y="113"/>
      <point x="149" y="225" type="curve" smooth="yes"/>
      <point x="149" y="337"/>
      <point x="240" y="380"/>
      <point x="307" y="380" type="curve" smooth="yes"/>
      <point x="355" y="380"/>
      <point x="370" y="359"/>
      <point x="370" y="339" type="curve" smooth="yes"/>
      <point x="370" y="296"/>
      <point x="324" y="274"/>
      <point x="209" y="274" type="curve" smooth="yes"/>
      <point x="196" y="274"/>
      <point x="164" y="265"/>
      <point x="164" y="231" type="curve" smooth="yes"/>
      <point x="164" y="178"/>
      <point x="211" y="166"/>
      <point x="226" y="166" type="curve" smooth="yes"/>
      <point x="255" y="166"/>
      <point x="266" y="175"/>
      <point x="290" y="177" type="curve" smooth="yes"/>
      <point x="395" y="187"/>
      <point x="486" y="232"/>
      <point x="486" y="329" type="curve" smooth="yes"/>
      <point x="486" y="422"/>
      <point x="399" y="483"/>
    </contour>
  </outline>
</glyph>
<glyph name="f" format="1">
  <advance width="385"/>
  <unicode hex="0066"/>
  <outline>
    <contour>
      <point x="63" y="476" type="curve" smooth="yes"/>
      <point x="32" y="476"/>
      <point x="6" y="443"/>
      <point x="6" y="415" type="curve" smooth="yes"/>
      <point x="6" y="397"/>
      <point x="22" y="352"/>
      <point x="61" y="352" type="curve" smooth="yes"/>
      <point x="76" y="352"/>
      <point x="82" y="354"/>
      <point x="95" y="355" type="curve" smooth="yes"/>
      <point x="111" y="356"/>
      <point x="113" y="356"/>
      <point x="113" y="356" type="curve"/>
      <point x="110" y="335"/>
      <point x="109" y="312"/>
      <point x="108" y="293" type="curve" smooth="yes"/>
      <point x="104" y="185"/>
      <point x="93" y="140"/>
      <point x="85" y="106" type="curve" smooth="yes"/>
      <point x="81" y="90"/>
      <point x="79" y="77"/>
      <point x="79" y="57" type="curve" smooth="yes"/>
      <point x="79" y="25"/>
      <point x="99" y="-13"/>
      <point x="158" y="-13" type="curve" smooth="yes"/>
      <point x="180" y="-13"/>
      <point x="225" y="-13"/>
      <point x="225" y="59" type="curve" smooth="yes"/>
      <point x="225" y="156"/>
      <point x="226" y="265"/>
      <point x="238" y="362" type="curve"/>
      <point x="264" y="363"/>
      <point x="301" y="360"/>
      <point x="344" y="360" type="curve" smooth="yes"/>
      <point x="364" y="360"/>
      <point x="405" y="360"/>
      <point x="405" y="409" type="curve" smooth="yes"/>
      <point x="405" y="442"/>
      <point x="388" y="479"/>
      <point x="351" y="479" type="curve" smooth="yes"/>
      <point x="330" y="479"/>
      <point x="309" y="477"/>
      <point x="285" y="474" type="curve" smooth="yes"/>
      <point x="275" y="473"/>
      <point x="266" y="472"/>
      <point x="255" y="472" type="curve"/>
      <point x="277" y="570"/>
      <point x="311" y="620"/>
      <point x="357" y="620" type="curve" smooth="yes"/>
      <point x="358" y="620"/>
      <point x="375" y="618"/>
      <point x="375" y="607" type="curve" smooth="yes"/>
      <point x="375" y="589"/>
      <point x="361" y="570"/>
      <point x="361" y="556" type="curve" smooth="yes"/>
      <point x="361" y="520"/>
      <point x="403" y="516"/>
      <point x="421" y="516" type="curve" smooth="yes"/>
      <point x="499" y="516"/>
      <point x="497" y="576"/>
      <point x="497" y="626" type="curve" smooth="yes"/>
      <point x="497" y="676"/>
      <point x="452" y="733"/>
      <point x="373" y="733" type="curve" smooth="yes"/>
      <point x="289" y="733"/>
      <point x="181" y="688"/>
      <point x="132" y="472" type="curve"/>
      <point x="126" y="473"/>
      <point x="118" y="473"/>
      <point x="110" y="474" type="curve" smooth="yes"/>
      <point x="96" y="475"/>
      <point x="83" y="476"/>
    </contour>
  </outline>
</glyph>
<glyph name="g" format="1">
  <advance width="532"/>
  <unicode hex="0067"/>
  <outline>
    <contour>
      <point x="294" y="518" type="move" name="top"/>
    </contour>
    <contour>
      <point x="305" y="479" type="curve" smooth="yes"/>
      <point x="123" y="479"/>
      <point x="27" y="299"/>
      <point x="27" y="170" type="curve" smooth="yes"/>
      <point x="27" y="35"/>
      <point x="116" y="-11"/>
      <point x="200" y="-11" type="curve" smooth="yes"/>
      <point x="238" y="-11"/>
      <point x="298" y="-1"/>
      <point x="344" y="34" type="curve"/>
      <point x="333" y="-68"/>
      <point x="305" y="-244"/>
      <point x="222" y="-244" type="curve" smooth="yes"/>
      <point x="202" y="-244"/>
      <point x="153" y="-226"/>
      <point x="143" y="-217" type="curve" smooth="yes"/>
      <point x="121" y="-202"/>
      <point x="118" y="-171"/>
      <point x="80" y="-171" type="curve" smooth="yes"/>
      <point x="39" y="-171"/>
      <point x="26" y="-233"/>
      <point x="26" y="-254" type="curve" smooth="yes"/>
      <point x="26" y="-294"/>
      <point x="64" y="-308"/>
      <point x="83" y="-317" type="curve" smooth="yes"/>
      <point x="130" y="-340"/>
      <point x="180" y="-361"/>
      <point x="229" y="-361" type="curve" smooth="yes"/>
      <point x="337" y="-361"/>
      <point x="392" y="-290"/>
      <point x="416" y="-208" type="curve" smooth="yes"/>
      <point x="458" y="-64"/>
      <point x="483" y="178"/>
      <point x="483" y="280" type="curve" smooth="yes"/>
      <point x="483" y="327"/>
      <point x="470" y="479"/>
    </contour>
    <contour>
      <point x="341" y="193" type="curve" smooth="yes"/>
      <point x="326" y="170"/>
      <point x="286" y="102"/>
      <point x="204" y="102" type="curve" smooth="yes"/>
      <point x="166" y="102"/>
      <point x="155" y="138"/>
      <point x="155" y="162" type="curve" smooth="yes"/>
      <point x="155" y="263"/>
      <point x="219" y="363"/>
      <point x="286" y="363" type="curve" smooth="yes"/>
      <point x="354" y="363"/>
      <point x="358" y="318"/>
      <point x="358" y="309" type="curve" smooth="yes"/>
      <point x="358" y="278"/>
      <point x="357" y="245"/>
      <point x="356" y="210" type="curve"/>
      <point x="350" y="207"/>
      <point x="345" y="199"/>
    </contour>
  </outline>
</glyph>
<glyph name="h" format="1">
  <advance width="570"/>
  <unicode hex="0068"/>
  <outline>
    <contour>
      <point x="127" y="765" type="move" name="top"/>
    </contour>
    <contour>
      <point x="142" y="730" type="curve" smooth="yes"/>
      <point x="117" y="730"/>
      <point x="61" y="706"/>
      <point x="61" y="666" type="curve" smooth="yes"/>
      <point x="61" y="649"/>
      <point x="71" y="634"/>
      <point x="71" y="616" type="curve" smooth="yes"/>
      <point x="71" y="575" type="line" smooth="yes"/>
      <point x="71" y="478"/>
      <point x="69" y="224"/>
      <point x="54" y="127" type="curve"/>
      <point x="50" y="104"/>
      <point x="41" y="82"/>
      <point x="41" y="55" type="curve" smooth="yes"/>
      <point x="41" y="10"/>
      <point x="77" y="-8"/>
      <point x="114" y="-8" type="curve" smooth="yes"/>
      <point x="163" y="-8"/>
      <point x="185" y="59"/>
      <point x="187" y="204" type="curve"/>
      <point x="198" y="258"/>
      <point x="245" y="366"/>
      <point x="323" y="366" type="curve" smooth="yes"/>
      <point x="371" y="366"/>
      <point x="401" y="305"/>
      <point x="401" y="203" type="curve" smooth="yes"/>
      <point x="401" y="159"/>
      <point x="395" y="134"/>
      <point x="391" y="111" type="curve" smooth="yes"/>
      <point x="388" y="95"/>
      <point x="385" y="77"/>
      <point x="385" y="54" type="curve" smooth="yes"/>
      <point x="385" y="22"/>
      <point x="422" y="-11"/>
      <point x="448" y="-11" type="curve" smooth="yes"/>
      <point x="484" y="-11"/>
      <point x="516" y="23"/>
      <point x="514" y="61" type="curve" smooth="yes"/>
      <point x="511" y="101"/>
      <point x="520" y="140"/>
      <point x="520" y="186" type="curve" smooth="yes"/>
      <point x="520" y="444"/>
      <point x="404" y="483"/>
      <point x="334" y="483" type="curve" smooth="yes"/>
      <point x="271" y="483"/>
      <point x="227" y="451"/>
      <point x="189" y="413" type="curve"/>
      <point x="193" y="491"/>
      <point x="204" y="628"/>
      <point x="208" y="660" type="curve"/>
      <point x="211" y="700"/>
      <point x="182" y="730"/>
    </contour>
  </outline>
</glyph>
<glyph name="i" format="1">
  <advance width="251"/>
  <unicode hex="0069"/>
  <outline>
    <contour>
      <point x="136" y="481" type="curve" smooth="yes"/>
      <point x="95" y="481"/>
      <point x="63" y="447"/>
      <point x="63" y="408" type="curve" smooth="yes"/>
      <point x="63" y="371"/>
      <point x="69" y="339"/>
      <point x="69" y="308" type="curve" smooth="yes"/>
      <point x="69" y="241"/>
      <point x="61" y="178"/>
      <point x="56" y="137" type="curve" smooth="yes"/>
      <point x="53" y="112"/>
      <point x="52" y="107"/>
      <point x="51" y="94" type="curve" smooth="yes"/>
      <point x="46" y="26"/>
      <point x="68" y="-9"/>
      <point x="136" y="-9" type="curve" smooth="yes"/>
      <point x="197" y="-9"/>
      <point x="207" y="23"/>
      <point x="209" y="40" type="curve" smooth="yes"/>
      <point x="212" y="67"/>
      <point x="198" y="72"/>
      <point x="189" y="77" type="curve" smooth="yes"/>
      <point x="175" y="85"/>
      <point x="174" y="106"/>
      <point x="174" y="114" type="curve" smooth="yes"/>
      <point x="174" y="160"/>
      <point x="182" y="236"/>
      <point x="191" y="320" type="curve" smooth="yes"/>
      <point x="196" y="374"/>
      <point x="199" y="408"/>
      <point x="199" y="418" type="curve" smooth="yes"/>
      <point x="199" y="447"/>
      <point x="171" y="481"/>
    </contour>
    <contour>
      <point x="135" y="710" type="curve" smooth="yes"/>
      <point x="107" y="710"/>
      <point x="72" y="677"/>
      <point x="72" y="642" type="curve" smooth="yes"/>
      <point x="72" y="601"/>
      <point x="97" y="556"/>
      <point x="139" y="556" type="curve" smooth="yes"/>
      <point x="191" y="556"/>
      <point x="214" y="596"/>
      <point x="214" y="624" type="curve" smooth="yes"/>
      <point x="214" y="661"/>
      <point x="175" y="710"/>
    </contour>
  </outline>
</glyph>
<glyph name="j" format="1">
  <advance width="251"/>
  <unicode hex="006A"/>
  <outline>
    <contour>
      <point x="121" y="478" type="curve" smooth="yes"/>
      <point x="91" y="478"/>
      <point x="43" y="448"/>
      <point x="43" y="404" type="curve" smooth="yes"/>
      <point x="43" y="384"/>
      <point x="49" y="356"/>
      <point x="55" y="344" type="curve" smooth="yes"/>
      <point x="62" y="331"/>
      <point x="73" y="211"/>
      <point x="73" y="-64" type="curve" smooth="yes"/>
      <point x="73" y="-150"/>
      <point x="48" y="-161"/>
      <point x="25" y="-161" type="curve" smooth="yes"/>
      <point x="-5" y="-161"/>
      <point x="-23" y="-151"/>
      <point x="-40" y="-141" type="curve" smooth="yes"/>
      <point x="-57" y="-131"/>
      <point x="-78" y="-117"/>
      <point x="-109" y="-117" type="curve" smooth="yes"/>
      <point x="-141" y="-117"/>
      <point x="-163" y="-145"/>
      <point x="-163" y="-184" type="curve" smooth="yes"/>
      <point x="-163" y="-217"/>
      <point x="-132" y="-248"/>
      <point x="-109" y="-250" type="curve" smooth="yes"/>
      <point x="-92" y="-251"/>
      <point x="-76" y="-255"/>
      <point x="-51" y="-261" type="curve" smooth="yes"/>
      <point x="-27" y="-266"/>
      <point x="2" y="-275"/>
      <point x="35" y="-275" type="curve" smooth="yes"/>
      <point x="84" y="-275"/>
      <point x="196" y="-256"/>
      <point x="196" y="-76" type="curve" smooth="yes"/>
      <point x="196" y="-40"/>
      <point x="194" y="-8"/>
      <point x="193" y="23" type="curve" smooth="yes"/>
      <point x="191" y="92"/>
      <point x="189" y="198"/>
      <point x="188" y="259" type="curve" smooth="yes"/>
      <point x="187" y="328"/>
      <point x="189" y="358"/>
      <point x="193" y="380" type="curve" smooth="yes"/>
      <point x="194" y="387"/>
      <point x="195" y="405"/>
      <point x="195" y="410" type="curve" smooth="yes"/>
      <point x="195" y="447"/>
      <point x="161" y="478"/>
    </contour>
    <contour>
      <point x="115" y="728" type="curve" smooth="yes"/>
      <point x="84" y="728"/>
      <point x="39" y="699"/>
      <point x="39" y="645" type="curve" smooth="yes"/>
      <point x="39" y="605"/>
      <point x="85" y="572"/>
      <point x="115" y="572" type="curve" smooth="yes"/>
      <point x="149" y="572"/>
      <point x="189" y="614"/>
      <point x="189" y="659" type="curve" smooth="yes"/>
      <point x="189" y="686"/>
      <point x="152" y="728"/>
    </contour>
  </outline>
</glyph>
<glyph name="k" format="1">
  <advance width="497"/>
  <unicode hex="006B"/>
  <outline>
    <contour>
      <point x="404" y="472" type="curve" smooth="yes"/>
      <point x="367" y="472"/>
      <point x="348" y="437"/>
      <point x="326" y="413" type="curve" smooth="yes"/>
      <point x="309" y="395"/>
      <point x="229" y="340"/>
      <point x="183" y="311" type="curve"/>
      <point x="183" y="323"/>
      <point x="184" y="336"/>
      <point x="184" y="348" type="curve" smooth="yes"/>
      <point x="186" y="472"/>
      <point x="187" y="610"/>
      <point x="187" y="631" type="curve" smooth="yes"/>
      <point x="187" y="702"/>
      <point x="156" y="717"/>
      <point x="129" y="717" type="curve" smooth="yes"/>
      <point x="90" y="717"/>
      <point x="49" y="672"/>
      <point x="49" y="642" type="curve" smooth="yes"/>
      <point x="49" y="621"/>
      <point x="60" y="605"/>
      <point x="60" y="587" type="curve" smooth="yes"/>
      <point x="60" y="571"/>
      <point x="63" y="549"/>
      <point x="63" y="523" type="curve" smooth="yes"/>
      <point x="63" y="414"/>
      <point x="61" y="351"/>
      <point x="61" y="288" type="curve" smooth="yes"/>
      <point x="61" y="272"/>
      <point x="61" y="257"/>
      <point x="60" y="243" type="curve"/>
      <point x="55" y="238"/>
      <point x="49" y="230"/>
      <point x="49" y="219" type="curve" smooth="yes"/>
      <point x="49" y="208"/>
      <point x="53" y="194"/>
      <point x="59" y="182" type="curve"/>
      <point x="56" y="126"/>
      <point x="52" y="94"/>
      <point x="48" y="77" type="curve" smooth="yes"/>
      <point x="46" y="67"/>
      <point x="44" y="60"/>
      <point x="44" y="53" type="curve" smooth="yes"/>
      <point x="44" y="24"/>
      <point x="79" y="-11"/>
      <point x="108" y="-11" type="curve" smooth="yes"/>
      <point x="139" y="-11"/>
      <point x="179" y="14"/>
      <point x="179" y="58" type="curve" smooth="yes"/>
      <point x="179" y="76"/>
      <point x="180" y="128"/>
      <point x="180" y="135" type="curve"/>
      <point x="183" y="135"/>
      <point x="187" y="136"/>
      <point x="189" y="136" type="curve"/>
      <point x="236" y="111"/>
      <point x="335" y="42"/>
      <point x="350" y="27" type="curve" smooth="yes"/>
      <point x="377" y="1"/>
      <point x="401" y="-13"/>
      <point x="431" y="-13" type="curve" smooth="yes"/>
      <point x="461" y="-13"/>
      <point x="484" y="21"/>
      <point x="484" y="45" type="curve" smooth="yes"/>
      <point x="484" y="87"/>
      <point x="468" y="102"/>
      <point x="443" y="113" type="curve"/>
      <point x="415" y="127"/>
      <point x="389" y="143"/>
      <point x="361" y="160" type="curve" smooth="yes"/>
      <point x="308" y="191"/>
      <point x="279" y="209"/>
      <point x="253" y="225" type="curve"/>
      <point x="265" y="232"/>
      <point x="279" y="242"/>
      <point x="293" y="251" type="curve" smooth="yes"/>
      <point x="314" y="264"/>
      <point x="330" y="275"/>
      <point x="359" y="293" type="curve" smooth="yes"/>
      <point x="413" y="327"/>
      <point x="448" y="348"/>
      <point x="457" y="373" type="curve"/>
      <point x="469" y="416"/>
      <point x="452" y="472"/>
    </contour>
  </outline>
</glyph>
<glyph name="l" format="1">
  <advance width="265"/>
  <unicode hex="006C"/>
  <outline>
    <contour>
      <point x="123" y="743" type="move" name="top"/>
    </contour>
    <contour>
      <point x="241" y="52" type="curve" smooth="yes"/>
      <point x="241" y="97"/>
      <point x="223" y="96"/>
      <point x="212" y="100" type="curve" smooth="yes"/>
      <point x="205" y="102"/>
      <point x="199" y="104"/>
      <point x="194" y="107" type="curve"/>
      <point x="188" y="118"/>
      <point x="182" y="139"/>
      <point x="182" y="188" type="curve" smooth="yes"/>
      <point x="182" y="327"/>
      <point x="193" y="478"/>
      <point x="212" y="591" type="curve" smooth="yes"/>
      <point x="215" y="606"/>
      <point x="216" y="618"/>
      <point x="216" y="624" type="curve" smooth="yes"/>
      <point x="216" y="654"/>
      <point x="186" y="708"/>
      <point x="137" y="708" type="curve" smooth="yes"/>
      <point x="109" y="708"/>
      <point x="67" y="683"/>
      <point x="67" y="646" type="curve" smooth="yes"/>
      <point x="70" y="628"/>
      <point x="75" y="611"/>
      <point x="75" y="594" type="curve" smooth="yes"/>
      <point x="72" y="491"/>
      <point x="68" y="378"/>
      <point x="63" y="276" type="curve" smooth="yes"/>
      <point x="59" y="208"/>
      <point x="56" y="145"/>
      <point x="56" y="92" type="curve" smooth="yes"/>
      <point x="56" y="25"/>
      <point x="119" y="-16"/>
      <point x="162" y="-16" type="curve" smooth="yes"/>
      <point x="200" y="-16"/>
      <point x="241" y="10"/>
    </contour>
  </outline>
</glyph>
<glyph name="m" format="1">
  <advance width="874"/>
  <unicode hex="006D"/>
  <outline>
    <contour>
      <point x="148" y="477" type="curve" smooth="yes"/>
      <point x="127" y="477"/>
      <point x="61" y="477"/>
      <point x="61" y="408" type="curve" smooth="yes"/>
      <point x="61" y="376"/>
      <point x="70" y="350"/>
      <point x="70" y="322" type="curve" smooth="yes"/>
      <point x="70" y="181"/>
      <point x="59" y="135"/>
      <point x="50" y="104" type="curve" smooth="yes"/>
      <point x="46" y="89"/>
      <point x="42" y="75"/>
      <point x="42" y="54" type="curve" smooth="yes"/>
      <point x="42" y="7"/>
      <point x="77" y="-12"/>
      <point x="117" y="-12" type="curve" smooth="yes"/>
      <point x="149" y="-12"/>
      <point x="185" y="10"/>
      <point x="185" y="106" type="curve" smooth="yes"/>
      <point x="185" y="168"/>
      <point x="195" y="222"/>
      <point x="195" y="277" type="curve"/>
      <point x="210" y="321"/>
      <point x="264" y="362"/>
      <point x="307" y="362" type="curve" smooth="yes"/>
      <point x="327" y="362"/>
      <point x="377" y="362"/>
      <point x="377" y="235" type="curve" smooth="yes"/>
      <point x="377" y="205"/>
      <point x="373" y="164"/>
      <point x="369" y="131" type="curve" smooth="yes"/>
      <point x="364" y="97"/>
      <point x="362" y="63"/>
      <point x="362" y="51" type="curve" smooth="yes"/>
      <point x="362" y="-2"/>
      <point x="396" y="-6"/>
      <point x="415" y="-6" type="curve" smooth="yes"/>
      <point x="464" y="-6"/>
      <point x="492" y="32"/>
      <point x="492" y="69" type="curve" smooth="yes"/>
      <point x="492" y="93"/>
      <point x="500" y="217"/>
      <point x="508" y="251" type="curve"/>
      <point x="529" y="289"/>
      <point x="577" y="357"/>
      <point x="629" y="357" type="curve" smooth="yes"/>
      <point x="646" y="357"/>
      <point x="693" y="357"/>
      <point x="693" y="243" type="curve" smooth="yes"/>
      <point x="693" y="213"/>
      <point x="687" y="177"/>
      <point x="679" y="124" type="curve" smooth="yes"/>
      <point x="674" y="94"/>
      <point x="669" y="66"/>
      <point x="669" y="44" type="curve" smooth="yes"/>
      <point x="669" y="13"/>
      <point x="696" y="-8"/>
      <point x="736" y="-8" type="curve" smooth="yes"/>
      <point x="769" y="-8"/>
      <point x="807" y="8"/>
      <point x="808" y="45" type="curve" smooth="yes"/>
      <point x="808" y="69"/>
      <point x="811" y="92"/>
      <point x="814" y="127" type="curve" smooth="yes"/>
      <point x="818" y="172"/>
      <point x="821" y="213"/>
      <point x="821" y="251" type="curve" smooth="yes"/>
      <point x="821" y="385"/>
      <point x="750" y="473"/>
      <point x="637" y="473" type="curve" smooth="yes"/>
      <point x="552" y="473"/>
      <point x="500" y="427"/>
      <point x="466" y="387" type="curve"/>
      <point x="439" y="444"/>
      <point x="381" y="477"/>
      <point x="325" y="477" type="curve" smooth="yes"/>
      <point x="271" y="477"/>
      <point x="220" y="447"/>
      <point x="193" y="417" type="curve"/>
      <point x="194" y="423"/>
      <point x="194" y="426"/>
      <point x="194" y="428" type="curve" smooth="yes"/>
      <point x="196" y="461"/>
      <point x="181" y="477"/>
    </contour>
  </outline>
</glyph>
<glyph name="n" format="1">
  <advance width="579"/>
  <unicode hex="006E"/>
  <outline>
    <contour>
      <point x="297" y="520" type="move" name="top"/>
    </contour>
    <contour>
      <point x="56" y="406" type="curve"/>
      <point x="58" y="383"/>
      <point x="70" y="364"/>
      <point x="70" y="341" type="curve" smooth="yes"/>
      <point x="70" y="290"/>
      <point x="67" y="240"/>
      <point x="61" y="183" type="curve" smooth="yes"/>
      <point x="56" y="138"/>
      <point x="51" y="90"/>
      <point x="51" y="53" type="curve" smooth="yes"/>
      <point x="51" y="13"/>
      <point x="98" y="-11"/>
      <point x="119" y="-11" type="curve" smooth="yes"/>
      <point x="188" y="-11"/>
      <point x="186" y="133"/>
      <point x="186" y="229" type="curve" smooth="yes"/>
      <point x="186" y="244"/>
      <point x="193" y="263"/>
      <point x="200" y="277" type="curve" smooth="yes"/>
      <point x="207" y="291"/>
      <point x="260" y="370"/>
      <point x="330" y="370" type="curve" smooth="yes"/>
      <point x="404" y="370"/>
      <point x="408" y="264"/>
      <point x="408" y="243" type="curve" smooth="yes"/>
      <point x="408" y="152"/>
      <point x="398" y="113"/>
      <point x="387" y="90" type="curve" smooth="yes"/>
      <point x="383" y="81"/>
      <point x="380" y="71"/>
      <point x="380" y="63" type="curve" smooth="yes"/>
      <point x="380" y="19"/>
      <point x="403" y="-10"/>
      <point x="435" y="-10" type="curve" smooth="yes"/>
      <point x="500" y="-10"/>
      <point x="512" y="47"/>
      <point x="518" y="76" type="curve" smooth="yes"/>
      <point x="524" y="109"/>
      <point x="528" y="176"/>
      <point x="528" y="242" type="curve" smooth="yes"/>
      <point x="528" y="389"/>
      <point x="461" y="481"/>
      <point x="350" y="481" type="curve" smooth="yes"/>
      <point x="282" y="481"/>
      <point x="220" y="443"/>
      <point x="189" y="405" type="curve"/>
      <point x="190" y="411"/>
      <point x="190" y="415"/>
      <point x="190" y="419" type="curve" smooth="yes"/>
      <point x="186" y="473"/>
      <point x="170" y="482"/>
      <point x="144" y="482" type="curve" smooth="yes"/>
      <point x="98" y="482"/>
      <point x="56" y="453"/>
    </contour>
  </outline>
</glyph>
<glyph name="o" format="1">
  <advance width="513"/>
  <unicode hex="006F"/>
  <outline>
    <contour>
      <point x="254" y="528" type="move" name="top"/>
    </contour>
    <contour>
      <point x="249" y="489" type="curve" smooth="yes"/>
      <point x="126" y="489"/>
      <point x="27" y="351"/>
      <point x="27" y="183" type="curve" smooth="yes"/>
      <point x="27" y="74"/>
      <point x="112" y="-13"/>
      <point x="219" y="-13" type="curve" smooth="yes"/>
      <point x="416" y="-13"/>
      <point x="486" y="135"/>
      <point x="486" y="236" type="curve" smooth="yes"/>
      <point x="486" y="435"/>
      <point x="338" y="489"/>
    </contour>
    <contour>
      <point x="242" y="371" type="curve" smooth="yes"/>
      <point x="314" y="371"/>
      <point x="368" y="322"/>
      <point x="368" y="255" type="curve" smooth="yes"/>
      <point x="368" y="179"/>
      <point x="319" y="102"/>
      <point x="236" y="102" type="curve" smooth="yes"/>
      <point x="192" y="102"/>
      <point x="147" y="130"/>
      <point x="147" y="191" type="curve" smooth="yes"/>
      <point x="147" y="277"/>
      <point x="197" y="371"/>
    </contour>
  </outline>
</glyph>
<glyph name="p" format="1">
  <advance width="540"/>
  <unicode hex="0070"/>
  <outline>
    <contour>
      <point x="112" y="482" type="curve" smooth="yes"/>
      <point x="76" y="482"/>
      <point x="51" y="455"/>
      <point x="51" y="417" type="curve" smooth="yes"/>
      <point x="51" y="404"/>
      <point x="53" y="380"/>
      <point x="56" y="351" type="curve" smooth="yes"/>
      <point x="61" y="293"/>
      <point x="64" y="250"/>
      <point x="64" y="216" type="curve" smooth="yes"/>
      <point x="64" y="186"/>
      <point x="60" y="119"/>
      <point x="51" y="-28" type="curve" smooth="yes"/>
      <point x="46" y="-103"/>
      <point x="42" y="-192"/>
      <point x="42" y="-219" type="curve" smooth="yes"/>
      <point x="42" y="-259"/>
      <point x="81" y="-304"/>
      <point x="117" y="-304" type="curve" smooth="yes"/>
      <point x="160" y="-304"/>
      <point x="178" y="-261"/>
      <point x="178" y="-222" type="curve" smooth="yes"/>
      <point x="178" y="-196"/>
      <point x="170" y="-174"/>
      <point x="170" y="-151" type="curve" smooth="yes"/>
      <point x="170" y="-144"/>
      <point x="174" y="-49"/>
      <point x="174" y="-31" type="curve" smooth="yes"/>
      <point x="174" y="-27"/>
      <point x="175" y="-10"/>
      <point x="175" y="-9" type="curve"/>
      <point x="184" y="-7"/>
      <point x="194" y="-6"/>
      <point x="209" y="-6" type="curve" smooth="yes"/>
      <point x="372" y="-5"/>
      <point x="515" y="106"/>
      <point x="515" y="232" type="curve" smooth="yes"/>
      <point x="515" y="360"/>
      <point x="402" y="490"/>
      <point x="185" y="490" type="curve" smooth="yes"/>
      <point x="161" y="490"/>
      <point x="144" y="484"/>
      <point x="133" y="475" type="curve"/>
      <point x="129" y="479"/>
      <point x="117" y="482"/>
    </contour>
    <contour>
      <point x="218" y="374" type="curve" smooth="yes"/>
      <point x="326" y="374"/>
      <point x="384" y="323"/>
      <point x="384" y="235" type="curve" smooth="yes"/>
      <point x="384" y="172"/>
      <point x="321" y="105"/>
      <point x="209" y="105" type="curve" smooth="yes"/>
      <point x="203" y="105"/>
      <point x="190" y="105"/>
      <point x="184" y="106" type="curve"/>
      <point x="187" y="160"/>
      <point x="188" y="202"/>
      <point x="188" y="221" type="curve" smooth="yes"/>
      <point x="188" y="256"/>
      <point x="188" y="316"/>
      <point x="187" y="364" type="curve"/>
      <point x="197" y="364"/>
      <point x="209" y="374"/>
    </contour>
  </outline>
</glyph>
<glyph name="r" format="1">
  <advance width="449"/>
  <unicode hex="0072"/>
  <outline>
    <contour>
      <point x="223" y="513" type="move" name="top"/>
    </contour>
    <contour>
      <point x="344" y="475" type="curve" smooth="yes"/>
      <point x="281" y="475"/>
      <point x="209" y="434"/>
      <point x="171" y="370" type="curve"/>
      <point x="172" y="383"/>
      <point x="174" y="396"/>
      <point x="174" y="408" type="curve" smooth="yes"/>
      <point x="174" y="456"/>
      <point x="143" y="476"/>
      <point x="100" y="476" type="curve" smooth="yes"/>
      <point x="79" y="476"/>
      <point x="40" y="469"/>
      <point x="40" y="427" type="curve" smooth="yes"/>
      <point x="40" y="406"/>
      <point x="58" y="379"/>
      <point x="58" y="363" type="curve"/>
      <point x="62" y="282"/>
      <point x="63" y="235"/>
      <point x="63" y="200" type="curve" smooth="yes"/>
      <point x="63" y="160"/>
      <point x="61" y="135"/>
      <point x="60" y="90" type="curve"/>
      <point x="60" y="71"/>
      <point x="52" y="48"/>
      <point x="52" y="29" type="curve" smooth="yes"/>
      <point x="52" y="9"/>
      <point x="86" y="-10"/>
      <point x="119" y="-10" type="curve" smooth="yes"/>
      <point x="149" y="-10"/>
      <point x="185" y="28"/>
      <point x="185" y="62" type="curve" smooth="yes"/>
      <point x="185" y="93"/>
      <point x="180" y="152"/>
      <point x="180" y="177" type="curve" smooth="yes"/>
      <point x="181" y="197"/>
      <point x="224" y="361"/>
      <point x="336" y="361" type="curve" smooth="yes"/>
      <point x="367" y="361"/>
      <point x="381" y="325"/>
      <point x="407" y="325" type="curve" smooth="yes"/>
      <point x="432" y="325"/>
      <point x="462" y="363"/>
      <point x="462" y="406" type="curve" smooth="yes"/>
      <point x="462" y="435"/>
      <point x="421" y="475"/>
    </contour>
  </outline>
</glyph>
<glyph name="s" format="1">
  <advance width="462"/>
  <unicode hex="0073"/>
  <outline>
    <contour>
      <point x="227" y="521" type="move" name="top"/>
    </contour>
    <contour>
      <point x="286" y="489" type="curve" smooth="yes"/>
      <point x="269" y="488"/>
      <point x="255" y="482"/>
      <point x="241" y="482" type="curve" smooth="yes"/>
      <point x="116" y="482"/>
      <point x="38" y="398"/>
      <point x="38" y="322" type="curve" smooth="yes"/>
      <point x="38" y="242"/>
      <point x="83" y="198"/>
      <point x="175" y="190" type="curve" smooth="yes"/>
      <point x="250" y="184"/>
      <point x="317" y="175"/>
      <point x="317" y="125" type="curve" smooth="yes"/>
      <point x="317" y="107"/>
      <point x="293" y="83"/>
      <point x="248" y="83" type="curve" smooth="yes"/>
      <point x="196" y="83"/>
      <point x="168" y="99"/>
      <point x="145" y="113" type="curve" smooth="yes"/>
      <point x="128" y="124"/>
      <point x="110" y="135"/>
      <point x="82" y="135" type="curve" smooth="yes"/>
      <point x="59" y="135"/>
      <point x="23" y="105"/>
      <point x="23" y="72" type="curve" smooth="yes"/>
      <point x="23" y="39"/>
      <point x="49" y="4"/>
      <point x="87" y="4" type="curve" smooth="yes"/>
      <point x="104" y="4"/>
      <point x="116" y="1"/>
      <point x="132" y="-4" type="curve" smooth="yes"/>
      <point x="151" y="-10"/>
      <point x="175" y="-16"/>
      <point x="219" y="-16" type="curve" smooth="yes"/>
      <point x="354" y="-16"/>
      <point x="435" y="43"/>
      <point x="435" y="142" type="curve" smooth="yes"/>
      <point x="435" y="288"/>
      <point x="262" y="292"/>
      <point x="202" y="294" type="curve" smooth="yes"/>
      <point x="169" y="295"/>
      <point x="158" y="305"/>
      <point x="158" y="321" type="curve" smooth="yes"/>
      <point x="158" y="339"/>
      <point x="179" y="377"/>
      <point x="217" y="377" type="curve" smooth="yes"/>
      <point x="251" y="377"/>
      <point x="265" y="360"/>
      <point x="268" y="356" type="curve" smooth="yes"/>
      <point x="277" y="347"/>
      <point x="291" y="333"/>
      <point x="315" y="333" type="curve" smooth="yes"/>
      <point x="341" y="333"/>
      <point x="385" y="360"/>
      <point x="385" y="391" type="curve" smooth="yes"/>
      <point x="385" y="437"/>
      <point x="325" y="489"/>
    </contour>
  </outline>
</glyph>
<glyph name="t" format="1">
  <advance width="374"/>
  <unicode hex="0074"/>
  <outline>
    <contour>
      <point x="50" y="470" type="curve" smooth="yes"/>
      <point x="21" y="470"/>
      <point x="-5" y="440"/>
      <point x="-5" y="407" type="curve" smooth="yes"/>
      <point x="-5" y="380"/>
      <point x="7" y="345"/>
      <point x="44" y="345" type="curve" smooth="yes"/>
      <point x="55" y="345"/>
      <point x="69" y="345"/>
      <point x="83" y="347" type="curve"/>
      <point x="89" y="348"/>
      <point x="94" y="349"/>
      <point x="100" y="350" type="curve" smooth="yes"/>
      <point x="98" y="332"/>
      <point x="95" y="313"/>
      <point x="93" y="294" type="curve" smooth="yes"/>
      <point x="86" y="229"/>
      <point x="81" y="171"/>
      <point x="81" y="105" type="curve" smooth="yes"/>
      <point x="81" y="28"/>
      <point x="145" y="-11"/>
      <point x="182" y="-11" type="curve" smooth="yes"/>
      <point x="208" y="-11"/>
      <point x="228" y="-7"/>
      <point x="248" y="-2" type="curve" smooth="yes"/>
      <point x="266" y="3"/>
      <point x="280" y="5"/>
      <point x="296" y="5" type="curve" smooth="yes"/>
      <point x="321" y="5"/>
      <point x="347" y="38"/>
      <point x="347" y="63" type="curve" smooth="yes"/>
      <point x="347" y="83"/>
      <point x="318" y="126"/>
      <point x="294" y="126" type="curve" smooth="yes"/>
      <point x="273" y="126"/>
      <point x="264" y="120"/>
      <point x="250" y="114" type="curve" smooth="yes"/>
      <point x="239" y="109"/>
      <point x="220" y="103"/>
      <point x="211" y="103" type="curve" smooth="yes"/>
      <point x="208" y="103"/>
      <point x="200" y="131"/>
      <point x="200" y="134" type="curve" smooth="yes"/>
      <point x="200" y="185"/>
      <point x="208" y="270"/>
      <point x="217" y="355" type="curve"/>
      <point x="222" y="355"/>
      <point x="255" y="356"/>
      <point x="260" y="356" type="curve" smooth="yes"/>
      <point x="296" y="356" type="line" smooth="yes"/>
      <point x="332" y="356"/>
      <point x="364" y="391"/>
      <point x="364" y="420" type="curve" smooth="yes"/>
      <point x="364" y="450"/>
      <point x="335" y="475"/>
      <point x="300" y="475" type="curve" smooth="yes"/>
      <point x="277" y="475"/>
      <point x="263" y="467"/>
      <point x="243" y="467" type="curve" smooth="yes"/>
      <point x="233" y="467" type="line"/>
      <point x="233" y="471"/>
      <point x="234" y="483"/>
      <point x="237" y="498" type="curve" smooth="yes"/>
      <point x="240" y="514"/>
      <point x="247" y="556"/>
      <point x="247" y="572" type="curve" smooth="yes"/>
      <point x="247" y="616"/>
      <point x="212" y="645"/>
      <point x="157" y="645" type="curve" smooth="yes"/>
      <point x="130" y="645"/>
      <point x="97" y="597"/>
      <point x="97" y="567" type="curve" smooth="yes"/>
      <point x="97" y="550"/>
      <point x="103" y="536"/>
      <point x="111" y="524" type="curve"/>
      <point x="111" y="509"/>
      <point x="110" y="481"/>
      <point x="109" y="467" type="curve"/>
      <point x="97" y="467" type="line" smooth="yes"/>
      <point x="77" y="467"/>
      <point x="64" y="470"/>
    </contour>
  </outline>
</glyph>
<glyph name="u" format="1">
  <advance width="531"/>
  <unicode hex="0075"/>
  <outline>
    <contour>
      <point x="278" y="516" type="move" name="top"/>
    </contour>
    <contour>
      <point x="139" y="479" type="curve" smooth="yes"/>
      <point x="97" y="479"/>
      <point x="60" y="444"/>
      <point x="60" y="407" type="curve" smooth="yes"/>
      <point x="60" y="390"/>
      <point x="64" y="377"/>
      <point x="64" y="364" type="curve" smooth="yes"/>
      <point x="64" y="364"/>
      <point x="64" y="357"/>
      <point x="59" y="321" type="curve" smooth="yes"/>
      <point x="54" y="280"/>
      <point x="47" y="224"/>
      <point x="47" y="187" type="curve" smooth="yes"/>
      <point x="47" y="50"/>
      <point x="128" y="-12"/>
      <point x="208" y="-12" type="curve" smooth="yes"/>
      <point x="275" y="-12"/>
      <point x="328" y="24"/>
      <point x="356" y="58" type="curve"/>
      <point x="356" y="15"/>
      <point x="351" y="-12"/>
      <point x="401" y="-12" type="curve" smooth="yes"/>
      <point x="446" y="-12"/>
      <point x="483" y="23"/>
      <point x="483" y="50" type="curve" smooth="yes"/>
      <point x="483" y="83"/>
      <point x="465" y="111"/>
      <point x="465" y="141" type="curve" smooth="yes"/>
      <point x="465" y="180"/>
      <point x="472" y="331"/>
      <point x="475" y="360" type="curve" smooth="yes"/>
      <point x="478" y="380"/>
      <point x="485" y="399"/>
      <point x="485" y="418" type="curve" smooth="yes"/>
      <point x="485" y="444"/>
      <point x="466" y="478"/>
      <point x="431" y="478" type="curve" smooth="yes"/>
      <point x="403" y="478"/>
      <point x="344" y="446"/>
      <point x="344" y="410" type="curve" smooth="yes"/>
      <point x="344" y="404"/>
      <point x="345" y="398"/>
      <point x="346" y="381" type="curve" smooth="yes"/>
      <point x="348" y="355"/>
      <point x="350" y="318"/>
      <point x="350" y="272" type="curve" smooth="yes"/>
      <point x="350" y="240"/>
      <point x="349" y="205"/>
      <point x="345" y="171" type="curve"/>
      <point x="319" y="135"/>
      <point x="265" y="97"/>
      <point x="213" y="97" type="curve" smooth="yes"/>
      <point x="194" y="97"/>
      <point x="164" y="121"/>
      <point x="164" y="170" type="curve" smooth="yes"/>
      <point x="164" y="231"/>
      <point x="174" y="274"/>
      <point x="184" y="316" type="curve" smooth="yes"/>
      <point x="191" y="348"/>
      <point x="203" y="382"/>
      <point x="203" y="424" type="curve" smooth="yes"/>
      <point x="203" y="458"/>
      <point x="180" y="479"/>
    </contour>
  </outline>
</glyph>
